<svg width="358" height="238" viewBox="0 0 358 238" fill="none" xmlns="http://www.w3.org/2000/svg">
<g clip-path="url(#clip0_1869_15451)">
<path d="M178.222 226.209C255.459 226.209 318.071 223.225 318.071 219.545C318.071 215.864 255.459 212.881 178.222 212.881C100.986 212.881 38.373 215.864 38.373 219.545C38.373 223.225 100.986 226.209 178.222 226.209Z" fill="#E9ECF2"/>
<path d="M85.9226 197.039C61.6538 189.515 28.8026 151.876 42.1525 115.182C49.7474 94.3062 73.5942 92.7509 92.3391 89.2828C118.387 84.4633 130.112 69.1365 147.364 50.2722C166.642 29.1945 210.425 4.57146 249.151 37.379C259.58 46.2139 261.241 63.2992 274.698 75.2932C288.231 87.355 305.878 87.4094 313.82 111.29C320.008 129.896 293.368 168.607 275.316 180.145C241.928 201.483 140.649 214.005 85.9226 197.039Z" fill="#F3FAFF"/>
<path d="M328.866 120.126C328.863 120.265 328.86 120.399 328.856 120.537C328.469 137.409 326.053 150.45 322.592 160.529L313.629 165.472L320.826 164.741L321.032 164.721C316.57 175.763 310.835 182.748 305.531 187.156C302.232 189.905 299.098 191.654 296.544 192.759C296.376 192.833 296.211 192.904 296.046 192.972C295.635 193.143 295.237 193.295 294.86 193.433H290.071C290.018 193.208 289.967 192.985 289.92 192.759C289.886 192.618 289.856 192.476 289.829 192.335C289.785 192.15 289.748 191.961 289.711 191.776C285.206 169.735 293.226 152.761 303.163 140.884C303.19 140.843 303.224 140.806 303.261 140.766C306.718 136.645 310.408 133.137 313.875 130.249L315.705 135.735L316.402 128.22C322.424 123.547 327.367 120.895 328.58 120.271C328.769 120.173 328.866 120.126 328.866 120.126Z" fill="#9AADE5"/>
<path d="M329.049 120.219L328.873 120.543L317.993 140.562L317.797 140.916L314.832 146.374L314.731 146.557L305.272 163.957L305.259 163.981L289.846 192.34L289.614 192.765L289.246 193.439H288.828L289.192 192.765L289.728 191.781L304.939 163.796L305.222 163.277L328.597 120.277L328.725 120.041L329.049 120.219Z" fill="#F8F8F8"/>
<path d="M327.229 138.739L314.633 146.465L314.801 146.739L327.397 139.013L327.229 138.739Z" fill="#F8F8F8"/>
<path d="M327.54 134.686L317.666 140.742L317.834 141.016L327.708 134.96L327.54 134.686Z" fill="#F8F8F8"/>
<path d="M303.508 140.747L303.188 140.772L304.972 163.999L305.292 163.975L303.508 140.747Z" fill="#F8F8F8"/>
<path d="M287.969 197.065C287.969 197.065 299.007 203.005 315.612 194.247L310.52 191.496L319.025 192.284C325.54 188.216 332.789 181.876 340.478 172.167L338.535 171.118L341.113 171.356C342.41 169.695 343.72 167.937 345.041 166.076C345.041 166.076 340.335 165.409 333.534 165.837L329.818 170.354L331.03 166.042C317.098 167.416 296.596 173.605 287.969 197.065Z" fill="#BAC8F3"/>
<path d="M344.923 165.906L287.049 195.791L287.215 196.113L345.09 166.228L344.923 165.906Z" fill="#F8F8F8"/>
<path d="M329.993 173.83L329.941 174.163L337.938 175.413L337.99 175.08L329.993 173.83Z" fill="#F8F8F8"/>
<path d="M326.041 175.785L325.965 176.113L335.254 178.274L335.33 177.946L326.041 175.785Z" fill="#F8F8F8"/>
<path d="M302.274 177.115L302.008 176.782C306.941 172.84 312.85 169.873 319.573 167.964L319.689 168.374C313.022 170.267 307.162 173.207 302.274 177.115Z" fill="#3A77C8"/>
<path d="M299.245 70.1797V215.459C299.245 217.487 297.604 219.133 295.571 219.133H224.161C222.132 219.133 220.486 217.487 220.486 215.459V70.1797C220.486 68.1468 222.132 66.5054 224.161 66.5054H295.571C297.604 66.5054 299.245 68.1468 299.245 70.1797Z" fill="#446BD0"/>
<path d="M295.83 70.1797V215.459C295.83 217.487 294.188 219.133 292.155 219.133H220.745C218.716 219.133 217.07 217.487 217.07 215.459V70.1797C217.07 68.1468 218.716 66.5054 220.745 66.5054H292.155C294.188 66.5054 295.83 68.1468 295.83 70.1797Z" fill="#A2C3F2"/>
<path d="M290.422 85.2445V200.395C290.422 202.74 288.642 204.641 286.448 204.641H226.454C224.259 204.641 222.48 202.74 222.48 200.395V85.2445C222.48 82.8994 224.259 80.9985 226.454 80.9985H286.448C288.643 80.9985 290.422 82.8994 290.422 85.2445Z" fill="#E1EAFF"/>
<path d="M266.381 73.5078H246.536C246.34 73.5078 246.182 73.3491 246.182 73.1535C246.182 72.958 246.34 72.7993 246.536 72.7993H266.381C266.577 72.7993 266.735 72.958 266.735 73.1535C266.735 73.3491 266.577 73.5078 266.381 73.5078Z" fill="#3A77C8"/>
<path d="M274.028 166.398H238.859C236.684 166.398 234.904 164.618 234.904 162.443V160.929C234.904 158.754 236.684 156.975 238.859 156.975H274.028C276.203 156.975 277.982 158.754 277.982 160.929V162.443C277.982 164.618 276.203 166.398 274.028 166.398Z" fill="#608BE2"/>
<path d="M287.211 205.489H225.684C222.968 205.489 220.758 203.203 220.758 200.393V85.2419C220.758 82.4315 222.968 80.1455 225.684 80.1455H287.212C289.928 80.1455 292.138 82.4319 292.138 85.2419V200.393C292.138 203.203 289.928 205.489 287.211 205.489ZM225.684 81.8464C223.906 81.8464 222.459 83.3696 222.459 85.2419V200.393C222.459 202.265 223.906 203.788 225.684 203.788H287.212C288.99 203.788 290.437 202.265 290.437 200.393V85.2419C290.437 83.3696 288.99 81.8464 287.212 81.8464H225.684Z" fill="#F8F8F8"/>
<path d="M228.042 142.049H284.904C286.074 142.049 287.032 141.091 287.032 139.921V103.326C287.032 102.155 286.074 101.198 284.904 101.198H228.042C226.872 101.198 225.914 102.155 225.914 103.326V139.921C225.914 141.091 226.872 142.049 228.042 142.049Z" fill="#446BD0"/>
<path d="M241.293 129.286H231.057C230.74 129.286 230.48 129.026 230.48 128.709V126.742C230.48 126.425 230.74 126.166 231.057 126.166H241.293C241.61 126.166 241.87 126.425 241.87 126.742V128.709C241.87 129.026 241.61 129.286 241.293 129.286Z" fill="#F8F8F8"/>
<path d="M254.815 129.286H244.578C244.261 129.286 244.002 129.026 244.002 128.709V126.742C244.002 126.425 244.261 126.166 244.578 126.166H254.815C255.132 126.166 255.391 126.425 255.391 126.742V128.709C255.391 129.026 255.132 129.286 254.815 129.286Z" fill="#F8F8F8"/>
<path d="M268.344 129.286H258.108C257.791 129.286 257.531 129.026 257.531 128.709V126.742C257.531 126.425 257.791 126.166 258.108 126.166H268.344C268.661 126.166 268.92 126.425 268.92 126.742V128.709C268.921 129.026 268.661 129.286 268.344 129.286Z" fill="#F8F8F8"/>
<path d="M281.912 129.285H271.676C271.359 129.285 271.1 129.025 271.1 128.708V126.741C271.1 126.424 271.359 126.165 271.676 126.165H281.912C282.229 126.165 282.489 126.424 282.489 126.741V128.708C282.489 129.025 282.229 129.285 281.912 129.285Z" fill="#F8F8F8"/>
<path d="M281.776 135.392H268.309C267.923 135.392 267.607 135.076 267.607 134.69V132.973C267.607 132.587 267.923 132.272 268.309 132.272H281.776C282.162 132.272 282.477 132.588 282.477 132.973V134.69C282.477 135.076 282.162 135.392 281.776 135.392Z" fill="#F8F8F8"/>
<path d="M233.109 113.251V109.154C233.109 108.258 233.838 107.529 234.734 107.529H242.694C243.59 107.529 244.318 108.258 244.318 109.154V113.251C244.318 114.147 243.59 114.876 242.694 114.876H234.734C233.838 114.875 233.109 114.146 233.109 113.251ZM234.734 107.965C234.078 107.965 233.545 108.498 233.545 109.154V113.251C233.545 113.907 234.078 114.44 234.734 114.44H242.694C243.349 114.44 243.882 113.907 243.882 113.251V109.154C243.882 108.498 243.349 107.965 242.694 107.965H234.734Z" fill="#F8F8F8"/>
<path d="M280.582 110.636C280.582 110.586 280.601 110.535 280.64 110.496C282.43 108.706 282.43 105.794 280.64 104.004C280.563 103.927 280.563 103.802 280.64 103.725C280.717 103.647 280.842 103.647 280.919 103.725C282.863 105.669 282.863 108.832 280.919 110.776C280.842 110.853 280.717 110.853 280.64 110.776C280.601 110.737 280.582 110.686 280.582 110.636Z" fill="#F8F8F8"/>
<path d="M279.602 104.995C279.602 104.944 279.621 104.894 279.659 104.855C279.736 104.778 279.861 104.778 279.939 104.855C281.26 106.177 281.26 108.327 279.939 109.648C279.862 109.725 279.737 109.725 279.659 109.648C279.583 109.571 279.583 109.446 279.659 109.369C280.827 108.201 280.827 106.301 279.659 105.134C279.621 105.096 279.602 105.045 279.602 104.995Z" fill="#F8F8F8"/>
<path d="M278.66 108.459C278.66 108.409 278.68 108.358 278.718 108.32C279.308 107.73 279.308 106.77 278.718 106.18C278.641 106.103 278.641 105.978 278.718 105.9C278.795 105.824 278.92 105.824 278.997 105.9C279.741 106.644 279.741 107.855 278.997 108.599C278.92 108.676 278.795 108.676 278.718 108.599C278.68 108.561 278.66 108.51 278.66 108.459Z" fill="#F8F8F8"/>
<path d="M296.165 186.714H295.527V70.1793C295.527 68.3292 294.022 66.8239 292.172 66.8239H220.76C218.91 66.8239 217.405 68.3292 217.405 70.1793V169.993H216.768V70.1793C216.768 67.9774 218.559 66.186 220.761 66.186H292.172C294.373 66.186 296.165 67.9774 296.165 70.1793V186.714Z" fill="#3A77C8"/>
<path d="M228.973 219.452H220.761C218.559 219.452 216.768 217.66 216.768 215.458V198.657H217.405V215.458C217.405 217.308 218.91 218.814 220.76 218.814H228.973V219.452H228.973Z" fill="#3A77C8"/>
<path d="M261.556 218.815H253.955V219.453H261.556V218.815Z" fill="#3A77C8"/>
<path d="M300.865 218.492C300.865 219.589 292.807 220.483 282.868 220.483C272.93 220.483 264.871 219.59 264.871 218.492C264.871 218.471 264.875 218.454 264.879 218.433V213.053H300.853V218.42C300.861 218.445 300.865 218.466 300.865 218.492Z" fill="#E69317"/>
<path d="M282.867 215.091C292.807 215.091 300.864 214.2 300.864 213.101C300.864 212.002 292.807 211.111 282.867 211.111C272.928 211.111 264.871 212.002 264.871 213.101C264.871 214.2 272.928 215.091 282.867 215.091Z" fill="#FFD391"/>
<path d="M305.098 212.001C305.098 213.098 297.039 213.991 287.101 213.991C277.162 213.991 269.104 213.098 269.104 212.001C269.104 211.98 269.108 211.963 269.112 211.942V206.562H305.085V211.929C305.093 211.954 305.098 211.976 305.098 212.001Z" fill="#E69317"/>
<path d="M287.1 208.601C297.039 208.601 305.096 207.71 305.096 206.611C305.096 205.512 297.039 204.621 287.1 204.621C277.161 204.621 269.104 205.512 269.104 206.611C269.104 207.71 277.161 208.601 287.1 208.601Z" fill="#FFD391"/>
<path d="M300.865 205.511C300.865 206.609 292.807 207.501 282.868 207.501C272.93 207.501 264.871 206.609 264.871 205.511C264.871 205.49 264.875 205.473 264.879 205.452V200.072H300.853V205.439C300.861 205.465 300.865 205.486 300.865 205.511Z" fill="#E69317"/>
<path d="M282.867 202.111C292.807 202.111 300.864 201.22 300.864 200.121C300.864 199.022 292.807 198.131 282.867 198.131C272.928 198.131 264.871 199.022 264.871 200.121C264.871 201.22 272.928 202.111 282.867 202.111Z" fill="#FFD391"/>
<path d="M282.868 220.695C275.548 220.695 264.658 220.109 264.658 218.492H265.083C265.083 219.113 271.192 220.27 282.868 220.27C283.293 220.27 283.714 220.268 284.131 220.265L284.134 220.69C283.716 220.694 283.294 220.695 282.868 220.695Z" fill="#3A77C8"/>
<path d="M289.998 220.532L289.979 220.107C291.801 220.02 293.472 219.901 294.945 219.752L294.988 220.175C293.506 220.324 291.829 220.444 289.998 220.532Z" fill="#3A77C8"/>
<path d="M275.767 213.724C269.004 213.108 269.004 212.256 269.004 211.976H269.429C269.429 212.183 270.575 212.824 275.805 213.3L275.767 213.724Z" fill="#3A77C8"/>
<path d="M287.226 214.178C285.203 214.178 283.216 214.141 281.32 214.069L281.337 213.644C284.723 213.774 288.465 213.789 291.954 213.683L291.966 214.108C290.421 214.155 288.827 214.178 287.226 214.178Z" fill="#3A77C8"/>
<path d="M296.413 213.898L296.385 213.473C298.304 213.347 299.978 213.184 301.36 212.988L301.42 213.41C300.027 213.606 298.343 213.771 296.413 213.898Z" fill="#3A77C8"/>
<path d="M270.764 201.814C264.766 201.202 264.766 200.43 264.766 200.139H265.191C265.191 200.146 265.344 200.834 270.807 201.391L270.764 201.814Z" fill="#3A77C8"/>
<path d="M282.973 202.345C280.904 202.345 278.88 202.307 276.959 202.231L276.976 201.806C278.892 201.882 280.909 201.92 282.973 201.92C286.666 201.92 290.213 201.797 293.231 201.564L293.263 201.988C290.235 202.222 286.677 202.345 282.973 202.345Z" fill="#3A77C8"/>
<path d="M307.24 199.021C307.24 200.118 299.182 201.011 289.243 201.011C279.305 201.011 271.246 200.118 271.246 199.021C271.246 199 271.25 198.983 271.254 198.962V193.582H307.228V198.949C307.236 198.974 307.24 198.996 307.24 199.021Z" fill="#E69317"/>
<path d="M289.242 195.619C299.182 195.619 307.239 194.728 307.239 193.629C307.239 192.53 299.182 191.639 289.242 191.639C279.303 191.639 271.246 192.53 271.246 193.629C271.246 194.728 279.303 195.619 289.242 195.619Z" fill="#FFD391"/>
<path d="M303.897 193.629C303.897 194.368 297.334 194.967 289.239 194.967C281.143 194.967 274.58 194.368 274.58 193.629C274.58 192.889 281.143 192.291 289.239 192.291C297.334 192.291 303.897 192.89 303.897 193.629Z" fill="#E69317"/>
<path d="M242.543 184.045C232.508 183.771 224.152 191.686 223.878 201.724C223.604 211.759 231.519 220.119 241.557 220.39C251.592 220.664 259.952 212.749 260.223 202.711C260.496 192.675 252.582 184.319 242.543 184.045ZM256.678 202.615C256.571 206.521 254.95 210.153 252.11 212.84C249.273 215.528 245.562 216.952 241.652 216.845C233.589 216.624 227.204 209.886 227.425 201.819C227.532 197.913 229.15 194.281 231.99 191.594C234.727 189.001 238.283 187.585 242.04 187.585C242.177 187.585 242.31 187.589 242.448 187.593C250.381 187.806 256.682 194.331 256.682 202.215C256.682 202.349 256.682 202.482 256.678 202.615Z" fill="#FFD391"/>
<path d="M256.681 202.215C256.681 202.348 256.681 202.481 256.677 202.615C256.57 206.521 254.949 210.152 252.109 212.84C249.272 215.528 245.56 216.952 241.65 216.845C233.587 216.624 227.203 209.886 227.424 201.819C227.53 197.913 229.148 194.281 231.988 191.593C234.726 189.001 238.281 187.584 242.039 187.584C242.176 187.584 242.309 187.588 242.446 187.592C250.38 187.805 256.681 194.33 256.681 202.215Z" fill="#E69317"/>
<path d="M241.116 213.407V210.654C239.535 210.627 237.899 210.135 236.945 209.454L237.599 207.628C238.581 208.282 239.998 208.8 241.525 208.8C243.461 208.8 244.769 207.682 244.769 206.129C244.769 204.63 243.706 203.703 241.689 202.885C238.908 201.794 237.191 200.541 237.191 198.169C237.191 195.907 238.799 194.189 241.307 193.78V191.027H242.997V193.671C244.632 193.725 245.75 194.162 246.541 194.625L245.859 196.424C245.286 196.097 244.169 195.497 242.424 195.497C240.325 195.497 239.534 196.751 239.534 197.842C239.534 199.259 240.543 199.968 242.915 200.949C245.722 202.094 247.14 203.512 247.14 205.938C247.14 208.091 245.641 210.109 242.833 210.572V213.407H241.116Z" fill="#FFD391"/>
<path d="M256.083 198.555C256.052 198.436 256.018 198.317 255.984 198.199C254.823 194.187 251.995 190.886 248.219 189.117L248.387 188.758C252.267 190.575 255.173 193.968 256.358 198.066C256.4 198.212 256.435 198.333 256.467 198.456L256.083 198.555Z" fill="#3A77C8"/>
<path d="M248.215 189.118C245.178 187.695 241.72 187.377 238.477 188.22L238.377 187.837C241.709 186.969 245.263 187.297 248.383 188.758L248.215 189.118Z" fill="#3A77C8"/>
<path d="M254.898 209.7L254.557 209.499C255.529 207.845 256.155 206.055 256.417 204.18L256.809 204.235C256.541 206.162 255.898 208 254.898 209.7Z" fill="#3A77C8"/>
<path d="M253.881 188.698C252.476 187.467 250.899 186.467 249.191 185.727L249.361 185.336C251.108 186.095 252.723 187.118 254.161 188.378L253.881 188.698Z" fill="#3A77C8"/>
<path d="M252.312 217.483L252.074 217.13C256.887 213.89 259.854 208.498 260.011 202.706C260.108 199.106 259.142 195.605 257.216 192.581L257.575 192.353C259.547 195.449 260.536 199.032 260.436 202.717C260.275 208.646 257.238 214.166 252.312 217.483Z" fill="#3A77C8"/>
<path d="M287.242 111.197H286.817V103.1C286.817 102.044 285.958 101.185 284.902 101.185H248.686V100.759H284.902C286.192 100.759 287.242 101.809 287.242 103.1V111.197Z" fill="#3A77C8"/>
<path d="M287.24 115.451H286.814V120.134H287.24V115.451Z" fill="#3A77C8"/>
<path d="M243.997 100.76H236.613V101.185H243.997V100.76Z" fill="#3A77C8"/>
<path d="M112.013 56.9419C114.955 54.5552 117.663 51.679 118.937 48.1113C120.211 44.5433 119.773 40.1772 117.088 37.5037C114.9 35.324 111.576 34.5882 108.507 34.9349C105.437 35.2816 102.562 36.5838 99.8224 38.0102C94.5808 40.7397 64.0934 59.6421 74.6919 65.8673C84.895 71.8606 104.129 63.3382 112.013 56.9419Z" fill="#F3FAFF"/>
<path d="M41.9075 107.356L41.543 107.137C45.8432 99.9642 52.7702 95.0975 63.3422 91.8223L63.4679 92.2285C53.0019 95.4712 46.151 100.278 41.9075 107.356Z" fill="#3A77C8"/>
<path d="M36.3975 110.153L35.998 110.008C41.5486 94.7514 55.7961 89.8565 69.0007 87.0811L69.0884 87.4972C55.9976 90.2488 41.8766 95.0925 36.3975 110.153Z" fill="#3A77C8"/>
<path d="M228.624 21.2876C218.868 16.2999 210.608 14.9568 202.628 17.0591L202.52 16.6482C210.606 14.5169 218.963 15.8707 228.818 20.9088L228.624 21.2876Z" fill="#3A77C8"/>
<path d="M235.954 21.8254C224.663 14.6537 211.173 8.25901 196.733 15.2138L196.549 14.8306C211.176 7.78658 224.792 14.232 236.182 21.4668L235.954 21.8254Z" fill="#3A77C8"/>
<path d="M182.762 41.1846C172.727 40.9105 164.371 48.8252 164.097 58.8641C163.823 68.899 171.737 77.2591 181.776 77.5292C191.811 77.8033 200.171 69.8886 200.441 59.8498C200.716 49.8149 192.801 41.4587 182.762 41.1846ZM196.898 59.755C196.791 63.661 195.169 67.2928 192.329 69.9803C189.493 72.6681 185.781 74.0917 181.871 73.985C173.808 73.7641 167.424 67.0259 167.645 58.9593C167.752 55.0533 169.37 51.4214 172.209 48.734C174.946 46.1414 178.502 44.7253 182.26 44.7253C182.397 44.7253 182.53 44.7293 182.667 44.7328C190.601 44.9458 196.901 51.471 196.901 59.3552C196.901 59.4884 196.901 59.6217 196.898 59.755Z" fill="#FFD391"/>
<path d="M196.896 59.3554C196.896 59.4886 196.896 59.6219 196.892 59.7552C196.785 63.6612 195.163 67.2931 192.323 69.9809C189.487 72.6687 185.775 74.0923 181.865 73.986C173.802 73.7651 167.417 67.0269 167.638 58.9595C167.745 55.0535 169.363 51.4216 172.203 48.7338C174.94 46.1412 178.496 44.7251 182.254 44.7251C182.391 44.7251 182.524 44.7291 182.661 44.7326C190.595 44.9456 196.896 51.4712 196.896 59.3554Z" fill="#E69317"/>
<path d="M181.342 70.5469V67.7937C179.761 67.7667 178.126 67.2756 177.172 66.5945L177.826 64.7683C178.808 65.4224 180.225 65.9404 181.752 65.9404C183.688 65.9404 184.996 64.8226 184.996 63.2693C184.996 61.7699 183.933 60.8429 181.916 60.0253C179.135 58.9349 177.418 57.6806 177.418 55.309C177.418 53.0468 179.026 51.3292 181.534 50.9203V48.167H183.224V50.8112C184.859 50.8655 185.977 51.3019 186.768 51.7652L186.086 53.564C185.513 53.2372 184.396 52.6374 182.651 52.6374C180.552 52.6374 179.761 53.8913 179.761 54.9817C179.761 56.3994 180.77 57.1079 183.142 58.0892C185.949 59.2344 187.367 60.6517 187.367 63.0777C187.367 65.2312 185.868 67.2486 183.06 67.7119V70.5469H181.342Z" fill="#FFD391"/>
<path d="M196.319 55.7254C196.287 55.6001 196.251 55.4755 196.215 55.3509C195.06 51.3577 192.232 48.0559 188.455 46.2867L188.623 45.9277C192.504 47.7449 195.409 51.1376 196.594 55.2351C196.633 55.3688 196.67 55.4965 196.703 55.6254L196.319 55.7254Z" fill="#3A77C8"/>
<path d="M188.451 46.2861C185.414 44.8636 181.956 44.5451 178.713 45.3896L178.613 45.0056C181.945 44.1381 185.499 44.4654 188.62 45.9271L188.451 46.2861Z" fill="#3A77C8"/>
<path d="M167.992 63.0886C166.994 59.2521 167.55 55.2596 169.556 51.8467L169.898 52.0478C167.946 55.3691 167.405 59.2548 168.375 62.9887L167.992 63.0886Z" fill="#3A77C8"/>
<path d="M194.105 46.1665C192.7 44.9353 191.122 43.9357 189.416 43.1951L189.585 42.8052C191.332 43.5628 192.948 44.5862 194.386 45.8468L194.105 46.1665Z" fill="#3A77C8"/>
<path d="M192.538 74.9522L192.301 74.5996C197.114 71.3592 200.08 65.9669 200.238 60.1748C200.335 56.5754 199.369 53.0744 197.443 50.0503L197.802 49.8218C199.774 52.9182 200.763 56.502 200.663 60.1863C200.502 66.1157 197.465 71.6357 192.538 74.9522Z" fill="#3A77C8"/>
<path d="M179.745 98.5212L181.355 91.6192L187.93 88.8818L189.101 98.5212C189.101 98.5212 188.126 104.783 182.077 107.027C176.029 109.271 179.745 98.5212 179.745 98.5212Z" fill="#FCB47E"/>
<path d="M177.152 80.3724C177.152 80.3724 174.811 93.347 178.615 93.4445C182.42 93.5421 185.542 92.0788 186.322 91.201C187.102 90.3232 187.688 86.0304 187.688 86.0304C187.688 86.0304 188.176 80.47 185.834 79.3966C183.493 78.3236 178.42 76.4704 177.152 80.3724Z" fill="#FCB47E"/>
<path d="M189.688 88.6248C188.94 90.0052 188.202 91.3567 188.202 91.3567C187.09 91.1821 185.86 89.7926 185.642 88.5959C185.642 88.5959 182.145 88.269 182.023 83.941C182.023 83.941 175.949 83.9815 175.805 78.7101C175.657 73.4432 181.73 74.7994 183.744 76.4079C185.753 78.0164 186.974 78.8363 190.106 79.8454C193.399 80.9093 190.647 86.8541 189.688 88.6248Z" fill="#0C4592"/>
<path d="M186.831 213.952L186.083 206.283H177.979L179.739 213.729C179.739 213.729 180.678 216.226 183.402 216.134C186.023 216.045 186.831 213.952 186.831 213.952Z" fill="#FCB47E"/>
<path d="M226.743 189.961L220.518 185.421L215.129 191.475L223.105 195.519C223.105 195.519 224.094 195.714 226.092 193.974C228.069 192.252 226.743 189.961 226.743 189.961Z" fill="#FCB47E"/>
<path d="M193.646 208.672C188.955 210.446 182.959 209.961 176.499 208.672C176.312 208.222 176.125 207.771 175.946 207.316C163.635 176.199 172.352 131.002 172.352 131.002H191.715L191.277 145.942C190.427 149.888 189.844 153.886 189.47 157.849C187.012 183.909 193.646 208.672 193.646 208.672Z" fill="#3F5A9F"/>
<path d="M193.646 208.661C193.344 208.053 182.317 185.646 185.6 160.368L189.096 163.183C187.914 186.849 193.489 208.066 193.646 208.661Z" fill="#385087"/>
<path d="M224.946 181.858C223.169 186.846 221.276 190.721 219.218 192.983C218.261 194.033 217.27 194.739 216.237 195.046C213.269 193.523 210.551 191.873 208.068 190.121C207.727 189.887 207.396 189.649 207.064 189.406C206.622 189.083 206.188 188.756 205.767 188.428C205.571 188.28 205.38 188.131 205.193 187.978C204.81 187.68 204.436 187.374 204.07 187.072C203.743 186.8 203.42 186.523 203.105 186.251C201.434 184.805 199.894 183.317 198.474 181.79C198.338 181.645 198.202 181.497 198.07 181.352C197.972 181.246 197.874 181.135 197.776 181.029L197.772 181.025C178.244 159.319 181.829 131 181.829 131H198.814C200.268 158.154 224.946 181.858 224.946 181.858Z" fill="#3F5A9F"/>
<path d="M202.627 72.2157C201.177 71.1582 200.166 70.5743 199.923 70.3994C199.614 70.1784 199.541 69.6291 199.181 69.0761C198.351 67.8044 196.627 65.5557 194.844 64.9305C194.615 64.8492 194.438 65.0916 194.685 65.3538C195.119 65.8353 195.945 66.5247 195.818 66.6402C195.544 66.8702 193.614 64.5478 193.069 65.0864C192.66 65.4942 195.455 67.5656 195.346 67.6961C195.128 67.9571 193.024 65.5838 192.511 66.1201C192.024 66.6295 194.551 67.9603 194.442 68.184C194.328 68.4152 192.577 66.9646 192.232 67.2943C191.71 67.7937 194.865 69.7504 194.78 70.04C194.667 70.51 193.036 69.5299 192.794 70.0828C192.556 70.6017 194.841 71.5834 195.273 71.8004C196.271 72.3014 196.998 72.084 197.796 73.328C198.235 74.0114 198.67 74.6917 199.098 75.3771L202.627 72.2157Z" fill="#FCB47E"/>
<path d="M162.605 73.7649C163.934 72.5587 164.876 71.87 165.1 71.6697C165.383 71.4171 165.397 70.8629 165.696 70.2747C166.385 68.9216 167.86 66.5012 169.566 65.6892C169.785 65.5837 169.987 65.8058 169.769 66.093C169.388 66.6182 168.642 67.3921 168.78 67.4932C169.077 67.6928 170.748 65.1771 171.347 65.6547C171.798 66.0164 169.239 68.3746 169.362 68.4928C169.607 68.7289 171.446 66.1446 172.012 66.6229C172.55 67.0771 170.181 68.6705 170.313 68.8812C170.451 69.0989 172.037 67.4694 172.415 67.7606C172.988 68.2013 170.06 70.4841 170.175 70.763C170.338 71.2183 171.855 70.0696 172.154 70.5936C172.447 71.0839 170.28 72.3044 169.873 72.5662C168.935 73.1711 168.189 73.0327 167.527 74.3548C167.164 75.0815 166.805 75.8038 166.452 76.5313L162.605 73.7649Z" fill="#FCB47E"/>
<path d="M198.98 133.218C197.466 134.183 194.812 135.744 191.542 137.096C188.612 138.304 185.184 139.35 181.633 139.661C178.184 139.963 174.616 139.567 171.27 137.956C171.482 136.369 171.686 135.022 171.856 133.945C174.927 135.57 178.256 136.254 181.561 136.348C185.048 136.45 188.505 135.893 191.601 135.085C194.429 134.349 196.955 133.405 198.916 132.563C198.933 132.78 198.954 133.001 198.98 133.218Z" fill="#385087"/>
<path d="M168.082 131.16V109.793C168.082 109.793 148.881 106.534 152.65 87.9405C155.046 76.1266 163.481 71.9088 163.481 71.9088L168.159 75.6664C168.159 75.6664 158.217 90.8639 171.304 96.1424C171.304 96.1424 178.666 95.9123 180.583 97.9829C180.583 97.9829 184.801 101.357 189.249 95.7588C189.249 95.7588 193.773 93.9948 197.63 95.0313C200.804 95.8841 204.893 88.0131 197.301 74.6692L202.056 70.3745C202.056 70.3745 229.894 97.1388 202.592 110.406L201.068 131.754C201.068 131.754 179.936 143.738 168.082 131.16Z" fill="#6D92F0"/>
<path d="M184.8 89.3732C185.636 89.3732 186.314 88.6951 186.314 87.8587C186.314 87.0223 185.636 86.3442 184.8 86.3442C183.963 86.3442 183.285 87.0223 183.285 87.8587C183.285 88.6951 183.963 89.3732 184.8 89.3732Z" fill="#FCB47E"/>
<path d="M188.925 168.471C185.357 161.545 183.021 153.84 181.982 145.573L182.318 145.53C183.351 153.759 185.675 161.425 189.226 168.317L188.925 168.471Z" fill="#F8F8F8"/>
<path d="M198.039 144.015C192.664 144.015 190.945 139.346 190.928 139.298L191.246 139.185C191.263 139.231 192.945 143.815 198.291 143.674L198.3 144.012C198.213 144.014 198.125 144.015 198.039 144.015Z" fill="#F8F8F8"/>
<path d="M183.253 100.767C183.152 100.767 183.052 100.762 182.952 100.753C180.537 100.53 179.316 97.7092 179.266 97.5891L179.577 97.4574C179.588 97.4851 180.771 100.214 182.984 100.417C184.844 100.589 186.899 98.9893 189.096 95.666L189.378 95.8524C187.22 99.1158 185.161 100.767 183.253 100.767Z" fill="#3A77C8"/>
<path d="M168.084 109.793C168.084 109.793 148.879 106.531 152.651 87.9388C152.855 86.9226 153.106 85.9571 153.395 85.0511C153.442 84.9999 153.493 84.9492 153.54 84.9023C153.221 89.0999 153.071 92.7758 154.931 96.7504C158.819 105.063 168.349 109.771 168.084 109.793Z" fill="#608BE2"/>
<path d="M202.591 110.407L201.069 131.755C201.069 131.755 196.68 134.248 190.777 135.766C191.798 134.992 196.093 128.424 196.813 125.105C198.103 119.153 198.264 115.726 198.429 109.381C204.783 107.731 212.024 102.133 214.516 92.7925C215.081 99.1629 212.377 105.648 202.591 110.407Z" fill="#608BE2"/>
<path d="M182.285 134.664C182.226 134.664 182.193 134.664 182.188 134.664L182.194 134.326C182.284 134.325 191.21 134.451 198.936 129.74L199.112 130.029C191.738 134.524 183.287 134.664 182.285 134.664Z" fill="#3A77C8"/>
<path d="M219.213 192.984C218.256 194.035 217.265 194.741 216.232 195.047C213.264 193.524 210.546 191.874 208.063 190.122C207.722 189.888 207.391 189.65 207.059 189.408C206.617 189.085 206.183 188.757 205.762 188.43C205.566 188.281 205.375 188.132 205.188 187.979C204.805 187.681 204.431 187.375 204.065 187.073C203.738 186.801 203.415 186.525 203.1 186.252C201.429 184.807 199.889 183.318 198.469 181.791C198.333 181.647 198.197 181.498 198.065 181.354C197.967 181.247 197.869 181.137 197.771 181.03C209.385 190.628 216.815 192.589 219.213 192.984Z" fill="#385087"/>
<path d="M222.42 181.18C214.244 175.871 209.05 166.279 208.998 166.183L209.279 166.033C209.33 166.128 214.488 175.65 222.594 180.913L222.42 181.18Z" fill="#F8F8F8"/>
<path d="M187.87 220.056H169.486C168.845 220.056 168.334 219.514 168.382 218.876C168.382 218.868 168.383 218.86 168.384 218.852C168.396 218.712 168.413 218.568 168.435 218.423C168.499 217.934 168.63 217.445 168.86 217.138C169.732 215.982 171.425 215.455 174.44 214.259C176.332 213.507 177.939 212.507 178.645 212.04C178.875 211.887 179.173 211.925 179.373 212.116C183.009 215.672 185.241 214.914 185.909 213.447C186.419 212.329 187.142 212.563 187.342 212.891C187.954 213.916 188.29 216.918 188.426 218.423C188.444 218.585 188.456 218.734 188.465 218.853C188.486 219.134 188.499 219.303 188.499 219.303C188.567 219.694 188.265 220.056 187.87 220.056Z" fill="#0C4592"/>
<path d="M175.457 216.189C174.151 215.556 174.345 214.207 174.347 214.193L174.663 214.242C174.656 214.288 174.507 215.373 175.596 215.901L175.457 216.189Z" fill="#F8F8F8"/>
<path d="M173.843 216.731C172.642 216.053 172.77 214.882 172.776 214.833L173.093 214.87C173.088 214.911 172.989 215.882 174 216.453L173.843 216.731Z" fill="#F8F8F8"/>
<path d="M184.221 215.929C182.991 215.929 181.878 215.369 181.859 215.359L182.005 215.075C182.033 215.091 184.823 216.492 186.256 214.707L186.505 214.906C185.875 215.691 185.023 215.929 184.221 215.929Z" fill="#F8F8F8"/>
<path d="M186.205 218.622H175.492V218.941H186.205V218.622Z" fill="#F8F8F8"/>
<path d="M174.121 218.622H171.588V218.941H174.121V218.622Z" fill="#F8F8F8"/>
<path d="M232.233 191.07L223.251 207.11C222.938 207.669 222.214 207.851 221.681 207.496C221.675 207.492 221.67 207.489 221.665 207.485C221.546 207.404 221.431 207.319 221.312 207.23C220.921 206.933 220.555 206.58 220.402 206.23C219.819 204.904 220.185 203.173 220.614 199.954C220.882 197.934 220.793 196.05 220.733 195.199C220.712 194.927 220.891 194.685 221.154 194.604C226.032 193.166 226.462 190.853 225.509 189.551C224.782 188.561 225.339 188.042 225.721 188.029C226.917 187.995 229.698 189.164 231.076 189.785C231.229 189.849 231.365 189.909 231.475 189.96C231.731 190.079 231.884 190.151 231.884 190.151C232.262 190.283 232.424 190.721 232.233 191.07Z" fill="#0C4592"/>
<path d="M221.122 200.16C220.815 200.16 220.596 200.116 220.572 200.111L220.638 199.799C220.651 199.802 221.962 200.062 222.615 199.213L222.868 199.408C222.383 200.038 221.633 200.16 221.122 200.16Z" fill="#F8F8F8"/>
<path d="M220.981 201.899C220.675 201.899 220.455 201.855 220.432 201.85L220.497 201.538C220.51 201.541 221.82 201.801 222.474 200.952L222.727 201.147C222.242 201.776 221.492 201.899 220.981 201.899Z" fill="#F8F8F8"/>
<path d="M225.525 194.016L225.318 193.774C225.342 193.754 227.697 191.704 226.59 189.701L226.869 189.546C228.102 191.778 225.551 193.995 225.525 194.016Z" fill="#F8F8F8"/>
<path d="M229.938 192.162L224.805 201.565L225.085 201.718L230.218 192.315L229.938 192.162Z" fill="#F8F8F8"/>
<path d="M224.149 202.774L222.936 204.998L223.215 205.15L224.429 202.927L224.149 202.774Z" fill="#F8F8F8"/>
<path d="M171.248 96.3467C171.082 96.2995 167.159 95.1492 165.121 91.3999C163.715 88.8136 163.574 85.645 164.7 81.9834L165.107 82.1083C164.015 85.6545 164.145 88.7109 165.492 91.1924C167.441 94.7838 171.326 95.9266 171.365 95.9377L171.248 96.3467Z" fill="#3A77C8"/>
<path d="M181.199 84.1902C179.719 84.1902 177.392 83.5587 176.174 82.0387C175.42 81.0978 174.805 79.4366 176.161 76.8682L176.443 77.0169C175.419 78.9562 175.413 80.5786 176.422 81.8392C177.834 83.6008 180.813 84.103 181.964 83.7888L182.048 84.0966C181.823 84.1581 181.532 84.1902 181.199 84.1902Z" fill="#0C4592"/>
<path d="M179.837 84.498C178.815 84.498 177.589 84.2172 176.256 83.337L176.432 83.0708C179.917 85.3715 182.59 83.3873 182.617 83.3667L182.81 83.6206C182.792 83.6337 181.628 84.498 179.837 84.498Z" fill="#0C4592"/>
<path d="M26.8281 137.167C26.8309 137.287 26.8341 137.404 26.8368 137.524C27.1732 152.161 29.2692 163.474 32.2712 172.217L40.047 176.505L33.8031 175.871L33.6246 175.854C37.4949 185.433 42.4703 191.493 47.0716 195.316C49.9336 197.702 52.6519 199.219 54.8677 200.178C55.0137 200.242 55.1573 200.303 55.3005 200.362C55.6571 200.511 56.0022 200.642 56.3294 200.762H60.4833C60.5301 200.566 60.5741 200.374 60.615 200.178C60.6444 200.055 60.6705 199.932 60.6939 199.809C60.732 199.648 60.7641 199.485 60.7963 199.324C64.7046 180.203 57.7475 165.479 49.1267 155.175C49.1033 155.14 49.074 155.108 49.0419 155.072C46.0427 151.497 42.8416 148.454 39.8336 145.949L38.2462 150.708L37.6413 144.189C32.4176 140.135 28.1292 137.834 27.0768 137.293C26.9126 137.208 26.8281 137.167 26.8281 137.167Z" fill="#9AADE5"/>
<path d="M26.6602 137.242L26.8125 137.523L36.2516 154.89L36.4209 155.197L38.9933 159.932L39.0814 160.09L47.2868 175.186L47.2983 175.206L60.6692 199.808L60.8711 200.176L61.1896 200.761H61.5521L61.2364 200.176L60.7715 199.323L47.576 175.046L47.3305 174.595L27.0521 137.292L26.941 137.087L26.6602 137.242Z" fill="#F8F8F8"/>
<path d="M28.2239 153.308L28.0781 153.546L39.0058 160.248L39.1516 160.01L28.2239 153.308Z" fill="#F8F8F8"/>
<path d="M27.9544 149.791L27.8086 150.028L36.3741 155.282L36.5199 155.044L27.9544 149.791Z" fill="#F8F8F8"/>
<path d="M48.6129 176.453L50.1893 156.413L49.8814 156.39L48.3047 176.43L48.6129 176.453Z" fill="#F8F8F8"/>
<path d="M62.4482 204.761C62.4482 204.761 52.8723 209.914 38.4674 202.316L42.8846 199.929L35.5066 200.613C29.8549 197.084 23.5666 191.584 16.8962 183.161L18.5821 182.252L16.3453 182.458C15.2199 181.017 14.0835 179.492 12.9375 177.877C12.9375 177.877 17.0204 177.299 22.92 177.67L26.1433 181.589L25.0918 177.848C37.179 179.04 54.9643 184.409 62.4482 204.761Z" fill="#BAC8F3"/>
<path d="M13.0232 177.74L12.8789 178.02L63.0859 203.945L63.2302 203.666L13.0232 177.74Z" fill="#F8F8F8"/>
<path d="M25.9996 184.598L19.0625 185.682L19.1076 185.971L26.0448 184.887L25.9996 184.598Z" fill="#F8F8F8"/>
<path d="M29.4293 186.319L21.3711 188.193L21.4373 188.478L29.4955 186.603L29.4293 186.319Z" fill="#F8F8F8"/>
<path d="M145.661 213.622H58.0131C55.8656 213.622 54.125 211.881 54.125 209.734V150.065C54.125 147.918 55.866 146.177 58.0131 146.177H145.661C147.809 146.177 149.55 147.918 149.55 150.065V209.734C149.55 211.881 147.809 213.622 145.661 213.622Z" fill="#6D92F0"/>
<path d="M146.634 153.178V206.623C146.634 208.885 144.801 210.72 142.538 210.72H136.356V152.543H59.3697C58.4138 152.543 57.6387 151.768 57.6387 150.812C57.6387 149.856 58.4138 149.082 59.3697 149.082H142.538C144.8 149.081 146.634 150.915 146.634 153.178Z" fill="#3A77C8"/>
<path d="M123.266 147.055C123.35 147.158 123.434 147.261 123.516 147.366C125.905 150.458 126.948 154.296 126.451 158.175C125.956 162.051 123.984 165.502 120.889 167.895C114.507 172.827 105.299 171.651 100.364 165.266C97.9741 162.174 96.9281 158.339 97.4259 154.46C97.9043 150.72 99.7607 147.373 102.67 144.995C102.776 144.908 102.882 144.827 102.99 144.743C109.267 139.886 118.275 140.95 123.266 147.055Z" fill="#E69317"/>
<path d="M111.012 167.703V164.949C109.431 164.922 107.796 164.431 106.842 163.75L107.496 161.924C108.478 162.578 109.895 163.096 111.422 163.096C113.357 163.096 114.666 161.978 114.666 160.425C114.666 158.926 113.603 157.999 111.586 157.181C108.805 156.091 107.088 154.836 107.088 152.465C107.088 150.203 108.696 148.485 111.204 148.076V145.323H112.894V147.967C114.529 148.021 115.647 148.458 116.438 148.921L115.756 150.72C115.184 150.393 114.066 149.793 112.321 149.793C110.223 149.793 109.432 151.047 109.432 152.137C109.432 153.555 110.44 154.264 112.812 155.245C115.62 156.39 117.037 157.807 117.037 160.233C117.037 162.387 115.538 164.404 112.73 164.868V167.703H111.012Z" fill="#FFD391"/>
<path d="M116.533 138.731C106.821 136.187 96.8877 142 94.3435 151.715C91.8001 161.426 97.612 171.364 107.328 173.904C117.039 176.448 126.976 170.636 129.517 160.92C132.061 151.209 126.248 141.274 116.533 138.731ZM126.087 160.023C125.097 163.803 122.694 166.972 119.318 168.946C115.946 170.92 112.009 171.464 108.225 170.474C100.422 168.43 95.7326 160.419 97.7778 152.612C98.7675 148.833 101.167 145.662 104.543 143.689C107.797 141.785 111.581 141.212 115.241 142.065C115.374 142.096 115.503 142.13 115.636 142.165C123.314 144.172 127.97 151.956 126.182 159.635C126.151 159.764 126.121 159.894 126.087 160.023Z" fill="#FFD391"/>
<path d="M85.2971 124.565C75.2622 124.29 66.906 132.205 66.6319 142.244C66.3578 152.279 74.2725 160.639 84.3113 160.909C94.3466 161.183 102.706 153.269 102.977 143.23C103.251 133.195 95.3359 124.839 85.2971 124.565ZM99.4319 143.134C99.3252 147.04 97.7036 150.672 94.8635 153.36C92.0273 156.048 88.3157 157.471 84.4058 157.364C76.3427 157.144 69.9584 150.405 70.1793 142.339C70.286 138.433 71.904 134.801 74.7437 132.113C77.4807 129.521 81.0365 128.105 84.7941 128.105C84.9309 128.105 85.0642 128.109 85.2015 128.112C93.1352 128.325 99.4355 134.85 99.4355 142.735C99.4358 142.868 99.4358 143.001 99.4319 143.134Z" fill="#FFD391"/>
<path d="M96.1211 133.473C96.2056 133.576 96.2896 133.679 96.371 133.784C98.7609 136.876 99.8037 140.714 99.3063 144.593C98.8117 148.469 96.839 151.92 93.7446 154.313C87.3623 159.245 78.1544 158.07 73.2195 151.684C70.8296 148.592 69.7836 144.757 70.2814 140.878C70.7598 137.138 72.6162 133.791 75.5253 131.413C75.6316 131.326 75.7372 131.245 75.8454 131.161C82.1227 126.305 91.1306 127.369 96.1211 133.473Z" fill="#E69317"/>
<path d="M83.8815 153.928V151.175C82.3004 151.148 80.6649 150.656 79.7109 149.975L80.3654 148.149C81.3468 148.803 82.7641 149.321 84.2908 149.321C86.2266 149.321 87.5348 148.203 87.5348 146.65C87.5348 145.151 86.4717 144.224 84.4547 143.406C81.674 142.315 79.9569 141.062 79.9569 138.69C79.9569 136.428 81.5654 134.71 84.0731 134.301V131.548H85.7629V134.192C87.3983 134.246 88.5161 134.683 89.3067 135.146L88.6252 136.945C88.0528 136.618 86.9354 136.018 85.1905 136.018C83.0913 136.018 82.3008 137.272 82.3008 138.363C82.3008 139.78 83.3095 140.489 85.6812 141.47C88.4888 142.615 89.9065 144.033 89.9065 146.459C89.9065 148.612 88.4071 150.63 85.5995 151.093V153.928H83.8815Z" fill="#FFD391"/>
<path d="M96.6331 129.338C95.2286 128.107 93.6506 127.107 91.9434 126.367L92.1123 125.977C93.8601 126.735 95.4753 127.758 96.9136 129.018L96.6331 129.338Z" fill="#3A77C8"/>
<path d="M95.0579 158.124L94.8203 157.771C99.6331 154.531 102.6 149.138 102.757 143.346C102.855 139.748 101.888 136.246 99.9623 133.222L100.321 132.993C102.293 136.09 103.282 139.674 103.182 143.358C103.022 149.287 99.9845 154.807 95.0579 158.124Z" fill="#3A77C8"/>
<path d="M98.6979 139.006C98.6658 138.882 98.6305 138.759 98.5952 138.636C97.4389 134.638 94.611 131.337 90.834 129.568L91.0022 129.208C94.8828 131.026 97.7883 134.418 98.9736 138.516C99.0132 138.654 99.0493 138.779 99.0823 138.907L98.6979 139.006Z" fill="#3A77C8"/>
<path d="M90.8323 129.568C87.795 128.145 84.3372 127.827 81.0941 128.671L80.9941 128.287C84.3261 127.42 87.8795 127.748 91.0001 129.209L90.8323 129.568Z" fill="#3A77C8"/>
<path d="M97.506 150.149L97.1641 149.949C98.1367 148.294 98.7626 146.504 99.024 144.63L99.4167 144.685C99.1482 146.611 98.5052 148.45 97.506 150.149Z" fill="#3A77C8"/>
<path d="M139.564 219.206H57.8945C55.8128 219.206 54.125 217.518 54.125 215.436V156.383C54.125 154.301 55.8128 152.613 57.8945 152.613H139.564C141.646 152.613 143.333 154.301 143.333 156.383V215.436C143.333 217.518 141.646 219.206 139.564 219.206Z" fill="#6D92F0"/>
<path d="M88.1754 216.587H61.3437C59.3242 216.587 57.6816 214.944 57.6816 212.925V207.761H58.1069V212.925C58.1069 214.71 59.5591 216.162 61.3437 216.162H88.1754V216.587Z" fill="#3A77C8"/>
<path d="M102.956 216.163H94.6855V216.588H102.956V216.163Z" fill="#3A77C8"/>
<path d="M139.76 166.013H139.335V158.894C139.335 157.109 137.883 155.657 136.098 155.657H101.062V155.232H136.098C138.118 155.232 139.76 156.875 139.76 158.894V166.013Z" fill="#3A77C8"/>
<path d="M94.7641 155.232H86.8613V155.657H94.7641V155.232Z" fill="#3A77C8"/>
<path d="M58.1069 192.064H57.6816V202.115H58.1069V192.064Z" fill="#3A77C8"/>
<path d="M149.436 172.232V191.05C149.436 193.415 147.523 195.328 145.158 195.328H128.879C123.674 195.328 119.455 191.11 119.455 185.904C119.455 183.302 120.51 180.946 122.215 179.24C123.92 177.535 126.276 176.48 128.879 176.48H145.158C145.277 176.48 145.396 176.485 145.516 176.497C147.714 176.315 149.436 174.474 149.436 172.232Z" fill="#3F5A9F"/>
<path d="M131.113 189.018C132.831 187.3 132.831 184.516 131.113 182.799C129.396 181.081 126.612 181.081 124.895 182.799C123.177 184.516 123.177 187.3 124.895 189.018C126.612 190.735 129.396 190.735 131.113 189.018Z" fill="#F8F8F8"/>
<path d="M128.018 190.516V190.091C130.325 190.091 132.202 188.213 132.202 185.906C132.202 183.599 130.325 181.721 128.018 181.721V181.296C130.56 181.296 132.628 183.364 132.628 185.906C132.628 188.448 130.559 190.516 128.018 190.516Z" fill="#3A77C8"/>
<path d="M123.833 185.908H123.408C123.408 184.677 123.888 183.519 124.758 182.648L125.059 182.949C124.269 183.739 123.833 184.79 123.833 185.908Z" fill="#3A77C8"/>
<path d="M52.378 189.518C50.0971 187.36 47.5029 185.463 44.668 183.883L44.875 183.511C47.7409 185.109 50.3637 187.026 52.6703 189.209L52.378 189.518Z" fill="#3A77C8"/>
<path d="M40.034 181.651C38.4878 181.017 36.8567 180.451 35.1855 179.968L35.3038 179.559C36.9896 180.047 38.635 180.619 40.195 181.257L40.034 181.651Z" fill="#3A77C8"/>
<path d="M145.81 63.6446C138.917 61.762 131.563 61.4379 124.552 62.906C121.047 63.6212 117.62 64.7322 114.384 66.259C111.149 67.7806 108.063 69.639 105.272 71.8794C102.476 74.1094 99.9182 76.6461 97.7115 79.4648C95.5108 82.2871 93.6374 85.3641 92.1423 88.6155C91.7699 89.4283 91.4394 90.2605 91.0951 91.086C90.8 91.9297 90.4684 92.7619 90.2058 93.6163C89.6652 95.3204 89.1931 97.0467 88.8536 98.8035C88.685 99.6817 88.5275 100.562 88.4109 101.449C88.3804 101.671 88.3466 101.892 88.3232 102.115L88.2955 102.353L88.2784 102.5C88.257 102.696 88.23 102.892 88.2134 103.089L84.9004 102.754C86.2935 106.285 88.071 109.489 90.1189 112.296C91.5299 109.115 93.2883 106.266 95.2835 103.804L91.9706 103.469C91.9857 103.288 92.011 103.109 92.0305 102.928L92.0459 102.794L92.0713 102.575C92.0928 102.371 92.1237 102.168 92.1519 101.965C92.2582 101.151 92.4037 100.343 92.558 99.537C92.8686 97.9245 93.3046 96.3382 93.8004 94.773C94.0408 93.988 94.3474 93.2256 94.6163 92.4501C94.9341 91.6941 95.2355 90.9297 95.5775 90.1844C96.9491 87.2034 98.6659 84.3839 100.683 81.7956C102.706 79.2118 105.052 76.8861 107.617 74.8393C110.176 72.7826 113.011 71.0793 115.979 69.6818C118.948 68.2792 122.093 67.2618 125.307 66.6057C131.736 65.2578 138.469 65.5577 144.802 67.2836L145.81 63.6446Z" fill="#7D9EF2"/>
<path d="M110.924 68.1128L110.719 67.7729C111.823 67.1072 112.969 66.4849 114.127 65.9228C117.017 64.5269 120.157 63.45 123.462 62.7217C126.524 62.0363 129.832 61.7166 133.287 61.7761C136.509 61.8252 139.798 62.2826 143.063 63.135L142.962 63.519C139.729 62.6745 136.471 62.2219 133.281 62.1727C129.855 62.114 126.58 62.4302 123.548 63.1089C120.273 63.8308 117.162 64.8974 114.299 66.2798C113.153 66.8367 112.017 67.4531 110.924 68.1128Z" fill="#3A77C8"/>
<path d="M102.455 74.8484L102.166 74.5767C102.527 74.1915 102.913 73.823 103.287 73.466C103.502 73.2605 103.717 73.0554 103.928 72.8464C104.115 72.6826 104.293 72.5263 104.47 72.37C104.902 71.9892 105.348 71.5949 105.804 71.2236L106.055 71.5307C105.606 71.8972 105.162 72.2887 104.732 72.6671C104.555 72.8238 104.377 72.9809 104.198 73.1364C103.994 73.3383 103.778 73.5453 103.561 73.7524C103.191 74.1062 102.809 74.4711 102.455 74.8484Z" fill="#3A77C8"/>
<path d="M90.1641 112.691L89.9598 112.415C88.1582 109.983 86.5949 107.297 85.3125 104.432L85.6747 104.271C86.8968 107.001 88.3768 109.567 90.0761 111.903C91.0043 109.817 92.1038 107.828 93.3462 105.986L93.675 106.209C92.3839 108.123 91.2486 110.198 90.3014 112.376L90.1641 112.691Z" fill="#3A77C8"/>
<path d="M88.4154 103.104L88.0195 103.077C88.0223 103.037 88.3039 98.9953 89.4463 95.4678L89.8236 95.5899C88.6966 99.0695 88.4182 103.064 88.4154 103.104Z" fill="#3A77C8"/>
<path d="M60.793 183.213C51.0771 185.738 45.2488 195.663 47.7748 205.383C50.2996 215.099 60.2254 220.93 69.9441 218.401C79.6601 215.876 85.4919 205.95 82.9623 196.231C80.4371 186.516 70.5125 180.687 60.793 183.213ZM79.5312 197.125C80.5141 200.907 79.9651 204.846 77.9838 208.217C76.006 211.586 72.8358 213.986 69.0504 214.97C61.2436 216.998 53.2385 212.298 51.2092 204.488C50.2262 200.706 50.7716 196.768 52.753 193.397C54.6621 190.146 57.6843 187.798 61.2936 186.754C61.4253 186.715 61.5542 186.682 61.6871 186.648C69.3678 184.648 77.2329 189.166 79.4233 196.74C79.4605 196.868 79.4978 196.996 79.5312 197.125Z" fill="#FFD391"/>
<path d="M79.4265 196.74C79.4634 196.868 79.5007 196.996 79.534 197.125C80.517 200.907 79.968 204.847 77.9866 208.218C76.0088 211.588 72.8387 213.987 69.0533 214.971C61.2461 216.999 53.241 212.3 51.2116 204.489C50.2287 200.707 50.7741 196.768 52.7554 193.398C54.6646 190.146 57.6868 187.798 61.2965 186.754C61.4282 186.716 61.5571 186.683 61.69 186.648C69.3702 184.649 77.2357 189.166 79.4265 196.74Z" fill="#E69317"/>
<path d="M78.0913 214.065L77.8164 213.779C82.5014 209.272 84.3955 202.568 82.7597 196.283C82.1873 194.08 81.2234 192.039 79.8946 190.216L80.2151 189.982C81.5737 191.845 82.559 193.932 83.1437 196.183C84.8156 202.607 82.8799 209.459 78.0913 214.065ZM75.701 186.099C73.9842 184.893 72.0897 184.003 70.0703 183.453L70.1746 183.07C72.2385 183.632 74.1746 184.542 75.9287 185.774L75.701 186.099Z" fill="#3A77C8"/>
<path d="M67.5865 211.814L66.8217 209.169C65.2953 209.583 63.5877 209.566 62.4822 209.176L62.6032 207.24C63.7273 207.595 65.2331 207.699 66.6995 207.275C68.5591 206.737 69.5052 205.3 69.0736 203.808C68.6571 202.368 67.3782 201.773 65.2132 201.548C62.239 201.273 60.241 200.545 59.5821 198.267C58.9534 196.094 60.0212 193.997 62.3172 192.908L61.552 190.263L63.1755 189.793L63.9102 192.333C65.4964 191.931 66.6912 192.04 67.5797 192.265L67.4246 194.182C66.784 194.027 65.5436 193.762 63.8677 194.247C61.8515 194.83 61.4401 196.254 61.7432 197.301C62.1371 198.663 63.3029 199.064 65.8538 199.347C68.8689 199.667 70.6245 200.635 71.2989 202.965C71.8971 205.034 71.0172 207.389 68.4492 208.614L69.237 211.338L67.5865 211.814Z" fill="#FFD391"/>
<path d="M52.4102 190.644C53.7537 191.327 54.6775 192.374 55.3094 193.686C55.9413 192.374 56.8691 191.321 58.2122 190.639C56.8687 189.957 55.9409 188.909 55.3094 187.597C54.6775 188.909 53.7537 189.962 52.4102 190.644Z" fill="#FFE6A6"/>
<path d="M58.3496 195.37C59.1302 195.767 59.6673 196.375 60.0343 197.137C60.4016 196.375 60.9406 195.763 61.7213 195.367C60.9406 194.97 60.4016 194.362 60.0343 193.599C59.6669 194.361 59.1302 194.973 58.3496 195.37Z" fill="#FFE6A6"/>
<path d="M79.3409 197.174C79.308 197.047 79.2715 196.92 79.2346 196.794C78.0811 192.806 75.2532 189.504 71.4766 187.735L71.6447 187.376C75.5253 189.194 78.4305 192.587 79.6158 196.684C79.6531 196.813 79.6907 196.944 79.7245 197.074L79.3409 197.174Z" fill="#3A77C8"/>
<path d="M71.4807 187.735C68.4434 186.313 64.9853 185.995 61.7425 186.838L61.6426 186.455C64.9742 185.587 68.5279 185.914 71.6489 187.375L71.4807 187.735Z" fill="#3A77C8"/>
<path d="M51.0208 204.537C50.0236 200.701 50.5793 196.708 52.5853 193.295L52.9272 193.496C50.9748 196.818 50.4338 200.704 51.4044 204.437L51.0208 204.537Z" fill="#3A77C8"/>
<path d="M78.1622 208.318L77.8203 208.118C78.7929 206.463 79.4189 204.673 79.6803 202.798L80.073 202.853C79.804 204.78 79.1614 206.619 78.1622 208.318Z" fill="#3A77C8"/>
<path d="M71.6758 132.573C73.0193 133.255 73.9435 134.302 74.575 135.614C75.2069 134.302 76.1347 133.249 77.4778 132.567C76.1343 131.885 75.2065 130.837 74.575 129.525C73.9431 130.837 73.0189 131.89 71.6758 132.573Z" fill="#FFE6A6"/>
<path d="M91.2578 149.248C92.0385 149.645 92.5755 150.253 92.9425 151.016C93.3098 150.253 93.8488 149.642 94.6295 149.245C93.8488 148.848 93.3098 148.24 92.9425 147.478C92.5755 148.24 92.0385 148.852 91.2578 149.248Z" fill="#FFE6A6"/>
<path d="M171.746 47.6693C173.09 48.3515 174.014 49.3991 174.645 50.7109C175.277 49.3991 176.205 48.346 177.548 47.6637C176.205 46.9814 175.277 45.9338 174.645 44.6221C174.014 45.9338 173.09 46.987 171.746 47.6693Z" fill="#FFE6A6"/>
<path d="M248.852 206.758C250.195 207.44 251.119 208.488 251.751 209.799C252.383 208.488 253.31 207.434 254.654 206.752C253.31 206.07 252.382 205.022 251.751 203.71C251.119 205.022 250.195 206.075 248.852 206.758Z" fill="#FFE6A6"/>
<path d="M246.889 215.863C247.669 216.259 248.206 216.868 248.573 217.63C248.94 216.868 249.48 216.256 250.26 215.859C249.48 215.463 248.941 214.854 248.573 214.092C248.206 214.854 247.669 215.466 246.889 215.863Z" fill="#FFE6A6"/>
</g>
<defs>
<clipPath id="clip0_1869_15451">
<rect width="357" height="238" fill="white" transform="translate(0.5)"/>
</clipPath>
</defs>
</svg>
