<svg width="1728" height="1117" viewBox="0 0 1728 1117" fill="none" xmlns="http://www.w3.org/2000/svg">
<g clip-path="url(#clip0_2275_33495)">
<rect width="1728" height="1117" fill="#EBF4FF"/>
<g opacity="0.15" clip-path="url(#clip1_2275_33495)">
<path d="M1748 614.473C1735.28 619.69 1726.31 632.177 1726.31 646.767C1726.31 656.83 1730.6 665.873 1737.42 672.245C1715.35 686.226 1700.69 710.822 1700.69 738.853C1700.69 767.981 1716.52 793.4 1740.04 807.053C1731.46 810.441 1724.16 816.341 1719.09 823.887C1712.37 789.906 1677.58 764.006 1635.64 764.006C1628 764.006 1620.6 764.881 1613.56 766.491C1600.52 761.25 1586.28 758.353 1571.34 758.353C1548.55 758.353 1527.35 765.086 1509.6 776.627C1498.79 759.933 1479.93 748.863 1458.46 748.863C1451.6 748.863 1445.01 750.008 1438.86 752.087C1403.92 717.562 1355.76 696.216 1302.58 696.216C1270.59 696.216 1240.44 703.986 1213.86 717.659C1213.91 716.819 1213.99 715.987 1213.99 715.136C1213.99 692.388 1195.42 673.947 1172.52 673.947C1160.12 673.947 1149.02 679.385 1141.42 687.959C1112.39 678.873 1081.5 673.947 1049.45 673.947C1017.59 673.947 986.864 678.791 957.977 687.77C955.773 684.724 953.343 681.853 950.703 679.187C960.031 669.897 965.797 657.077 965.797 642.919C965.797 614.551 942.643 591.553 914.084 591.553C900.235 591.553 887.668 596.97 878.384 605.775C863.802 600.683 848.659 596.777 833.076 594.151C829.093 575.726 812.617 561.907 792.877 561.907C773.82 561.907 757.838 574.797 753.165 592.265C694.817 599.262 642.064 624.301 600.721 661.599C592.725 651.854 580.554 645.623 566.912 645.623C546.88 645.623 530.044 659.058 524.935 677.341C505.822 657.787 479.095 645.623 449.484 645.623C428.872 645.623 409.657 651.533 393.424 661.707C385.193 647.712 369.948 638.283 352.452 638.283C340.618 638.283 329.824 642.611 321.509 649.725C289.607 625.131 249.575 610.449 206.066 610.449C198.178 610.449 190.42 610.987 182.785 611.923C176.644 591.459 157.58 576.53 134.985 576.53C113.43 576.53 95.1204 590.134 88.145 609.146C81.8792 608.047 75.4437 607.442 68.8597 607.442C62.245 607.442 55.7765 608.052 49.48 609.162C45.5409 595.426 35.3643 584.323 22.1633 579.066C27.4555 567.011 30.4092 553.708 30.4092 539.715C30.4092 502.913 10.089 470.843 -20 453.913V1147.67H1748V614.473Z" fill="white"/>
<path d="M102.869 358.698H430.392C430.392 358.698 364.085 285.682 302.924 339.604C302.924 339.604 245.301 280.821 170.103 339.224C170.103 339.224 124.986 330.431 102.869 358.698Z" fill="white"/>
<path d="M756.326 84.7429H1083.85C1083.85 84.7429 1017.54 11.7269 956.382 65.6485C956.382 65.6485 898.759 6.86605 823.562 65.269C823.562 65.269 778.443 56.4785 756.326 84.7429Z" fill="white"/>
<path d="M1238.28 408.451H1565.8C1565.8 408.451 1499.5 335.435 1438.34 389.357C1438.34 389.357 1380.71 330.575 1305.51 388.977C1305.51 388.977 1260.4 380.185 1238.28 408.451Z" fill="white"/>
<mask id="mask0_2275_33495" style="mask-type:luminance" maskUnits="userSpaceOnUse" x="1556" y="159" width="192" height="75">
<path d="M1748 159.851H1556.09V233.279H1748V159.851Z" fill="white"/>
</mask>
<g mask="url(#mask0_2275_33495)">
<path d="M1571.04 201.67H1898.57C1898.57 201.67 1832.26 128.654 1771.1 182.575C1771.1 182.575 1713.48 123.793 1638.28 182.196C1638.28 182.196 1593.16 173.405 1571.04 201.67Z" fill="white"/>
</g>
<mask id="mask1_2275_33495" style="mask-type:luminance" maskUnits="userSpaceOnUse" x="-20" y="-15" width="129" height="60">
<path d="M108.892 -14.0908H-20V44.2909H108.892V-14.0908Z" fill="white"/>
</mask>
<g mask="url(#mask1_2275_33495)">
<path d="M-226.693 28.9031H100.83C100.83 28.9031 34.5227 -44.113 -26.6383 9.80867C-26.6383 9.80867 -84.2609 -48.9738 -159.46 9.42914C-159.46 9.42914 -204.577 0.636284 -226.693 28.9031Z" fill="white"/>
</g>
<mask id="mask2_2275_33495" style="mask-type:luminance" maskUnits="userSpaceOnUse" x="-20" y="507" width="1409" height="425">
<path d="M1388.17 507.13H-20V931.591H1388.17V507.13Z" fill="white"/>
</mask>
<g mask="url(#mask2_2275_33495)">
<path fill-rule="evenodd" clip-rule="evenodd" d="M796.934 782.636C786.005 783.131 500.473 654.405 478.746 647.059C457.018 639.711 207.315 765.635 176.064 783.723C144.811 801.811 761.072 859.273 796.934 782.636Z" fill="#8499B0"/>
<path fill-rule="evenodd" clip-rule="evenodd" d="M671.568 921.113C579.199 863.477 173.238 610.179 115.973 574.788C115.973 574.788 99.6487 567.518 83.4421 572.968C67.2283 578.421 -219.178 752.87 -219.178 752.87L-103.417 921.111H671.568V921.113Z" fill="#A0BAD6"/>
<path fill-rule="evenodd" clip-rule="evenodd" d="M1374.97 921.113C1249.81 832.442 892.092 629.11 878.804 628.662C858.632 627.981 723.281 643.367 312.412 897.931C299.256 906.083 287.995 913.801 278.49 921.113H1374.97Z" fill="#A0BAD6"/>
</g>
<path fill-rule="evenodd" clip-rule="evenodd" d="M975.172 247.029C975.172 247.029 968.34 245.692 967.301 244.801C966.261 243.91 968.637 241.683 968.637 241.683C968.637 241.683 956.83 233.587 949.107 233.587C941.384 233.587 931.726 233.587 927.716 233.587C923.707 233.587 927.646 230.987 929.723 229.802C931.802 228.613 932.917 228.241 940.939 228.241C948.958 228.241 949.925 228.241 955.271 228.241C960.618 228.241 967.97 232.251 967.97 232.251H970.533C970.533 232.251 971.869 227.263 975.174 227.126C978.475 227.263 979.809 232.251 979.809 232.251H982.374C982.374 232.251 989.728 228.241 995.073 228.241C1000.42 228.241 1001.39 228.241 1009.41 228.241C1017.42 228.241 1018.54 228.611 1020.62 229.802C1022.7 230.99 1026.63 233.587 1022.63 233.587C1018.62 233.587 1008.96 233.587 1001.24 233.587C993.514 233.587 981.707 241.683 981.707 241.683C981.707 241.683 984.083 243.91 983.043 244.801C982.001 245.695 975.172 247.029 975.172 247.029Z" fill="#A0BAD6"/>
<path fill-rule="evenodd" clip-rule="evenodd" d="M866.093 428.708C866.093 428.708 855.797 426.695 854.229 425.351C852.664 424.007 856.247 420.653 856.247 420.653C856.247 420.653 838.449 408.449 826.808 408.449C815.168 408.449 800.621 408.449 794.579 408.449C788.535 408.449 794.461 404.534 797.599 402.744C800.729 400.953 802.412 400.392 814.499 400.392C826.585 400.392 828.039 400.392 836.096 400.392C844.154 400.392 855.238 406.434 855.238 406.434H859.099C859.099 406.434 861.115 398.918 866.091 398.711C871.067 398.918 873.083 406.434 873.083 406.434H876.949C876.949 406.434 888.026 400.392 896.086 400.392C904.146 400.392 905.6 400.392 917.686 400.392C929.772 400.392 931.455 400.95 934.586 402.744C937.716 404.536 943.652 408.449 937.606 408.449C931.561 408.449 917.014 408.449 905.374 408.449C893.738 408.449 875.938 420.653 875.938 420.653C875.938 420.653 879.521 424.007 877.956 425.351C876.39 426.695 866.093 428.708 866.093 428.708Z" fill="#A0BAD6"/>
<path fill-rule="evenodd" clip-rule="evenodd" d="M1035.98 359.283C1035.98 359.283 1028 357.722 1026.79 356.68C1025.57 355.64 1028.35 353.038 1028.35 353.038C1028.35 353.038 1014.56 343.578 1005.53 343.578C996.513 343.578 985.233 343.578 980.549 343.578C975.86 343.578 980.459 340.542 982.89 339.156C985.316 337.767 986.622 337.333 995.992 337.333C1005.36 337.333 1006.49 337.333 1012.74 337.333C1018.98 337.333 1027.57 342.017 1027.57 342.017H1030.57C1030.57 342.017 1032.13 336.19 1035.99 336.03C1039.85 336.19 1041.4 342.017 1041.4 342.017H1044.4C1044.4 342.017 1052.99 337.333 1059.23 337.333C1065.48 337.333 1066.61 337.333 1075.98 337.333C1085.35 337.333 1086.65 337.767 1089.08 339.156C1091.51 340.542 1096.11 343.578 1091.42 343.578C1086.74 343.578 1075.46 343.578 1066.43 343.578C1057.41 343.578 1043.62 353.038 1043.62 353.038C1043.62 353.038 1046.39 355.64 1045.18 356.68C1043.96 357.722 1035.98 359.283 1035.98 359.283Z" fill="#A0BAD6"/>
<path fill-rule="evenodd" clip-rule="evenodd" d="M672.288 383.287C672.288 383.287 668.37 382.519 667.776 382.009C667.182 381.498 668.542 380.22 668.542 380.22C668.542 380.22 661.771 375.581 657.342 375.581C652.917 375.581 647.382 375.581 645.082 375.581C642.785 375.581 645.044 374.093 646.232 373.41C647.427 372.729 648.064 372.516 652.663 372.516C657.262 372.516 657.814 372.516 660.876 372.516C663.945 372.516 668.16 374.817 668.16 374.817H669.626C669.626 374.817 670.392 371.958 672.288 371.88C674.18 371.958 674.942 374.817 674.942 374.817H676.415C676.415 374.817 680.628 372.516 683.692 372.516C686.757 372.516 687.311 372.516 691.91 372.516C696.507 372.516 697.146 372.731 698.334 373.41C699.529 374.093 701.787 375.581 699.484 375.581C697.188 375.581 691.651 375.581 687.226 375.581C682.801 375.581 676.031 380.22 676.031 380.22C676.031 380.22 677.391 381.498 676.797 382.009C676.203 382.519 672.288 383.287 672.288 383.287Z" fill="#A0BAD6"/>
<path fill-rule="evenodd" clip-rule="evenodd" d="M794.73 298.636C794.73 298.636 789.24 297.561 788.403 296.844C787.568 296.128 789.475 294.338 789.475 294.338C789.475 294.338 779.982 287.827 773.768 287.827C767.561 287.827 759.794 287.827 756.569 287.827C753.347 287.827 756.515 285.736 758.184 284.782C759.855 283.825 760.754 283.525 767.201 283.525C773.648 283.525 774.428 283.525 778.723 283.525C783.023 283.525 788.94 286.75 788.94 286.75H791C791 286.75 792.071 282.74 794.727 282.632C797.389 282.74 798.459 286.75 798.459 286.75H800.519C800.519 286.75 806.436 283.525 810.729 283.525C815.031 283.525 815.809 283.525 822.259 283.525C828.706 283.525 829.604 283.825 831.276 284.782C832.947 285.734 836.115 287.827 832.89 287.827C829.665 287.827 821.9 287.827 815.686 287.827C809.477 287.827 799.987 294.338 799.987 294.338C799.987 294.338 801.894 296.128 801.057 296.844C800.225 297.561 794.73 298.636 794.73 298.636Z" fill="#A0BAD6"/>
<path fill-rule="evenodd" clip-rule="evenodd" d="M1169.48 288.016C1169.48 288.016 1165.56 287.252 1164.96 286.738C1164.37 286.226 1165.73 284.953 1165.73 284.953C1165.73 284.953 1158.96 280.312 1154.53 280.312C1150.1 280.312 1144.57 280.312 1142.27 280.312C1139.97 280.312 1142.23 278.824 1143.42 278.143C1144.62 277.459 1145.25 277.245 1149.85 277.245C1154.45 277.245 1155 277.245 1158.07 277.245C1161.13 277.245 1165.35 279.546 1165.35 279.546H1166.82C1166.82 279.546 1167.58 276.686 1169.48 276.608C1171.37 276.686 1172.13 279.546 1172.13 279.546H1173.6C1173.6 279.546 1177.82 277.245 1180.88 277.245C1183.95 277.245 1184.5 277.245 1189.1 277.245C1193.69 277.245 1194.33 277.459 1195.52 278.143C1196.71 278.824 1198.97 280.312 1196.67 280.312C1194.38 280.312 1188.84 280.312 1184.41 280.312C1179.99 280.312 1173.22 284.953 1173.22 284.953C1173.22 284.953 1174.58 286.229 1173.99 286.738C1173.39 287.252 1169.48 288.016 1169.48 288.016Z" fill="#A0BAD6"/>
<path fill-rule="evenodd" clip-rule="evenodd" d="M1367.18 211.659C1367.18 211.659 1363.27 210.891 1362.67 210.381C1362.08 209.87 1363.44 208.595 1363.44 208.595C1363.44 208.595 1356.67 203.953 1352.24 203.953C1347.82 203.953 1342.28 203.953 1339.99 203.953C1337.68 203.953 1339.94 202.461 1341.14 201.782C1342.33 201.101 1342.96 200.888 1347.56 200.888C1352.16 200.888 1352.71 200.888 1355.78 200.888C1358.84 200.888 1363.05 203.189 1363.05 203.189H1364.53C1364.53 203.189 1365.29 200.33 1367.18 200.252C1369.07 200.33 1369.84 203.189 1369.84 203.189H1371.31C1371.31 203.189 1375.53 200.888 1378.59 200.888C1381.65 200.888 1382.21 200.888 1386.81 200.888C1391.4 200.888 1392.04 201.103 1393.23 201.782C1394.43 202.463 1396.68 203.953 1394.38 203.953C1392.08 203.953 1386.55 203.953 1382.13 203.953C1377.7 203.953 1370.93 208.595 1370.93 208.595C1370.93 208.595 1372.29 209.87 1371.69 210.381C1371.1 210.893 1367.18 211.659 1367.18 211.659Z" fill="#A0BAD6"/>
<path fill-rule="evenodd" clip-rule="evenodd" d="M602.32 270.59C602.32 270.59 598.404 269.822 597.81 269.312C597.213 268.801 598.576 267.523 598.576 267.523C598.576 267.523 591.806 262.884 587.381 262.884C582.949 262.884 577.417 262.884 575.123 262.884C572.82 262.884 575.078 261.397 576.266 260.715C577.461 260.032 578.098 259.819 582.697 259.819C587.294 259.819 587.845 259.819 590.915 259.819C593.979 259.819 598.192 262.118 598.192 262.118H599.658C599.658 262.118 600.427 259.258 602.32 259.181C604.215 259.258 604.981 262.118 604.981 262.118H606.447C606.447 262.118 610.662 259.819 613.724 259.819C616.796 259.819 617.345 259.819 621.942 259.819C626.541 259.819 627.18 260.032 628.373 260.715C629.561 261.397 631.822 262.884 629.523 262.884C627.22 262.884 621.69 262.884 617.258 262.884C612.833 262.884 606.065 267.523 606.065 267.523C606.065 267.523 607.426 268.801 606.831 269.312C606.237 269.822 602.32 270.59 602.32 270.59Z" fill="#A0BAD6"/>
<mask id="mask3_2275_33495" style="mask-type:luminance" maskUnits="userSpaceOnUse" x="-20" y="878" width="1769" height="270">
<path d="M1748 878.524H-20V1147.67H1748V878.524Z" fill="white"/>
</mask>
<g mask="url(#mask3_2275_33495)">
<path fill-rule="evenodd" clip-rule="evenodd" d="M1802.32 890.16C1802.32 890.16 1480.23 890.16 1338.05 890.16H-95.3215V1158.04H1822.4C1828.5 1029.45 1802.32 890.16 1802.32 890.16Z" fill="#65947A"/>
<path fill-rule="evenodd" clip-rule="evenodd" d="M1817.07 1023.67L789.407 983.6C789.69 979.51 789.994 975.465 790.305 971.464L1807.38 945.722C1810.29 965.003 1813.98 992.147 1817.07 1023.67Z" fill="#4E715D"/>
<path fill-rule="evenodd" clip-rule="evenodd" d="M-95.3215 978.89V1114.21L1820.48 1083.79C1820.19 1079.69 1819.9 1075.65 1819.59 1071.63L-95.3215 978.89Z" fill="#4E715D"/>
</g>
<path d="M1117.85 968.18C1117.85 977.423 1038.38 984.917 940.349 984.917C842.315 984.917 762.842 977.423 762.842 968.18C762.842 958.937 842.315 951.445 940.349 951.445C1038.38 951.445 1117.85 958.937 1117.85 968.18Z" fill="#4E715D"/>
<path d="M1080.58 934.708H792.893V700.359L936.74 569.732L1080.58 700.359V934.708Z" fill="#C55D43"/>
<path d="M1080.58 862.576L1074.18 716.926L792.974 722.101L971.676 919.259L1080.58 918.252V862.576Z" fill="#C9795C"/>
<path d="M1080.58 852.103H792.974V854.677H1080.58V852.103Z" fill="#C9795C"/>
<path d="M1080.58 866.263H792.974V868.837H1080.58V866.263Z" fill="#C9795C"/>
<path d="M1080.58 837.942H792.974V840.517H1080.58V837.942Z" fill="#C9795C"/>
<path d="M1080.58 880.426H792.974V883.001H1080.58V880.426Z" fill="#C9795C"/>
<path d="M1080.58 922.91H792.974V925.484H1080.58V922.91Z" fill="#C9795C"/>
<path d="M1080.58 908.75H792.974V911.324H1080.58V908.75Z" fill="#C9795C"/>
<path d="M1080.58 823.782H792.974V826.356H1080.58V823.782Z" fill="#C9795C"/>
<path d="M1080.58 894.587H792.974V897.161H1080.58V894.587Z" fill="#C9795C"/>
<path d="M1080.58 795.458H792.974V798.033H1080.58V795.458Z" fill="#C9795C"/>
<path d="M1080.58 781.298H792.974V783.87H1080.58V781.298Z" fill="#C9795C"/>
<path d="M1080.58 809.619H792.974V812.193H1080.58V809.619Z" fill="#C9795C"/>
<path d="M1080.58 752.975H792.974V755.549H1080.58V752.975Z" fill="#C9795C"/>
<path d="M1080.58 767.137H792.974V769.711H1080.58V767.137Z" fill="#C9795C"/>
<path d="M1080.58 739.038H792.974V741.612H1080.58V739.038Z" fill="#C9795C"/>
<path d="M874.405 748.861H812.117V859.661H874.405V748.861Z" fill="#DBDAD4"/>
<path d="M871.157 852.198H815.37V756.327H871.157V852.198ZM817.398 850.17H869.127V758.352H817.398V850.17Z" fill="#C5C2A6"/>
<path d="M865.553 763.722H820.757V848.946H865.553V763.722Z" fill="#333239"/>
<path d="M866.55 802.618H819.977V808.021H866.55V802.618Z" fill="#DBDAD4"/>
<path d="M844.613 762.843H841.912V848.949H844.613V762.843Z" fill="#DBDAD4"/>
<path d="M1061.36 748.861H999.075V859.661H1061.36V748.861Z" fill="#DBDAD4"/>
<path d="M1058.11 852.198H1002.33V756.327H1058.11V852.198ZM1004.35 850.17H1056.09V758.352H1004.35V850.17Z" fill="#C5C2A6"/>
<path d="M1052.51 763.722H1007.71V848.946H1052.51V763.722Z" fill="#333239"/>
<path d="M1053.51 802.618H1006.93V808.021H1053.51V802.618Z" fill="#DBDAD4"/>
<path d="M1031.57 762.843H1028.87V848.949H1031.57V762.843Z" fill="#DBDAD4"/>
<path d="M1080.58 729.802H800.116V732.376H1080.58V729.802Z" fill="#74899B"/>
<path d="M971.676 760.695H901.795V911.001H971.676V760.695Z" fill="#DBDAD4"/>
<path d="M966.803 904.646H906.668V767.051H966.803V904.646ZM908.693 902.621H964.776V769.076H908.693V902.621Z" fill="#C5C2A6"/>
<path d="M972.781 909.99H900.689V914.226H972.781V909.99Z" fill="#333239"/>
<path d="M958.051 777.644H915.432V890.935H958.051V777.644Z" fill="#333239"/>
<path d="M959.661 797.666H915.432V800.367H959.661V797.666Z" fill="#DBDAD4"/>
<path d="M959.661 821.613H915.432V824.315H959.661V821.613Z" fill="#DBDAD4"/>
<path d="M959.661 844.27H915.432V846.971H959.661V844.27Z" fill="#DBDAD4"/>
<path d="M959.661 866.928H915.432V869.63H959.661V866.928Z" fill="#DBDAD4"/>
<path d="M930.988 774.427H928.287V890.936H930.988V774.427Z" fill="#DBDAD4"/>
<path d="M945.194 774.427H942.492V890.936H945.194V774.427Z" fill="#DBDAD4"/>
<path d="M914.76 838.475C914.76 840.074 913.464 841.372 911.866 841.372C910.265 841.372 908.968 840.074 908.968 838.475C908.968 836.877 910.265 835.578 911.866 835.578C913.464 835.578 914.76 836.877 914.76 838.475Z" fill="#C5C2A6"/>
<path d="M887.677 834.291H798.848V844.59H887.677V834.291Z" fill="#DBDAD4"/>
<path d="M885.105 840.359H798.848V842.384H885.105V840.359Z" fill="#C5C2A6"/>
<path d="M887.677 896.088H798.848V903.17H887.677V896.088Z" fill="#DBDAD4"/>
<path d="M815.09 844.59H811.547V899.627H815.09V844.59Z" fill="#DBDAD4"/>
<path d="M830.064 844.59H826.518V899.627H830.064V844.59Z" fill="#DBDAD4"/>
<path d="M845.035 844.59H841.492V899.627H845.035V844.59Z" fill="#DBDAD4"/>
<path d="M860.004 844.59H856.461V899.627H860.004V844.59Z" fill="#DBDAD4"/>
<path d="M874.978 844.59H871.433V899.627H874.978V844.59Z" fill="#DBDAD4"/>
<path d="M895.932 732.588H883.059V919.261H895.932V732.588Z" fill="#DBDAD4"/>
<path d="M895.932 732.588H890.095V919.261H895.932V732.588Z" fill="#C5C2A6"/>
<path d="M803.468 732.588H790.595V914.226H803.468V732.588Z" fill="#DBDAD4"/>
<path d="M797.629 732.588H790.595V914.226H797.629V732.588Z" fill="#C5C2A6"/>
<path d="M1074.77 834.291H985.938V844.59H1074.77V834.291Z" fill="#DBDAD4"/>
<path d="M1074.77 840.359H988.512V842.384H1074.77V840.359Z" fill="#C5C2A6"/>
<path d="M1074.77 896.088H985.938V903.17H1074.77V896.088Z" fill="#DBDAD4"/>
<path d="M1062.07 844.59H1058.52V899.627H1062.07V844.59Z" fill="#DBDAD4"/>
<path d="M1047.1 844.59H1043.55V899.627H1047.1V844.59Z" fill="#DBDAD4"/>
<path d="M1032.12 844.59H1028.58V899.627H1032.12V844.59Z" fill="#DBDAD4"/>
<path d="M1017.15 844.59H1013.61V899.627H1017.15V844.59Z" fill="#DBDAD4"/>
<path d="M1002.18 844.59H998.639V899.627H1002.18V844.59Z" fill="#DBDAD4"/>
<path d="M990.556 732.588H977.683V919.261H990.556V732.588Z" fill="#DBDAD4"/>
<path d="M983.387 732.588H977.548V919.261H983.387V732.588Z" fill="#C5C2A6"/>
<path d="M1083.02 732.588H1070.15V914.226H1083.02V732.588Z" fill="#DBDAD4"/>
<path d="M1082.89 732.588H1075.85V914.226H1082.89V732.588Z" fill="#C5C2A6"/>
<path d="M1030.22 938.339H841.492V968.412H1030.22V938.339Z" fill="#DBDAD4"/>
<path d="M1029.5 958.864V962.504L1022.86 969.147H1019.22L1029.5 958.864Z" fill="#333239"/>
<path d="M1029.5 950.519V954.159L1014.51 969.147H1010.87L1029.5 950.519Z" fill="#333239"/>
<path d="M1029.5 942.174V945.814L1006.17 969.147H1002.53L1029.5 942.174Z" fill="#333239"/>
<path d="M994.181 969.147L1025.72 937.604H1029.36L997.823 969.147H994.181Z" fill="#333239"/>
<path d="M985.836 969.147L1017.38 937.604H1021.02L989.478 969.147H985.836Z" fill="#333239"/>
<path d="M981.867 964.769L1009.03 937.604H1012.67L981.867 968.412V964.769Z" fill="#333239"/>
<path d="M981.867 956.427L1000.69 937.604H1004.33L981.867 960.067V956.427Z" fill="#333239"/>
<path d="M981.867 948.08L992.345 937.604H995.985L981.867 951.722V948.08Z" fill="#333239"/>
<path d="M981.867 939.737L983.998 937.604H987.64L981.867 943.377V939.737Z" fill="#928094"/>
<path d="M981.867 964.548L986.463 969.147H982.824L981.867 968.188V964.548Z" fill="#928094"/>
<path d="M981.867 956.203L994.811 969.147H991.169L981.867 959.845V956.203Z" fill="#333239"/>
<path d="M981.867 947.858L1003.16 969.147H999.514L981.867 951.5V947.858Z" fill="#333239"/>
<path d="M981.867 939.513L1011.5 969.147H1007.86L981.867 943.155V939.513Z" fill="#333239"/>
<path d="M1016.2 969.147L984.665 937.604H988.302L1019.85 969.147H1016.2Z" fill="#333239"/>
<path d="M1024.55 969.147L993.01 937.604H996.647L1028.19 969.147H1024.55Z" fill="#333239"/>
<path d="M1029.5 965.75L1001.35 937.604H1004.99L1029.5 962.11V965.75Z" fill="#333239"/>
<path d="M1029.5 957.407L1009.7 937.604H1013.34L1029.5 953.768V957.407Z" fill="#333239"/>
<path d="M1029.5 949.062L1018.04 937.604H1021.68L1029.5 945.42V949.062Z" fill="#333239"/>
<path d="M844.116 958.864V962.504L850.756 969.147H854.396L844.116 958.864Z" fill="#333239"/>
<path d="M844.116 950.519V954.159L859.104 969.147H862.746L844.116 950.519Z" fill="#333239"/>
<path d="M844.116 942.174V945.814L867.446 969.147H871.086L844.116 942.174Z" fill="#333239"/>
<path d="M879.431 969.147L847.893 937.604H844.25L875.792 969.147H879.431Z" fill="#333239"/>
<path d="M887.781 969.147L856.237 937.604H852.595L884.139 969.147H887.781Z" fill="#333239"/>
<path d="M891.751 964.769L864.582 937.604H860.943L891.751 968.412V964.769Z" fill="#333239"/>
<path d="M891.751 956.427L872.927 937.604H869.288L891.751 960.067V956.427Z" fill="#333239"/>
<path d="M891.75 948.08L881.272 937.604H877.632L891.75 951.722V948.08Z" fill="#333239"/>
<path d="M891.751 939.737L889.617 937.604H885.977L891.751 943.377V939.737Z" fill="#928094"/>
<path d="M891.751 964.548L887.149 969.147H890.791L891.751 968.188V964.548Z" fill="#928094"/>
<path d="M891.751 956.203L878.804 969.147H882.446L891.751 959.845V956.203Z" fill="#333239"/>
<path d="M891.75 947.858L870.459 969.147H874.101L891.75 951.5V947.858Z" fill="#333239"/>
<path d="M891.75 939.513L862.116 969.147H865.758L891.75 943.155V939.513Z" fill="#333239"/>
<path d="M857.414 969.147L888.952 937.604H885.313L853.771 969.147H857.414Z" fill="#333239"/>
<path d="M849.064 969.147L880.607 937.604H876.965L845.424 969.147H849.064Z" fill="#333239"/>
<path d="M844.116 965.75L872.262 937.604H868.62L844.116 962.11V965.75Z" fill="#333239"/>
<path d="M844.116 957.407L863.917 937.604H860.275L844.116 953.768V957.407Z" fill="#333239"/>
<path d="M844.116 949.062L855.572 937.604H851.93L844.116 945.42V949.062Z" fill="#333239"/>
<path d="M988.149 941.144H885.32V969.467H988.149V941.144Z" fill="#333239"/>
<path d="M1072.23 918.229H801.238V941.144H1072.23V918.229Z" fill="#DBDAD4"/>
<path d="M891.427 918.229H801.238V925.953H891.427V918.229Z" fill="#DCD6AC"/>
<path d="M1072.38 918.229H982.187V925.953H1072.38V918.229Z" fill="#DCD6AC"/>
<path d="M1082.88 914.226H790.595V921.835H1082.88V914.226Z" fill="#B2553D"/>
<path d="M846.296 941.144H801.238V969.467H846.296V941.144Z" fill="#333239"/>
<path d="M1072.38 941.144H1027.32V969.467H1072.38V941.144Z" fill="#333239"/>
<path d="M980.844 925.486H892.625V971.398H980.844V925.486Z" fill="#B2553D"/>
<path d="M980.735 939.814H892.736V941.165H980.735V939.814Z" fill="#C55D43"/>
<path d="M980.735 954.633H892.736V955.984H980.735V954.633Z" fill="#C55D43"/>
<path d="M895.932 898.663H889.495V971.401H895.932V898.663Z" fill="#DBDAD4"/>
<path d="M895.932 841.373H886.923V905.098H895.932V841.373Z" fill="#DBDAD4"/>
<path d="M895.933 897.375H886.923V905.098H895.933V897.375Z" fill="#DCD6AC"/>
<path d="M984.12 898.663H977.682V971.401H984.12V898.663Z" fill="#DBDAD4"/>
<path d="M986.697 841.372H977.682V905.098H986.697V841.372Z" fill="#DBDAD4"/>
<path d="M986.697 897.375H977.682V905.098H986.697V897.375Z" fill="#DCD6AC"/>
<path d="M792.893 700.359V731.403L936.733 600.691L1080.58 731.403V700.359L936.74 569.732L792.893 700.359Z" fill="#C9795C"/>
<path d="M1080.58 702.271H798.751V704.845H1080.58V702.271Z" fill="#C9795C"/>
<path d="M895.697 603.143L892.859 605.719H980.617L977.782 603.143H895.697Z" fill="#C9795C"/>
<path d="M911.288 588.981L908.455 591.556H965.024L962.19 588.981H911.288Z" fill="#C9795C"/>
<path d="M926.884 574.819L924.051 577.395H949.432L946.594 574.819H926.884Z" fill="#C9795C"/>
<path d="M880.101 617.305L877.267 619.879H996.209L993.375 617.305H880.101Z" fill="#C9795C"/>
<path d="M833.319 659.789L830.481 662.363H1042.99L1040.16 659.789H833.319Z" fill="#C9795C"/>
<path d="M817.723 673.947L814.89 676.524H1058.58L1055.75 673.947H817.723Z" fill="#C9795C"/>
<path d="M802.127 688.11L799.294 690.684H1074.18L1071.34 688.11H802.127Z" fill="#C9795C"/>
<path d="M848.913 645.626L846.077 648.2H1027.4L1024.56 645.626H848.913Z" fill="#C9795C"/>
<path d="M864.505 631.466L861.671 634.04H1011.8L1008.97 631.466H864.505Z" fill="#C9795C"/>
<path d="M967.126 627.343H915.048V705.231H967.126V627.343Z" fill="#C9795C"/>
<path d="M962.775 623.479H910.696V701.368H962.775V623.479Z" fill="#DBDAD4"/>
<path d="M958.421 634.424H915.048V698.15H958.421V634.424Z" fill="#C5C2A6"/>
<path d="M954.562 638.286H918.912V694.286H954.562V638.286Z" fill="#333239"/>
<path d="M954.797 663.584H918.671V668.987H954.797V663.584Z" fill="#DBDAD4"/>
<path d="M955.151 650.935H918.461V653.637H955.151V650.935Z" fill="#DBDAD4"/>
<path d="M955.151 678.936H918.461V681.638H955.151V678.936Z" fill="#DBDAD4"/>
<path d="M938.159 638.286H935.458V694.286H938.159V638.286Z" fill="#DBDAD4"/>
<path d="M1082.73 709.338H789.079V735.163H1082.73V709.338Z" fill="#DBDAD4"/>
<path d="M1082.73 729.039H789.079V731.066H1082.73V729.039Z" fill="#C5C2A6"/>
<path d="M789.079 734.868V709.338H817.174L789.079 734.868ZM1082.73 733.36V709.338H1056.3L1082.73 733.36Z" fill="#C5C2A6"/>
<path d="M1116.85 715.104L936.736 551.435H936.733L756.626 715.104L772.21 732.251L936.733 582.747L1101.26 732.251L1116.85 715.104Z" fill="#3F5968"/>
<path opacity="0.6" d="M936.733 561.911L761.836 720.842L772.21 732.252L936.733 582.747L1101.26 732.252L1111.63 720.842L936.733 561.911Z" fill="#5E7689"/>
<path d="M1106.92 726.028L1101.26 732.251L936.736 582.745L772.212 732.251L766.555 726.028L936.736 571.38L1106.92 726.028Z" fill="#DBDAD4"/>
<path d="M1106.92 726.028L1101.26 732.251L936.736 582.745L772.212 732.251L766.555 726.028L936.736 571.38L1106.92 726.028Z" fill="#DBDAD4"/>
<path d="M769.115 728.847L772.21 732.251L936.733 582.747L1101.26 732.251L1104.35 728.847L936.733 576.53L769.115 728.847Z" fill="#C5C2A6"/>
<path d="M1103.25 730.068L936.733 578.758L770.225 730.068L768.863 728.569L936.733 576.021L937.417 576.639L1104.61 728.569L1103.25 730.068Z" fill="#C5C2A6"/>
<mask id="mask4_2275_33495" style="mask-type:luminance" maskUnits="userSpaceOnUse" x="-20" y="782" width="1003" height="366">
<path d="M982.499 782.531H-20V1147.67H982.499V782.531Z" fill="white"/>
</mask>
<g mask="url(#mask4_2275_33495)">
<path fill-rule="evenodd" clip-rule="evenodd" d="M-81.5785 800.708H371.939C466.195 800.708 468.889 800.708 522.75 800.708C576.61 800.708 646.628 855.295 688.369 890.233C730.11 925.166 998.064 1182.83 998.064 1182.83L781.279 1305.11L261.529 1283.28L-81.5785 1134.79V800.708Z" fill="#5A8B93"/>
<path d="M523.882 866.264C546.485 866.264 564.81 863.67 564.81 860.472C564.81 857.273 546.485 854.68 523.882 854.68C501.278 854.68 482.953 857.273 482.953 860.472C482.953 863.67 501.278 866.264 523.882 866.264Z" fill="#3F5968"/>
<path fill-rule="evenodd" clip-rule="evenodd" d="M542.189 984.705C552.243 975.384 658.285 972.058 658.285 972.058L824.975 1198.1C824.975 1198.1 438.992 1245.75 438.992 1230.21C438.992 1214.67 438.992 1159.77 438.992 1159.77L542.189 984.705Z" fill="#3F5968"/>
<path fill-rule="evenodd" clip-rule="evenodd" d="M69.2604 800.708C66.705 800.782 64.0884 800.822 61.3751 800.822H16.7861C16.7861 800.822 398.111 926.397 422.721 941.578C447.332 956.759 444.067 981.136 435.354 987.843C426.637 994.554 347.15 1046.63 347.15 1046.63L405.513 1102.97L489.575 1154.74C489.575 1154.74 579.736 1088.84 635.051 1046.63C690.368 1004.42 660.746 951.816 610.226 934.871C559.699 917.915 69.2627 800.716 69.2627 800.716L69.2604 800.708Z" fill="#C5C2A6"/>
<path d="M351.447 899.846C379.978 899.846 403.106 894.611 403.106 888.154C403.106 881.696 379.978 876.461 351.447 876.461C322.917 876.461 299.789 881.696 299.789 888.154C299.789 894.611 322.917 899.846 351.447 899.846Z" fill="#ACA991"/>
</g>
<mask id="mask5_2275_33495" style="mask-type:luminance" maskUnits="userSpaceOnUse" x="-20" y="782" width="1003" height="366">
<path d="M982.499 782.531H-20V1147.67H982.499V782.531Z" fill="white"/>
</mask>
<g mask="url(#mask5_2275_33495)">
<path fill-rule="evenodd" clip-rule="evenodd" d="M-161.824 941.547H147.625C211.585 941.547 391.343 1021.24 513.873 1163.17C566.257 1223.85 626.996 1293.69 679.386 1353.79H-161.824V941.547Z" fill="#578087"/>
<path fill-rule="evenodd" clip-rule="evenodd" d="M147.625 941.547H14.304C-25.3841 955.444 -69.511 971.969 -84.6734 981.615C-114.468 1000.58 -120.274 1030.37 -113.709 1041.75C-109.008 1049.9 -34.4033 1242.34 9.6553 1353.79H450.562C450.562 1353.79 116.796 1062.33 94.326 1043.91C71.8559 1025.5 70.3425 1008.7 81.9547 997.876C93.2628 987.324 148.582 943.935 151.503 941.649C150.174 941.59 148.865 941.547 147.625 941.547Z" fill="url(#paint0_linear_2275_33495)"/>
</g>
<path fill-rule="evenodd" clip-rule="evenodd" d="M-7.87113 747.558V720.272C-7.87113 716.771 -10.7353 713.909 -14.2336 713.909C-16.7866 713.909 -18.9883 715.441 -19.9973 717.624V845.498H-5.04233C-0.532751 845.498 3.15883 841.809 3.15883 837.299V776.548C3.15648 758.258 -7.46803 757.739 -7.87113 747.558Z" fill="#4E715D"/>
<path fill-rule="evenodd" clip-rule="evenodd" d="M27.7951 759.288C27.7951 770.434 27.7951 765.948 27.7951 770.29C27.7951 774.634 30.9798 777.527 32.7902 779.408C34.6007 781.291 35.6874 783.969 35.6874 792.364C35.6874 800.758 35.4517 829.716 35.4517 836.809C35.4517 855.934 -0.990341 855.934 -0.990341 836.809C-0.990341 829.716 -1.22607 800.761 -1.22607 792.364C-1.22607 783.967 -0.139343 781.291 1.66873 779.408C3.47681 777.527 6.66392 774.632 6.66392 770.29C6.66392 765.948 6.66392 770.434 6.66392 759.288C6.66392 744.621 27.7951 744.621 27.7951 759.288Z" fill="#65947A"/>
<path fill-rule="evenodd" clip-rule="evenodd" d="M17.9933 760.174C17.9933 759.797 17.6868 759.491 17.3073 759.491C16.9301 759.491 16.6213 759.797 16.6213 760.174V775.811L13.4035 773.953C13.2079 773.84 12.958 773.906 12.8448 774.104C12.734 774.3 12.8 774.549 12.9957 774.663L16.6213 776.756V799.12L7.08587 793.613C6.89021 793.502 6.64034 793.568 6.52718 793.766C6.41403 793.96 6.48239 794.212 6.68041 794.325L16.6213 800.065V821.51L7.08587 816.005C6.89021 815.892 6.64034 815.961 6.52718 816.154C6.41403 816.35 6.48239 816.599 6.68041 816.713L16.6213 822.453V847.106C16.6213 847.483 16.9277 847.792 17.3073 847.792C17.6844 847.792 17.9933 847.485 17.9933 847.106V828.16L26.1591 823.448C26.3547 823.334 26.4207 823.082 26.3076 822.889C26.1944 822.693 25.9445 822.625 25.7489 822.738L17.9933 827.219V809.292L26.1591 804.577C26.3547 804.464 26.4207 804.214 26.3076 804.018C26.1944 803.823 25.9445 803.757 25.7489 803.87L17.9933 808.346V790.421L26.1591 785.709C26.3547 785.596 26.4207 785.344 26.3076 785.15C26.1944 784.955 25.9445 784.889 25.7489 784.999L17.9933 789.481V771.556L23.3114 768.484C23.5071 768.371 23.5754 768.121 23.4646 767.925C23.3515 767.73 23.1016 767.661 22.9059 767.772L17.9956 770.608L17.9933 760.174Z" fill="#333239"/>
<mask id="mask6_2275_33495" style="mask-type:luminance" maskUnits="userSpaceOnUse" x="1056" y="588" width="692" height="560">
<path d="M1748 588.982H1056.09V1147.67H1748V588.982Z" fill="white"/>
</mask>
<g mask="url(#mask6_2275_33495)">
<path d="M1101.1 1091.92C1043.75 1109.13 1044.12 1149.12 1170.12 1149.12C1296.12 1149.12 1400.91 1139.8 1489.15 1155.73C1630.85 1181.31 1863.95 1152.72 1835.28 1117.73C1806.6 1082.75 1660.34 1110.85 1660.34 1110.85L1101.1 1091.92Z" fill="#4E715D"/>
<path d="M1737.3 864.702H1176.34V1125.1H1737.3V864.702Z" fill="#686C90"/>
<path d="M1464.57 940.109H1403.73V1000.94H1464.57V940.109Z" fill="#FAEFE1"/>
<path d="M1467.86 935.996H1400.43V943.721H1467.86V935.996Z" fill="#FAEFE1"/>
<path d="M1459.45 995.824H1408.85V945.229H1459.45V995.824ZM1410.66 994.019H1457.64V947.035H1410.66V994.019Z" fill="#D2C6B6"/>
<path d="M1450.1 954.553H1418.2V986.445H1450.1V954.553Z" fill="#333239"/>
<path d="M1435.5 953.704H1432.8V986.961H1435.5V953.704Z" fill="#FAEFE1"/>
<path d="M1450.78 968.977H1417.52V971.686H1450.78V968.977Z" fill="#FAEFE1"/>
<path d="M1698.43 752.656L1666.33 710.066V653.181H1698.43V752.656Z" fill="#686C90"/>
<path d="M1704.9 642.387H1659.87V653.86H1704.9V642.387Z" fill="#ACA991"/>
<path d="M1332.93 680.581H1666.75L1792.36 899.973H1109.24L1332.93 680.581Z" fill="#C55D43"/>
<path d="M1692.77 726.014L1603.66 684.706L1691.96 899.973H1792.36L1692.77 726.014Z" fill="#B2553D"/>
<path d="M1404.62 827.996L1489.92 704.566L1470.71 680.581H1373.54L1404.62 827.996Z" fill="#B2553D"/>
<path d="M1792.36 894.81H1109.24V917.181H1792.36V894.81Z" fill="#ACA991"/>
<path d="M1792.36 908.575H1109.24V910.38H1792.36V908.575Z" fill="#C5C2A6"/>
<path d="M1719.51 1134.19H1487.8V863.269L1603.65 719.01L1719.51 863.269V1134.19Z" fill="#898EC3"/>
<path d="M1359.85 938.215H1269.67V1066.31H1359.85V938.215Z" fill="#FAEFE1"/>
<path d="M1315.66 938.215H1313.86V1064.87H1315.66V938.215Z" fill="#D2C6B6"/>
<path d="M1359.85 938.215H1269.67V943.067H1359.85V938.215Z" fill="#D2C6B6"/>
<path d="M1365.24 932.091H1264.29V939.993H1365.24V932.091Z" fill="#FAEFE1"/>
<path d="M1308.45 952.456H1276.25V1047.67H1308.45V952.456Z" fill="#333239"/>
<path d="M1287.54 952.042H1284.83V1047.5H1287.54V952.042Z" fill="#FAEFE1"/>
<path d="M1299.87 952.042H1297.16V1047.5H1299.87V952.042Z" fill="#FAEFE1"/>
<path d="M1310.75 967.117H1274.65V969.825H1310.75V967.117Z" fill="#FAEFE1"/>
<path d="M1310.75 988.177H1274.65V990.888H1310.75V988.177Z" fill="#FAEFE1"/>
<path d="M1310.75 1009.24H1274.65V1011.95H1310.75V1009.24Z" fill="#FAEFE1"/>
<path d="M1310.75 1030.3H1274.65V1033.01H1310.75V1030.3Z" fill="#FAEFE1"/>
<path d="M1353.27 952.456H1321.07V1047.67H1353.27V952.456Z" fill="#333239"/>
<path d="M1344.69 952.042H1341.98V1047.5H1344.69V952.042Z" fill="#FAEFE1"/>
<path d="M1332.36 952.042H1329.65V1047.5H1332.36V952.042Z" fill="#FAEFE1"/>
<path d="M1354.87 967.117H1318.77V969.825H1354.87V967.117Z" fill="#FAEFE1"/>
<path d="M1354.87 988.177H1318.77V990.888H1354.87V988.177Z" fill="#FAEFE1"/>
<path d="M1354.87 1009.24H1318.77V1011.95H1354.87V1009.24Z" fill="#FAEFE1"/>
<path d="M1354.87 1030.3H1318.77V1033.01H1354.87V1030.3Z" fill="#FAEFE1"/>
<path d="M1234.36 939.814H1182.99V944.418H1234.36V939.814Z" fill="#FAEFE1"/>
<path d="M1231.41 943.367H1185.94V1016.29H1231.41V943.367Z" fill="#FAEFE1"/>
<path d="M1222.8 950.719H1194.54V1008.94H1222.8V950.719Z" fill="#333239"/>
<path d="M1210.03 947.624H1207.32V1011.83H1210.03V947.624Z" fill="#FAEFE1"/>
<path d="M1224.79 971.721H1192.57V974.427H1224.79V971.721Z" fill="#FAEFE1"/>
<path d="M1224.79 958.218H1192.57V960.924H1224.79V958.218Z" fill="#FAEFE1"/>
<path d="M1224.79 998.731H1192.57V1001.44H1224.79V998.731Z" fill="#FAEFE1"/>
<path d="M1224.79 985.224H1192.57V987.932H1224.79V985.224Z" fill="#FAEFE1"/>
<path d="M1404.62 827.996H1221.08V695.502L1312.85 624.952L1404.62 695.502V827.996Z" fill="#898EC3"/>
<path d="M1221.08 730.886L1312.85 640.084L1404.62 730.886V699.42L1386.87 681.851L1312.85 624.952L1238.83 681.853L1221.08 699.418V730.886Z" fill="#686C90"/>
<path d="M1404.62 759.631H1221.08V763.073H1404.62V759.631Z" fill="#686C90"/>
<path d="M1404.62 797.488H1221.08V800.93H1404.62V797.488Z" fill="#686C90"/>
<path d="M1404.62 816.415H1221.08V819.854H1404.62V816.415Z" fill="#686C90"/>
<path d="M1404.62 740.702H1221.08V744.144H1404.62V740.702Z" fill="#686C90"/>
<path d="M1404.62 778.561H1221.08V782H1404.62V778.561Z" fill="#686C90"/>
<path d="M1260.77 664.992L1256.29 668.433H1369.41L1364.94 664.992H1260.77Z" fill="#686C90"/>
<path d="M1285.39 646.062L1280.91 649.506H1344.79L1340.32 646.062H1285.39Z" fill="#686C90"/>
<path d="M1404.62 702.846H1221.08V706.287H1404.62V702.846Z" fill="#686C90"/>
<path d="M1404.62 721.775H1221.08V725.214H1404.62V721.775Z" fill="#686C90"/>
<path d="M1236.15 683.918L1231.67 687.36H1394.03L1389.56 683.918H1236.15Z" fill="#686C90"/>
<path d="M1414.54 726.386L1312.85 625.765L1211.16 726.386L1195.43 710.486L1312.85 594.297L1430.28 710.486L1414.54 726.386Z" fill="#ACA991"/>
<path d="M1420.76 720.104L1312.85 613.324L1204.94 720.104L1203.67 718.819L1312.85 610.785L1422.03 718.819L1420.76 720.104Z" fill="#C5C2A6"/>
<path d="M1375.53 737.151C1370.5 719.129 1344.04 705.384 1312.14 705.384C1280.24 705.384 1253.79 719.132 1248.75 737.151H1375.53Z" fill="#FAEFE1"/>
<path d="M1375.95 736.289H1248.33V818.814H1375.95V736.289Z" fill="#FAEFE1"/>
<path d="M1367.34 750.916H1258.36V814.797H1367.34V750.916Z" fill="#333239"/>
<path d="M1377.76 816.372H1247.95V830.426H1377.76V816.372Z" fill="#FAEFE1"/>
<path d="M1296.1 750.916H1288.88V813.364H1296.1V750.916Z" fill="#FAEFE1"/>
<path d="M1336.83 750.916H1329.6V813.364H1336.83V750.916Z" fill="#FAEFE1"/>
<path d="M1367.57 764.652H1258.36V767.363H1367.57V764.652Z" fill="#FAEFE1"/>
<path d="M1367.57 782.469H1258.36V785.177H1367.57V782.469Z" fill="#FAEFE1"/>
<path d="M1367.57 800.286H1258.36V802.994H1367.57V800.286Z" fill="#FAEFE1"/>
<path d="M1274.81 750.916H1272.1V812.216H1274.81V750.916Z" fill="#FAEFE1"/>
<path d="M1314.21 750.916H1311.5V812.216H1314.21V750.916Z" fill="#FAEFE1"/>
<path d="M1353.6 750.916H1350.89V812.216H1353.6V750.916Z" fill="#FAEFE1"/>
<path d="M1383.72 812.214H1241.98V820.531H1383.72V812.214Z" fill="#D2C6B6"/>
<path d="M1372.05 738.12C1367.41 721.515 1341.66 708.993 1312.14 708.993C1282.62 708.993 1256.87 721.515 1252.23 738.12L1245.27 736.178C1250.84 716.239 1278.96 701.772 1312.14 701.772C1345.32 701.772 1373.44 716.239 1379.01 736.178L1372.05 738.12Z" fill="#D2C6B6"/>
<path d="M1261.15 737.481L1259.47 736.817C1263.71 726.095 1285.05 714.521 1312.14 714.521C1337.92 714.521 1363.05 725.24 1364.86 737.01L1363.08 737.286C1361.59 727.592 1339.01 716.327 1312.14 716.327C1286.64 716.329 1265.19 727.265 1261.15 737.481Z" fill="#D2C6B6"/>
<path d="M1364.77 736.246H1259.59V738.052H1364.77V736.246Z" fill="#D2C6B6"/>
<path d="M1317.58 646.967H1308.12V673.711H1317.58V646.967Z" fill="#ACA991"/>
<path d="M1487.8 1064.88H1135.41V1126.75H1487.8V1064.88Z" fill="#ACA991"/>
<path d="M1153.41 912.304H1139.6V1071.47H1153.41V912.304Z" fill="#ACA991"/>
<path d="M1148.9 937.942C1147.91 937.942 1147.1 937.134 1147.1 936.136C1147.1 935.137 1147.91 934.331 1148.9 934.331C1152.69 934.331 1156.86 932.204 1160.07 928.64C1163.72 924.595 1165.73 919.199 1165.73 913.452C1165.73 912.457 1166.54 911.648 1167.53 911.648C1168.53 911.648 1169.34 912.455 1169.34 913.452C1169.34 920.095 1167 926.346 1162.75 931.059C1158.87 935.368 1153.69 937.942 1148.9 937.942Z" fill="#ACA991"/>
<path d="M1244.68 937.942C1239.89 937.942 1234.71 935.368 1230.83 931.059C1226.58 926.346 1224.24 920.095 1224.25 913.452C1224.25 912.455 1225.05 911.648 1226.05 911.648C1227.05 911.648 1227.86 912.457 1227.86 913.452C1227.85 919.201 1229.86 924.595 1233.51 928.64C1236.73 932.204 1240.9 934.331 1244.68 934.331C1245.68 934.331 1246.48 935.137 1246.48 936.136C1246.48 937.134 1245.68 937.942 1244.68 937.942Z" fill="#ACA991"/>
<path d="M1253.98 912.304H1240.18V1071.47H1253.98V912.304Z" fill="#ACA991"/>
<path d="M1389.34 912.304H1375.54V1071.47H1389.34V912.304Z" fill="#ACA991"/>
<path d="M1384.84 937.942C1383.84 937.942 1383.04 937.134 1383.04 936.136C1383.04 935.137 1383.84 934.331 1384.84 934.331C1388.62 934.331 1392.8 932.204 1396.01 928.64C1399.66 924.595 1401.67 919.199 1401.67 913.452C1401.67 912.457 1402.47 911.648 1403.47 911.648C1404.47 911.648 1405.28 912.455 1405.28 913.452C1405.28 920.095 1402.94 926.346 1398.69 931.059C1394.81 935.368 1389.63 937.942 1384.84 937.942Z" fill="#ACA991"/>
<path d="M1489.92 912.304H1476.11V1071.47H1489.92V912.304Z" fill="#ACA991"/>
<path d="M1480.62 937.942C1475.83 937.942 1470.65 935.368 1466.77 931.059C1462.52 926.346 1460.18 920.095 1460.18 913.452C1460.18 912.455 1460.99 911.648 1461.99 911.648C1462.99 911.648 1463.8 912.457 1463.8 913.452C1463.8 919.201 1465.8 924.595 1469.45 928.64C1472.66 932.204 1476.84 934.331 1480.62 934.331C1481.62 934.331 1482.43 935.137 1482.43 936.136C1482.42 937.134 1481.61 937.942 1480.62 937.942Z" fill="#ACA991"/>
<path d="M1362.9 1064.88H1266.62V1149.03H1362.9V1064.88Z" fill="#C5C2A6"/>
<path d="M1362.93 1078.82H1266.59V1080.62H1362.93V1078.82Z" fill="#FAEFE1"/>
<path d="M1362.93 1096.98H1266.59V1098.78H1362.93V1096.98Z" fill="#FAEFE1"/>
<path d="M1362.93 1115.13H1266.59V1116.93H1362.93V1115.13Z" fill="#FAEFE1"/>
<path d="M1261.18 1093.76H1255.44V1149.03H1261.18V1093.76Z" fill="#FAEFE1"/>
<path d="M1263.65 1013.26H1252.97V1097.88H1263.65V1013.26Z" fill="#FAEFE1"/>
<path d="M1373.72 1093.76H1367.98V1149.03H1373.72V1093.76Z" fill="#FAEFE1"/>
<path d="M1376.19 1013.26H1365.51V1097.88H1376.19V1013.26Z" fill="#FAEFE1"/>
<path d="M1245.18 1078.92H1135.41V1080.72H1245.18V1078.92Z" fill="#C5C2A6"/>
<path d="M1244.68 1019.35H1148.91C1146.91 1019.35 1145.29 1017.73 1145.29 1015.74C1145.29 1013.74 1146.91 1012.13 1148.91 1012.13H1244.68C1246.67 1012.13 1248.29 1013.74 1248.29 1015.74C1248.29 1017.73 1246.67 1019.35 1244.68 1019.35Z" fill="#ACA991"/>
<path d="M1163.24 1068.11C1162.25 1068.11 1161.44 1067.31 1161.44 1066.31V1016.29C1161.44 1015.29 1162.25 1014.49 1163.24 1014.49C1164.24 1014.49 1165.05 1015.29 1165.05 1016.29V1066.31C1165.05 1067.31 1164.24 1068.11 1163.24 1068.11Z" fill="#ACA991"/>
<path d="M1174.43 1068.11C1173.43 1068.11 1172.62 1067.31 1172.62 1066.31V1016.29C1172.62 1015.29 1173.43 1014.49 1174.43 1014.49C1175.42 1014.49 1176.23 1015.29 1176.23 1016.29V1066.31C1176.23 1067.31 1175.42 1068.11 1174.43 1068.11Z" fill="#ACA991"/>
<path d="M1185.61 1068.11C1184.61 1068.11 1183.8 1067.31 1183.8 1066.31V1016.29C1183.8 1015.29 1184.61 1014.49 1185.61 1014.49C1186.61 1014.49 1187.41 1015.29 1187.41 1016.29V1066.31C1187.41 1067.31 1186.61 1068.11 1185.61 1068.11Z" fill="#ACA991"/>
<path d="M1196.79 1068.11C1195.79 1068.11 1194.99 1067.31 1194.99 1066.31V1016.29C1194.99 1015.29 1195.79 1014.49 1196.79 1014.49C1197.79 1014.49 1198.6 1015.29 1198.6 1016.29V1066.31C1198.6 1067.31 1197.79 1068.11 1196.79 1068.11Z" fill="#ACA991"/>
<path d="M1207.97 1068.11C1206.98 1068.11 1206.17 1067.31 1206.17 1066.31V1016.29C1206.17 1015.29 1206.98 1014.49 1207.97 1014.49C1208.97 1014.49 1209.78 1015.29 1209.78 1016.29V1066.31C1209.78 1067.31 1208.97 1068.11 1207.97 1068.11Z" fill="#ACA991"/>
<path d="M1219.16 1068.11C1218.16 1068.11 1217.35 1067.31 1217.35 1066.31V1016.29C1217.35 1015.29 1218.16 1014.49 1219.16 1014.49C1220.15 1014.49 1220.96 1015.29 1220.96 1016.29V1066.31C1220.96 1067.31 1220.15 1068.11 1219.16 1068.11Z" fill="#ACA991"/>
<path d="M1230.34 1068.11C1229.34 1068.11 1228.53 1067.31 1228.53 1066.31V1016.29C1228.53 1015.29 1229.34 1014.49 1230.34 1014.49C1231.33 1014.49 1232.14 1015.29 1232.14 1016.29V1066.31C1232.14 1067.31 1231.33 1068.11 1230.34 1068.11Z" fill="#ACA991"/>
<path d="M1487.8 1078.92H1382.4V1080.72H1487.8V1078.92Z" fill="#C5C2A6"/>
<path d="M1479.5 1019.35H1383.72C1381.73 1019.35 1380.11 1017.73 1380.11 1015.74C1380.11 1013.74 1381.73 1012.13 1383.72 1012.13H1479.5C1481.49 1012.13 1483.11 1013.74 1483.11 1015.74C1483.11 1017.73 1481.49 1019.35 1479.5 1019.35Z" fill="#ACA991"/>
<path d="M1398.07 1068.11C1397.07 1068.11 1396.26 1067.31 1396.26 1066.31V1016.29C1396.26 1015.29 1397.07 1014.49 1398.07 1014.49C1399.06 1014.49 1399.87 1015.29 1399.87 1016.29V1066.31C1399.87 1067.31 1399.06 1068.11 1398.07 1068.11Z" fill="#ACA991"/>
<path d="M1409.25 1068.11C1408.25 1068.11 1407.44 1067.31 1407.44 1066.31V1016.29C1407.44 1015.29 1408.25 1014.49 1409.25 1014.49C1410.24 1014.49 1411.05 1015.29 1411.05 1016.29V1066.31C1411.05 1067.31 1410.24 1068.11 1409.25 1068.11Z" fill="#ACA991"/>
<path d="M1420.43 1068.11C1419.43 1068.11 1418.62 1067.31 1418.62 1066.31V1016.29C1418.62 1015.29 1419.43 1014.49 1420.43 1014.49C1421.43 1014.49 1422.24 1015.29 1422.24 1016.29V1066.31C1422.24 1067.31 1421.43 1068.11 1420.43 1068.11Z" fill="#ACA991"/>
<path d="M1431.61 1068.11C1430.61 1068.11 1429.8 1067.31 1429.8 1066.31V1016.29C1429.8 1015.29 1430.61 1014.49 1431.61 1014.49C1432.61 1014.49 1433.42 1015.29 1433.42 1016.29V1066.31C1433.42 1067.31 1432.61 1068.11 1431.61 1068.11Z" fill="#ACA991"/>
<path d="M1442.79 1068.11C1441.8 1068.11 1440.99 1067.31 1440.99 1066.31V1016.29C1440.99 1015.29 1441.8 1014.49 1442.79 1014.49C1443.79 1014.49 1444.6 1015.29 1444.6 1016.29V1066.31C1444.6 1067.31 1443.79 1068.11 1442.79 1068.11Z" fill="#ACA991"/>
<path d="M1453.97 1068.11C1452.98 1068.11 1452.17 1067.31 1452.17 1066.31V1016.29C1452.17 1015.29 1452.98 1014.49 1453.97 1014.49C1454.97 1014.49 1455.78 1015.29 1455.78 1016.29V1066.31C1455.78 1067.31 1454.97 1068.11 1453.97 1068.11Z" fill="#ACA991"/>
<path d="M1465.16 1068.11C1464.16 1068.11 1463.35 1067.31 1463.35 1066.31V1016.29C1463.35 1015.29 1464.16 1014.49 1465.16 1014.49C1466.15 1014.49 1466.96 1015.29 1466.96 1016.29V1066.31C1466.96 1067.31 1466.15 1068.11 1465.16 1068.11Z" fill="#ACA991"/>
<path d="M1719.51 1134.19H1487.8V863.269L1603.65 719.009L1719.51 863.269V1134.19Z" fill="#898EC3"/>
<path d="M1487.8 863.269V900.144L1603.66 743.188L1719.51 900.142V863.269L1603.65 719.009L1487.8 863.269Z" fill="#686C90"/>
<path d="M1719.51 978.264H1487.8V981.703H1719.51V978.264Z" fill="#686C90"/>
<path d="M1719.51 1016.12H1487.8V1019.56H1719.51V1016.12Z" fill="#686C90"/>
<path d="M1719.51 940.408H1487.8V943.849H1719.51V940.408Z" fill="#686C90"/>
<path d="M1719.51 959.337H1487.8V962.776H1719.51V959.337Z" fill="#686C90"/>
<path d="M1719.51 1110.76H1487.8V1114.2H1719.51V1110.76Z" fill="#686C90"/>
<path d="M1719.51 1091.83H1487.8V1095.27H1719.51V1091.83Z" fill="#686C90"/>
<path d="M1719.51 1072.9H1487.8V1076.35H1719.51V1072.9Z" fill="#686C90"/>
<path d="M1719.51 1035.05H1487.8V1038.49H1719.51V1035.05Z" fill="#686C90"/>
<path d="M1719.51 1053.97H1487.8V1057.42H1719.51V1053.97Z" fill="#686C90"/>
<path d="M1719.51 997.191H1487.8V1000.63H1719.51V997.191Z" fill="#686C90"/>
<path d="M1517.05 826.841L1514.29 830.283H1693.02L1690.26 826.841H1517.05Z" fill="#686C90"/>
<path d="M1547.45 788.984L1544.69 792.426H1662.62L1659.85 788.984H1547.45Z" fill="#686C90"/>
<path d="M1532.25 807.914L1529.49 811.353H1677.82L1675.05 807.914H1532.25Z" fill="#686C90"/>
<path d="M1577.86 751.13L1575.09 754.57H1632.21L1629.45 751.13H1577.86Z" fill="#686C90"/>
<path d="M1562.66 770.058L1559.89 773.502H1647.42L1644.65 770.058H1562.66Z" fill="#686C90"/>
<path d="M1719.51 902.551H1487.8V905.993H1719.51V902.551Z" fill="#686C90"/>
<path d="M1719.51 921.48H1487.8V924.92H1719.51V921.48Z" fill="#686C90"/>
<path d="M1719.51 883.624H1487.8V887.066H1719.51V883.624Z" fill="#686C90"/>
<path d="M1501.85 845.768L1499.09 849.21H1708.22L1705.46 845.768H1501.85Z" fill="#686C90"/>
<path d="M1719.51 864.697H1487.8V868.139H1719.51V864.697Z" fill="#686C90"/>
<path d="M1719.51 1105.89H1487.8V1134.19H1719.51V1105.89Z" fill="#333239"/>
<path d="M1676.59 904.632C1664.39 880.602 1636.34 863.775 1603.66 863.775C1570.97 863.775 1542.92 880.602 1530.72 904.632H1676.59Z" fill="#FAEFE1"/>
<path d="M1674.9 905.489C1662.63 881.293 1634.66 865.664 1603.65 865.664C1572.65 865.664 1544.68 881.293 1532.41 905.489L1525.97 902.219C1539.46 875.628 1569.95 858.441 1603.65 858.441C1637.35 858.441 1667.85 875.626 1681.34 902.219L1674.9 905.489Z" fill="#D2C6B6"/>
<path d="M1676.62 904.272H1530.7V1049.39H1676.62V904.272Z" fill="#FAEFE1"/>
<path d="M1665.78 919.759H1541.52V1036.77H1665.78V919.759Z" fill="#333239"/>
<path d="M1583.91 916.322H1576.68V1038.92H1583.91V916.322Z" fill="#FAEFE1"/>
<path d="M1630.63 916.322H1623.4V1038.92H1630.63V916.322Z" fill="#FAEFE1"/>
<path d="M1561.42 917.468H1558.71V1039.38H1561.42V917.468Z" fill="#FAEFE1"/>
<path d="M1605.01 917.468H1602.3V1039.38H1605.01V917.468Z" fill="#FAEFE1"/>
<path d="M1649.75 917.468H1647.04V1039.38H1649.75V917.468Z" fill="#FAEFE1"/>
<path d="M1667.9 939.441H1540.28V942.149H1667.9V939.441Z" fill="#FAEFE1"/>
<path d="M1667.9 964.42H1540.28V967.131H1667.9V964.42Z" fill="#FAEFE1"/>
<path d="M1667.9 989.4H1540.28V992.109H1667.9V989.4Z" fill="#FAEFE1"/>
<path d="M1667.9 1014.38H1540.28V1017.09H1667.9V1014.38Z" fill="#FAEFE1"/>
<path d="M1664.92 905.175H1543.46L1544.3 903.803C1554.44 887.21 1581.62 873.195 1603.65 873.195C1623.75 873.195 1651.23 882.773 1664.08 903.803L1664.92 905.175ZM1546.72 903.372H1661.66C1648.85 883.893 1622.82 874.999 1603.65 874.999C1582.79 874.999 1557.2 887.856 1546.72 903.372Z" fill="#D2C6B6"/>
<path d="M1635.04 904.383H1574.49L1578.27 902.659C1587 898.683 1596.01 896.493 1603.65 896.493C1612.63 896.493 1622.42 898.683 1631.22 902.657L1635.04 904.383ZM1583.11 902.577H1626.28C1618.89 899.833 1610.86 898.298 1603.65 898.298C1597.45 898.296 1590.28 899.802 1583.11 902.577Z" fill="#D2C6B6"/>
<path d="M1604.56 874.098H1602.75V898.122H1604.56V874.098Z" fill="#D2C6B6"/>
<path d="M1578.41 878.123L1576.81 878.964L1588 900.22L1589.6 899.379L1578.41 878.123Z" fill="#D2C6B6"/>
<path d="M1555.34 891.654L1554.34 893.155L1572.2 905.112L1573.2 903.611L1555.34 891.654Z" fill="#D2C6B6"/>
<path d="M1628.89 878.087L1617.68 899.334L1619.27 900.177L1630.49 878.93L1628.89 878.087Z" fill="#D2C6B6"/>
<path d="M1651.95 891.521L1634.11 903.492L1635.11 904.992L1652.96 893.021L1651.95 891.521Z" fill="#D2C6B6"/>
<path d="M1680.51 1036.77H1525.37V1043.17H1680.51V1036.77Z" fill="#D2C6B6"/>
<path d="M1607.82 760.845H1598.35V803.433H1607.82V760.845Z" fill="#ACA991"/>
<path d="M1733.37 898.094L1603.66 722.371L1473.94 898.094L1455.95 884.81L1603.66 684.706L1751.36 884.81L1733.37 898.094Z" fill="#ACA991"/>
<path d="M1739.63 893.473L1603.66 709.264L1467.68 893.473L1466.23 892.4L1603.66 706.223L1741.08 892.4L1739.63 893.473Z" fill="#C5C2A6"/>
<path d="M1747.8 998.732C1736.35 998.065 1705.06 1130.13 1741.86 1132.7C1745.57 1134.26 1750.03 1133.76 1752.44 1133.3C1752.47 1133.49 1752.51 1133.7 1752.55 1133.89C1755.05 1133.17 1752.71 1134.93 1762.41 1132.13C1798.5 1127.09 1763.86 999.675 1747.8 998.732Z" fill="#3F5968"/>
<path d="M1464.58 1044.09C1456.93 1043.65 1436.01 1131.91 1460.6 1133.62C1463.08 1134.67 1466.07 1134.33 1467.67 1134.02C1467.7 1134.15 1467.72 1134.29 1467.75 1134.42C1469.42 1133.94 1467.86 1135.11 1474.33 1133.24C1498.46 1129.87 1475.31 1044.72 1464.58 1044.09Z" fill="#5A8B93"/>
<path d="M1494.63 1021.68C1483.18 1021.01 1451.89 1153.08 1488.69 1155.64C1492.4 1157.21 1496.86 1156.7 1499.26 1156.24C1499.3 1156.44 1499.34 1156.64 1499.38 1156.83C1501.88 1156.11 1499.54 1157.88 1509.23 1155.07C1545.32 1150.03 1510.69 1022.62 1494.63 1021.68Z" fill="#3F5968"/>
<path d="M1110.95 1037.69C1103.3 1037.24 1082.39 1125.5 1106.98 1127.22C1109.46 1128.26 1112.44 1127.93 1114.05 1127.62C1114.07 1127.75 1114.1 1127.89 1114.12 1128.01C1115.79 1127.53 1114.23 1128.71 1120.71 1126.84C1144.83 1123.47 1121.68 1038.32 1110.95 1037.69Z" fill="#5A8B93"/>
<path d="M1170.6 1046.01C1162.16 1045.52 1139.1 1142.86 1166.22 1144.75C1168.95 1145.9 1172.24 1145.53 1174.01 1145.19C1174.04 1145.34 1174.07 1145.48 1174.1 1145.62C1175.94 1145.09 1174.22 1146.39 1181.36 1144.33C1207.96 1140.61 1182.43 1046.7 1170.6 1046.01Z" fill="#5A8B93"/>
<path d="M1130.55 1021.78C1120.2 1021.17 1091.92 1140.53 1125.18 1142.85C1128.53 1144.26 1132.56 1143.8 1134.73 1143.39C1134.77 1143.56 1134.81 1143.75 1134.84 1143.92C1137.1 1143.27 1134.99 1144.86 1143.75 1142.33C1176.36 1137.78 1145.06 1022.63 1130.55 1021.78Z" fill="#3F5968"/>
</g>
<mask id="mask7_2275_33495" style="mask-type:luminance" maskUnits="userSpaceOnUse" x="-20" y="795" width="450" height="353">
<path d="M429.496 795.458H-20V1147.67H429.496V795.458Z" fill="white"/>
</mask>
<g mask="url(#mask7_2275_33495)">
<path d="M65.6562 1063.63H-158.43V1425.31H65.6562V1063.63Z" fill="#ACA991"/>
<path d="M217.862 883.378H-162.838V1071.57H26.8332L217.862 883.378Z" fill="#333239"/>
<path d="M-19.4695 994.925H-18.4252C-18.4252 1001.62 -12.6709 1007.08 -5.59186 1007.08C1.48014 1007.08 7.23675 1001.62 7.23675 994.925H8.28105C8.28105 1002.2 2.05769 1008.12 -5.5895 1008.12C-13.2485 1008.12 -19.4695 1002.2 -19.4695 994.925Z" fill="#6D6A7B"/>
<path d="M131.322 954.24H132.366C132.366 961.519 126.138 967.441 118.491 967.441C110.837 967.441 104.616 961.519 104.616 954.24H105.66C105.66 960.944 111.419 966.394 118.491 966.394C125.563 966.394 131.322 960.944 131.322 954.24Z" fill="#6D6A7B"/>
<path d="M7.34975 1021.68C-0.304509 1021.68 -6.52551 1015.76 -6.52551 1008.48H-5.48121C-5.48121 1015.19 0.273036 1020.64 7.35211 1020.64C14.4241 1020.64 20.1807 1015.19 20.1807 1008.48H21.2297C21.2274 1015.76 14.9993 1021.68 7.34975 1021.68Z" fill="#6D6A7B"/>
<path d="M132.402 954.24H133.446C133.446 957.592 134.886 960.633 137.213 962.835L136.466 963.568C133.953 961.18 132.402 957.879 132.402 954.24Z" fill="#6D6A7B"/>
<path d="M105.545 952.835C112.617 952.835 118.373 947.383 118.373 940.681H119.422C119.422 947.958 113.194 953.879 105.547 953.879C97.8926 953.879 91.6716 947.958 91.6716 940.681H92.7159C92.7136 947.383 98.4725 952.835 105.545 952.835Z" fill="#6D6A7B"/>
<path d="M133.328 952.835C140.4 952.835 146.161 947.383 146.161 940.681H147.206C147.206 947.958 140.982 953.879 133.33 953.879C125.676 953.879 119.455 947.958 119.455 940.681H120.497C120.497 947.383 126.256 952.835 133.328 952.835Z" fill="#6D6A7B"/>
<path d="M21.2582 1008.48H22.3025C22.3025 1015.19 28.0614 1020.64 35.1358 1020.64C42.2125 1020.64 47.9668 1015.19 47.9668 1008.48H49.0111C49.0111 1015.76 42.7877 1021.68 35.1358 1021.68C27.4863 1021.68 21.2582 1015.76 21.2582 1008.48Z" fill="#6D6A7B"/>
<path d="M8.3139 994.925H9.3582C9.3582 1001.62 15.1172 1007.08 22.1915 1007.08C29.2659 1007.08 35.0201 1001.62 35.0201 994.925H36.0691C36.0691 1002.2 29.8411 1008.12 22.1939 1008.12C14.5349 1008.12 8.3139 1002.2 8.3139 994.925Z" fill="#6D6A7B"/>
<path d="M103.534 954.24H104.578C104.578 961.519 98.3547 967.441 90.7075 967.441C83.0533 967.441 76.8323 961.519 76.8323 954.24H77.8766C77.8766 960.944 83.6308 966.394 90.7099 966.394C97.7795 966.394 103.534 960.944 103.534 954.24Z" fill="#6D6A7B"/>
<path d="M63.8857 1022.04H64.93C64.93 1025.32 66.3114 1028.29 68.5485 1030.48L67.8013 1031.22C65.3826 1028.84 63.8857 1025.61 63.8857 1022.04Z" fill="#6D6A7B"/>
<path d="M36.0975 1022.04H37.1465C37.1465 1028.75 42.9007 1034.2 49.9751 1034.2C57.0471 1034.2 62.8084 1028.75 62.8084 1022.04H63.8527C63.8527 1029.32 57.6294 1035.24 49.9774 1035.24C42.3232 1035.24 36.0975 1029.32 36.0975 1022.04Z" fill="#6D6A7B"/>
<path d="M49.9727 925.714C57.0447 925.714 62.806 920.262 62.806 913.562H63.8503C63.8503 920.841 57.627 926.761 49.9751 926.761C42.3255 926.761 36.0998 920.841 36.0998 913.562H37.1488C37.1441 920.262 42.9007 925.714 49.9727 925.714Z" fill="#6D6A7B"/>
<path d="M47.9667 927.124H49.011C49.011 934.401 42.7877 940.322 35.1358 940.322C27.4862 940.322 21.2605 934.401 21.2605 927.124H22.3048C22.3048 933.823 28.0638 939.278 35.1381 939.278C42.2125 939.278 47.9667 933.821 47.9667 927.124Z" fill="#6D6A7B"/>
<path d="M75.7503 927.124H76.7946C76.7946 934.401 70.5712 940.322 62.9193 940.322C55.2698 940.322 49.0488 934.401 49.0488 927.124H50.0931C50.0931 933.823 55.8473 939.278 62.9217 939.278C69.996 939.278 75.7503 933.821 75.7503 927.124Z" fill="#6D6A7B"/>
<path d="M20.1784 927.124H21.2275C21.2275 934.401 14.9994 940.322 7.35219 940.322C-0.30207 940.322 -6.52307 934.401 -6.52307 927.124H-5.47877C-5.47877 933.823 0.275478 939.278 7.35455 939.278C14.4242 939.278 20.1784 933.821 20.1784 927.124Z" fill="#6D6A7B"/>
<path d="M22.1892 925.714C29.2612 925.714 35.0179 920.262 35.0179 913.562H36.0669C36.0669 920.841 29.8388 926.761 22.1916 926.761C14.5373 926.761 8.31635 920.841 8.31635 913.562H9.36064C9.35593 920.262 15.1172 925.714 22.1892 925.714Z" fill="#6D6A7B"/>
<path d="M105.545 925.714C112.617 925.714 118.373 920.262 118.373 913.562H119.422C119.422 920.841 113.194 926.761 105.547 926.761C97.8926 926.761 91.6716 920.841 91.6716 913.562H92.7159C92.7136 920.262 98.4725 925.714 105.545 925.714Z" fill="#6D6A7B"/>
<path d="M131.322 927.124H132.366C132.366 934.401 126.138 940.322 118.491 940.322C110.837 940.322 104.616 934.401 104.616 927.124H105.66C105.66 933.823 111.419 939.278 118.491 939.278C125.563 939.278 131.322 933.821 131.322 927.124Z" fill="#6D6A7B"/>
<path d="M103.534 927.124H104.578C104.578 934.401 98.3547 940.322 90.7075 940.322C83.0533 940.322 76.8323 934.401 76.8323 927.124H77.8766C77.8766 933.823 83.6308 939.278 90.7099 939.278C97.7795 939.278 103.534 933.821 103.534 927.124Z" fill="#6D6A7B"/>
<path d="M77.761 925.714C84.833 925.714 90.5896 920.262 90.5896 913.562H91.6339C91.6339 920.841 85.4105 926.761 77.7633 926.761C70.1091 926.761 63.8881 920.841 63.8881 913.562H64.9324C64.93 920.262 70.6843 925.714 77.761 925.714Z" fill="#6D6A7B"/>
<path d="M-5.59426 925.714C1.47774 925.714 7.23435 920.262 7.23435 913.562H8.27865C8.27865 920.841 2.05529 926.761 -5.5919 926.761C-13.2462 926.761 -19.4672 920.841 -19.4672 913.562H-18.4229C-18.4276 920.262 -12.671 925.714 -5.59426 925.714Z" fill="#6D6A7B"/>
<path d="M133.328 925.714C140.4 925.714 146.161 920.262 146.161 913.562H147.206C147.206 920.841 140.982 926.761 133.33 926.761C125.676 926.761 119.455 920.841 119.455 913.562H120.497C120.497 920.262 126.256 925.714 133.328 925.714Z" fill="#6D6A7B"/>
<path d="M21.2582 981.364H22.3025C22.3025 988.068 28.0614 993.518 35.1358 993.518C42.2125 993.518 47.9668 988.068 47.9668 981.364H49.0111C49.0111 988.643 42.7877 994.565 35.1358 994.565C27.4863 994.562 21.2582 988.643 21.2582 981.364Z" fill="#6D6A7B"/>
<path d="M104.613 981.364H105.658C105.658 984.78 107.159 987.868 109.564 990.077L108.816 990.81C106.228 988.41 104.613 985.062 104.613 981.364Z" fill="#6D6A7B"/>
<path d="M105.545 979.958C112.617 979.958 118.373 974.503 118.373 967.801H119.422C119.422 975.081 113.194 981.002 105.547 981.002C97.8926 981.002 91.6716 975.081 91.6716 967.801H92.7159C92.7136 974.503 98.4725 979.958 105.545 979.958Z" fill="#6D6A7B"/>
<path d="M63.8857 994.925H64.93C64.93 1001.62 70.6843 1007.08 77.7634 1007.08C84.8354 1007.08 90.592 1001.62 90.592 994.925H91.6363C91.6363 1002.2 85.4129 1008.12 77.7657 1008.12C70.1067 1008.12 63.8857 1002.2 63.8857 994.925Z" fill="#6D6A7B"/>
<path d="M77.761 979.958C84.833 979.958 90.5896 974.503 90.5896 967.801H91.6339C91.6339 975.081 85.4105 981.002 77.7633 981.002C70.1091 981.002 63.8881 975.081 63.8881 967.801H64.9324C64.93 974.503 70.6843 979.958 77.761 979.958Z" fill="#6D6A7B"/>
<path d="M36.0975 994.925H37.1465C37.1465 1001.62 42.9007 1007.08 49.9751 1007.08C57.0471 1007.08 62.8084 1001.62 62.8084 994.925H63.8527C63.8527 1002.2 57.6294 1008.12 49.9774 1008.12C42.3232 1008.12 36.0975 1002.2 36.0975 994.925Z" fill="#6D6A7B"/>
<path d="M49.0462 1008.48H50.0905C50.0905 1015.19 55.8447 1020.64 62.9191 1020.64C69.9958 1020.64 75.7524 1015.19 75.7524 1008.48H76.7967C76.7967 1015.76 70.5734 1021.68 62.9215 1021.68C55.2696 1021.68 49.0462 1015.76 49.0462 1008.48Z" fill="#6D6A7B"/>
<path d="M123.866 975.984L123.123 976.712C120.851 974.366 119.453 971.238 119.453 967.801H120.497C120.497 970.953 121.784 973.817 123.866 975.984Z" fill="#6D6A7B"/>
<path d="M76.83 1008.48H77.8743C77.8743 1011.96 79.4349 1015.09 81.9148 1017.31L81.1675 1018.05C78.5037 1015.64 76.83 1012.25 76.83 1008.48Z" fill="#6D6A7B"/>
<path d="M103.534 981.364H104.578C104.578 988.643 98.3547 994.565 90.7075 994.565C83.0533 994.565 76.8323 988.643 76.8323 981.364H77.8766C77.8766 988.068 83.6308 993.518 90.7099 993.518C97.7795 993.518 103.534 988.066 103.534 981.364Z" fill="#6D6A7B"/>
<path d="M77.761 952.835C84.833 952.835 90.5896 947.383 90.5896 940.681H91.6339C91.6339 947.958 85.4105 953.879 77.7633 953.879C70.1091 953.879 63.8881 947.958 63.8881 940.681H64.9324C64.93 947.383 70.6843 952.835 77.761 952.835Z" fill="#6D6A7B"/>
<path d="M49.9727 981.002C42.3232 981.002 36.0975 975.081 36.0975 967.801H37.1465C37.1465 974.503 42.9007 979.958 49.9751 979.958C57.0471 979.958 62.8084 974.503 62.8084 967.801H63.8527C63.848 975.081 57.627 981.002 49.9727 981.002Z" fill="#6D6A7B"/>
<path d="M75.7503 981.364H76.7946C76.7946 988.643 70.5712 994.565 62.9193 994.565C55.2698 994.565 49.0488 988.643 49.0488 981.364H50.0931C50.0931 988.068 55.8473 993.518 62.9217 993.518C69.996 993.518 75.7503 988.066 75.7503 981.364Z" fill="#6D6A7B"/>
<path d="M96.2048 1003.23L95.4623 1003.96C93.1191 1001.6 91.6693 998.421 91.6693 994.923H92.7136C92.7136 998.141 94.0479 1001.06 96.2048 1003.23Z" fill="#6D6A7B"/>
<path d="M-5.59426 952.835C1.47774 952.835 7.23435 947.383 7.23435 940.681H8.27865C8.27865 947.958 2.05529 953.879 -5.5919 953.879C-13.2462 953.879 -19.4672 947.958 -19.4672 940.681H-18.4229C-18.4276 947.383 -12.671 952.835 -5.59426 952.835Z" fill="#6D6A7B"/>
<path d="M8.3139 967.801H9.3582C9.3582 974.503 15.1172 979.958 22.1915 979.958C29.2659 979.958 35.0201 974.503 35.0201 967.801H36.0691C36.0691 975.081 29.8411 981.002 22.1939 981.002C14.5349 981.002 8.3139 975.081 8.3139 967.801Z" fill="#6D6A7B"/>
<path d="M20.1784 954.24H21.2275C21.2275 961.519 14.9994 967.441 7.35219 967.441C-0.30207 967.441 -6.52307 961.519 -6.52307 954.24H-5.47877C-5.47877 960.944 0.275478 966.394 7.35455 966.394C14.4242 966.394 20.1784 960.944 20.1784 954.24Z" fill="#6D6A7B"/>
<path d="M47.9667 954.24H49.011C49.011 961.519 42.7877 967.441 35.1358 967.441C27.4862 967.441 21.2605 961.519 21.2605 954.24H22.3048C22.3048 960.944 28.0638 966.394 35.1381 966.394C42.2125 966.394 47.9667 960.944 47.9667 954.24Z" fill="#6D6A7B"/>
<path d="M49.9727 952.835C57.0447 952.835 62.806 947.383 62.806 940.681H63.8503C63.8503 947.958 57.627 953.879 49.9751 953.879C42.3255 953.879 36.0998 947.958 36.0998 940.681H37.1488C37.1441 947.383 42.9007 952.835 49.9727 952.835Z" fill="#6D6A7B"/>
<path d="M22.1892 952.835C29.2612 952.835 35.0179 947.383 35.0179 940.681H36.0669C36.0669 947.958 29.8388 953.879 22.1916 953.879C14.5373 953.879 8.31635 947.958 8.31635 940.681H9.36064C9.35593 947.383 15.1172 952.835 22.1892 952.835Z" fill="#6D6A7B"/>
<path d="M-19.4695 967.801H-18.4252C-18.4252 974.503 -12.6709 979.958 -5.59186 979.958C1.48014 979.958 7.23675 974.503 7.23675 967.801H8.28105C8.28105 975.081 2.05769 981.002 -5.5895 981.002C-13.2485 981.002 -19.4695 975.081 -19.4695 967.801Z" fill="#6D6A7B"/>
<path d="M7.34975 994.562C-0.304509 994.562 -6.52551 988.64 -6.52551 981.361H-5.48121C-5.48121 988.065 0.273036 993.515 7.35211 993.515C14.4241 993.515 20.1807 988.065 20.1807 981.361H21.2297C21.2274 988.643 14.9993 994.562 7.34975 994.562Z" fill="#6D6A7B"/>
<path d="M75.7503 954.24H76.7946C76.7946 961.519 70.5712 967.441 62.9193 967.441C55.2698 967.441 49.0488 961.519 49.0488 954.24H50.0931C50.0931 960.944 55.8473 966.394 62.9217 966.394C69.996 966.394 75.7503 960.944 75.7503 954.24Z" fill="#6D6A7B"/>
<path d="M-19.4695 1049.17H-18.4252C-18.4252 1055.87 -12.6709 1061.32 -5.59186 1061.32C1.48014 1061.32 7.23675 1055.87 7.23675 1049.17H8.28105C8.28105 1056.45 2.05769 1062.37 -5.5895 1062.37C-13.2485 1062.37 -19.4695 1056.45 -19.4695 1049.17Z" fill="#6D6A7B"/>
<path d="M159.105 927.124H160.15C160.15 934.401 153.926 940.322 146.274 940.322C138.625 940.322 132.404 934.401 132.404 927.124H133.448C133.448 933.823 139.202 939.278 146.277 939.278C153.351 939.278 159.105 933.821 159.105 927.124Z" fill="#6D6A7B"/>
<path d="M8.3139 1049.17H9.3582C9.3582 1055.87 15.1172 1061.32 22.1915 1061.32C29.2659 1061.32 35.0201 1055.87 35.0201 1049.17H36.0691C36.0691 1056.45 29.8411 1062.37 22.1939 1062.37C14.5349 1062.37 8.3139 1056.45 8.3139 1049.17Z" fill="#6D6A7B"/>
<path d="M131.322 899.995H132.366C132.366 907.275 126.138 913.196 118.491 913.196C110.837 913.196 104.616 907.275 104.616 899.995H105.66C105.66 906.699 111.419 912.15 118.491 912.15C125.563 912.15 131.322 906.699 131.322 899.995Z" fill="#6D6A7B"/>
<path d="M159.105 899.995H160.15C160.15 907.275 153.926 913.196 146.274 913.196C138.625 913.196 132.404 907.275 132.404 899.995H133.448C133.448 906.699 139.202 912.15 146.277 912.15C153.351 912.15 159.105 906.699 159.105 899.995Z" fill="#6D6A7B"/>
<path d="M133.328 898.592C140.4 898.592 146.161 893.14 146.161 886.44H147.206C147.206 893.72 140.982 899.639 133.33 899.639C125.676 899.639 119.455 893.72 119.455 886.44H120.497C120.497 893.138 126.256 898.592 133.328 898.592Z" fill="#6D6A7B"/>
<path d="M105.545 898.592C112.617 898.592 118.373 893.14 118.373 886.44H119.422C119.422 893.72 113.194 899.639 105.547 899.639C97.8926 899.639 91.6716 893.72 91.6716 886.44H92.7159C92.7136 893.138 98.4725 898.592 105.545 898.592Z" fill="#6D6A7B"/>
<path d="M36.0975 1049.17H37.1465C37.1465 1052.51 38.5727 1055.54 40.8852 1057.73L40.1379 1058.47C37.6439 1056.08 36.0975 1052.79 36.0975 1049.17Z" fill="#6D6A7B"/>
<path d="M161.112 926.761C153.462 926.761 147.236 920.841 147.236 913.562H148.285C148.285 920.262 154.04 925.714 161.114 925.714C168.191 925.714 173.947 920.262 173.947 913.562H174.992C174.989 920.841 168.766 926.761 161.112 926.761Z" fill="#6D6A7B"/>
<path d="M161.112 898.592C168.188 898.592 173.945 893.14 173.945 886.44H174.989C174.989 893.72 168.766 899.639 161.114 899.639C153.464 899.639 147.239 893.72 147.239 886.44H148.288C148.285 893.138 154.04 898.592 161.112 898.592Z" fill="#6D6A7B"/>
<path d="M160.185 927.124H161.229C161.229 930.412 162.62 933.396 164.869 935.586L164.127 936.322C161.691 933.939 160.185 930.697 160.185 927.124Z" fill="#6D6A7B"/>
<path d="M186.889 899.995H187.933C187.933 907.275 181.71 913.196 174.063 913.196C166.409 913.196 160.188 907.275 160.188 899.995H161.232C161.232 906.699 166.986 912.15 174.065 912.15C181.135 912.15 186.889 906.699 186.889 899.995Z" fill="#6D6A7B"/>
<path d="M20.1784 1062.73H21.2274C21.2274 1066.13 19.8507 1069.23 17.6183 1071.57H16.1143C18.6131 1069.36 20.1784 1066.21 20.1784 1062.73Z" fill="#6D6A7B"/>
<path d="M175.025 913.562H176.069C176.069 916.586 177.252 919.352 179.188 921.48L178.445 922.213C176.319 919.891 175.025 916.872 175.025 913.562Z" fill="#6D6A7B"/>
<path d="M188.9 899.637C181.246 899.637 175.025 893.717 175.025 886.438H176.069C176.069 893.138 181.823 898.59 188.902 898.59C195.977 898.59 201.731 893.138 201.731 886.438H202.775C202.773 893.717 196.549 899.637 188.9 899.637Z" fill="#6D6A7B"/>
<path d="M21.2582 1062.73H22.3025C22.3025 1066.21 23.8725 1069.36 26.3665 1071.57H24.8673C22.6349 1069.23 21.2582 1066.13 21.2582 1062.73Z" fill="#6D6A7B"/>
<path d="M103.534 899.995H104.578C104.578 907.275 98.3547 913.196 90.7075 913.196C83.0533 913.196 76.8323 907.275 76.8323 899.995H77.8766C77.8766 906.699 83.6308 912.15 90.7099 912.15C97.7795 912.15 103.534 906.699 103.534 899.995Z" fill="#6D6A7B"/>
<path d="M49.0462 1035.6H50.0905C50.0905 1039.15 51.7053 1042.33 54.2653 1044.55L53.5181 1045.29C50.7741 1042.88 49.0462 1039.43 49.0462 1035.6Z" fill="#6D6A7B"/>
<path d="M21.2582 1035.6H22.3025C22.3025 1042.31 28.0614 1047.76 35.1358 1047.76C42.2125 1047.76 47.9668 1042.31 47.9668 1035.6H49.0111C49.0111 1042.89 42.7877 1048.81 35.1358 1048.81C27.4863 1048.8 21.2582 1042.89 21.2582 1035.6Z" fill="#6D6A7B"/>
<path d="M8.3139 1022.04H9.3582C9.3582 1028.75 15.1172 1034.2 22.1915 1034.2C29.2659 1034.2 35.0201 1028.75 35.0201 1022.04H36.0691C36.0691 1029.32 29.8411 1035.24 22.1939 1035.24C14.5349 1035.24 8.3139 1029.32 8.3139 1022.04Z" fill="#6D6A7B"/>
<path d="M147.236 940.681H148.285C148.285 943.769 149.518 946.586 151.529 948.733L150.782 949.464C148.585 947.126 147.236 944.056 147.236 940.681Z" fill="#6D6A7B"/>
<path d="M7.34975 1048.8C-0.304509 1048.8 -6.52551 1042.88 -6.52551 1035.6H-5.48121C-5.48121 1042.3 0.273036 1047.76 7.35211 1047.76C14.4241 1047.76 20.1807 1042.3 20.1807 1035.6H21.2297C21.2274 1042.88 14.9993 1048.8 7.34975 1048.8Z" fill="#6D6A7B"/>
<path d="M-19.4695 1022.04H-18.4252C-18.4252 1028.75 -12.6709 1034.2 -5.59186 1034.2C1.48014 1034.2 7.23675 1028.75 7.23675 1022.04H8.28105C8.28105 1029.32 2.05769 1035.24 -5.5895 1035.24C-13.2485 1035.24 -19.4695 1029.32 -19.4695 1022.04Z" fill="#6D6A7B"/>
<path d="M20.1784 899.995H21.2275C21.2275 907.275 14.9994 913.196 7.35219 913.196C-0.30207 913.196 -6.52307 907.275 -6.52307 899.995H-5.47877C-5.47877 906.699 0.275478 912.15 7.35455 912.15C14.4242 912.15 20.1784 906.699 20.1784 899.995Z" fill="#6D6A7B"/>
<path d="M-5.59426 898.592C1.47774 898.592 7.23435 893.14 7.23435 886.44H8.27865C8.27865 893.72 2.05529 899.639 -5.5919 899.639C-13.2462 899.639 -19.4672 893.72 -19.4672 886.44H-18.4229C-18.4276 893.138 -12.671 898.592 -5.59426 898.592Z" fill="#6D6A7B"/>
<path d="M22.1892 898.592C29.2612 898.592 35.0179 893.14 35.0179 886.44H36.0669C36.0669 893.72 29.8388 899.639 22.1916 899.639C14.5373 899.639 8.31635 893.72 8.31635 886.44H9.36064C9.35593 893.138 15.1172 898.592 22.1892 898.592Z" fill="#6D6A7B"/>
<path d="M75.7503 899.995H76.7946C76.7946 907.275 70.5712 913.196 62.9193 913.196C55.2698 913.196 49.0488 907.275 49.0488 899.995H50.0931C50.0931 906.699 55.8473 912.15 62.9217 912.15C69.996 912.15 75.7503 906.699 75.7503 899.995Z" fill="#6D6A7B"/>
<path d="M49.9727 898.592C57.0447 898.592 62.806 893.14 62.806 886.44H63.8503C63.8503 893.72 57.627 899.639 49.9751 899.639C42.3255 899.639 36.0998 893.72 36.0998 886.44H37.1488C37.1441 893.138 42.9007 898.592 49.9727 898.592Z" fill="#6D6A7B"/>
<path d="M47.9667 899.995H49.011C49.011 907.275 42.7877 913.196 35.1358 913.196C27.4862 913.196 21.2605 907.275 21.2605 899.995H22.3048C22.3048 906.699 28.0638 912.15 35.1381 912.15C42.2125 912.15 47.9667 906.699 47.9667 899.995Z" fill="#6D6A7B"/>
<path d="M77.761 898.592C84.833 898.592 90.5896 893.14 90.5896 886.44H91.6339C91.6339 893.72 85.4105 899.639 77.7633 899.639C70.1091 899.639 63.8881 893.72 63.8881 886.44H64.9324C64.93 893.138 70.6843 898.592 77.761 898.592Z" fill="#6D6A7B"/>
<path d="M217.862 880.304H-166.284V888.685H217.862V880.304Z" fill="#6D6A7B"/>
<path d="M31.3193 1063.63H-166.284V1077.2H31.3193V1063.63Z" fill="#6D6A7B"/>
<path d="M54.5318 1493.95H383.75V1055.58L219.14 894.714L54.5318 1055.58V1493.95Z" fill="#DBDAD4"/>
<path d="M383.75 1097.03V1106.5C382.036 1103.54 382.022 1099.92 383.75 1097.03Z" fill="#ACA991"/>
<path d="M54.5318 1068.5L215.573 911.119L383.75 1075.47V1096.27C380.155 1098.85 375.084 1098.57 371.713 1095.28C368.137 1091.78 367.861 1086.27 370.895 1082.59L370.796 1082.5C367.187 1085.62 361.671 1085.46 358.1 1081.97C354.524 1078.48 354.243 1072.97 357.282 1069.29L357.178 1069.19C353.574 1072.31 348.058 1072.16 344.481 1068.66C340.908 1065.17 340.63 1059.66 343.668 1055.98L343.564 1055.88C339.96 1059 334.444 1058.85 330.868 1055.35C327.292 1051.86 327.016 1046.35 330.05 1042.67L329.951 1042.57C326.342 1045.69 320.826 1045.54 317.25 1042.05C313.676 1038.56 313.398 1033.04 316.436 1029.36L316.337 1029.27C312.723 1032.38 307.212 1032.23 303.636 1028.74C300.06 1025.25 299.784 1019.74 302.818 1016.05L302.719 1015.95C299.11 1019.08 293.594 1018.93 290.022 1015.43C286.446 1011.94 286.166 1006.43 289.204 1002.75L289.105 1002.65C285.496 1005.77 279.98 1005.62 276.404 1002.13C272.83 998.635 272.552 993.123 275.586 989.446L275.487 989.347C271.883 992.465 266.362 992.312 262.79 988.821C259.214 985.328 258.939 979.818 261.972 976.139L261.873 976.042C258.264 979.161 252.748 979.01 249.177 975.514C245.601 972.025 245.32 966.511 248.359 962.834L248.255 962.735C244.651 965.856 239.13 965.7 235.559 962.207C231.987 958.718 231.707 953.204 234.741 949.524L234.642 949.428C231.032 952.544 225.516 952.391 221.945 948.902C218.369 945.408 218.093 939.895 221.127 936.22L215.587 930.807L209.531 936.729C212.145 940.39 211.74 945.571 208.324 948.904C204.913 952.238 199.729 952.523 196.127 949.826L195.915 950.033C198.525 953.702 198.124 958.876 194.711 962.209C191.3 965.542 186.111 965.83 182.509 963.136L182.302 963.341C184.911 967.009 184.506 972.183 181.092 975.516C177.681 978.854 172.497 979.137 168.895 976.445L168.683 976.648C171.298 980.313 170.892 985.49 167.479 988.826C164.068 992.159 158.884 992.447 155.282 989.75L155.07 989.96C157.679 993.623 157.279 998.8 153.863 1002.14C150.447 1005.47 145.266 1005.76 141.661 1003.06L141.449 1003.26C144.063 1006.93 143.658 1012.1 140.247 1015.44C136.831 1018.78 131.65 1019.06 128.045 1016.36L127.833 1016.57C130.443 1020.24 130.042 1025.41 126.626 1028.75C123.215 1032.09 118.031 1032.37 114.429 1029.67L114.212 1029.88C116.827 1033.54 116.426 1038.72 113.01 1042.06C109.594 1045.39 104.413 1045.68 100.809 1042.98L100.596 1043.19C103.211 1046.85 102.805 1052.03 99.3966 1055.36C95.9808 1058.7 90.7994 1058.98 87.195 1056.29L86.9828 1056.5C89.5924 1060.16 89.1917 1065.34 85.7759 1068.67C82.3601 1072.01 77.1763 1072.29 73.5743 1069.6L73.3622 1069.8C75.9765 1073.47 75.571 1078.64 72.1599 1081.98C68.7442 1085.31 63.5627 1085.6 59.9584 1082.9L59.7462 1083.11C62.3558 1086.78 61.955 1091.95 58.5393 1095.29C57.3747 1096.43 55.9933 1097.19 54.5436 1097.62V1068.5H54.5318Z" fill="#ACA991"/>
<path d="M208.536 1006.8V920.958H222.614V1006.8H313.042V1020.87H118.102V1006.8H208.536Z" fill="#ACA991"/>
<path d="M27.241 1096.82C28.29 1096.82 29.2966 1096.4 30.0533 1095.67L219.595 910.435L409.141 1095.67C409.893 1096.4 410.899 1096.82 411.953 1096.82C411.967 1096.82 411.979 1096.82 411.998 1096.82C413.063 1096.8 414.082 1096.37 414.829 1095.6L428.881 1081.22C430.432 1079.63 430.406 1077.09 428.817 1075.54L222.409 873.821C221.627 873.057 220.613 872.673 219.597 872.673C218.586 872.673 217.567 873.055 216.785 873.821L10.3767 1075.54C8.78782 1077.09 8.76189 1079.63 10.313 1081.22L24.3698 1095.6C25.1124 1096.37 26.1331 1096.8 27.201 1096.82C27.2104 1096.82 27.2245 1096.82 27.241 1096.82Z" fill="#6D6A7B"/>
<path d="M219.595 895.617C220.611 895.617 221.624 895.997 222.407 896.763L420.223 1090.08L414.829 1095.61C414.082 1096.37 413.066 1096.81 411.998 1096.82C411.979 1096.82 411.967 1096.82 411.953 1096.82C410.899 1096.82 409.893 1096.41 409.141 1095.67L219.595 910.438L30.0533 1095.67C29.2966 1096.41 28.2901 1096.82 27.241 1096.82C27.2222 1096.82 27.2104 1096.82 27.1962 1096.82C26.1307 1096.81 25.1076 1096.37 24.3651 1095.61L18.9668 1090.08L216.782 896.763C217.565 895.997 218.583 895.617 219.595 895.617Z" fill="#333239"/>
<path d="M63.03 1083.07H50.2933V1495.96H63.03V1083.07Z" fill="#A5A0BB"/>
<path d="M388.896 1083.07H376.164V1495.96H388.896V1083.07Z" fill="#A5A0BB"/>
<path d="M389.351 1099.53C385.633 1095.9 385.44 1090.06 388.882 1086.4L402.498 1099.7C398.912 1103.23 393.068 1103.17 389.351 1099.53ZM388.884 1086.4L375.266 1073.09C371.829 1076.75 372.017 1082.59 375.737 1086.23C379.453 1089.86 385.294 1089.92 388.884 1086.4ZM375.264 1073.09L361.643 1059.78C358.211 1063.45 358.399 1069.29 362.119 1072.92C365.839 1076.55 371.678 1076.61 375.264 1073.09ZM361.645 1059.78L348.029 1046.47C344.592 1050.14 344.786 1055.98 348.501 1059.61C352.223 1063.24 358.062 1063.3 361.645 1059.78ZM348.029 1046.47L334.413 1033.17C330.976 1036.83 331.165 1042.67 334.885 1046.3C338.602 1049.94 344.448 1049.99 348.029 1046.47ZM334.413 1033.17L320.8 1019.86C317.358 1023.52 317.551 1029.36 321.269 1033C324.989 1036.63 330.825 1036.69 334.413 1033.17ZM320.8 1019.86L307.181 1006.55C303.744 1010.22 303.938 1016.05 307.653 1019.69C311.368 1023.32 317.214 1023.38 320.8 1019.86ZM307.181 1006.55L293.563 993.244C290.126 996.907 290.315 1002.75 294.032 1006.38C297.754 1010.02 303.596 1010.07 307.181 1006.55ZM293.563 993.244L279.945 979.934C276.512 983.6 276.696 989.441 280.419 993.072C284.138 996.707 289.975 996.768 293.563 993.244ZM279.945 979.934L266.329 966.629C262.892 970.293 263.08 976.132 266.8 979.764C270.518 983.397 276.364 983.458 279.945 979.934ZM266.329 966.629L252.713 953.32C249.271 956.983 249.464 962.825 253.18 966.455C256.904 970.09 262.743 970.147 266.329 966.629ZM252.715 953.322L239.095 940.013C235.658 943.676 235.851 949.52 239.568 953.15C243.284 956.785 249.13 956.842 252.715 953.322ZM225.481 926.706C222.044 930.371 222.233 936.21 225.95 939.843C229.67 943.476 235.514 943.532 239.095 940.013L225.481 926.706ZM212.806 926.706L199.19 940.013C202.77 943.532 208.617 943.478 212.332 939.843C216.049 936.21 216.243 930.369 212.806 926.706ZM199.19 940.013L185.569 953.322C189.154 956.842 195.001 956.788 198.716 953.15C202.433 949.52 202.627 943.674 199.19 940.013ZM185.569 953.322L171.958 966.632C175.543 970.149 181.385 970.092 185.1 966.46C188.82 962.827 189.011 956.983 185.569 953.322ZM171.955 966.629L158.335 979.934C161.92 983.458 167.766 983.397 171.481 979.762C175.204 976.132 175.392 970.293 171.955 966.629ZM158.335 979.934L144.721 993.244C148.307 996.766 154.148 996.707 157.868 993.072C161.585 989.441 161.776 983.6 158.335 979.934ZM144.721 993.244L131.105 1006.55C134.686 1010.07 140.532 1010.02 144.247 1006.38C147.969 1002.75 148.158 996.907 144.721 993.244ZM131.105 1006.55L117.489 1019.86C121.07 1023.38 126.916 1023.32 130.631 1019.69C134.349 1016.05 134.542 1010.22 131.105 1006.55ZM117.489 1019.86L103.871 1033.17C107.456 1036.68 113.298 1036.63 117.018 1033C120.735 1029.36 120.921 1023.52 117.489 1019.86ZM103.871 1033.17L90.2549 1046.47C93.8356 1049.99 99.6818 1049.94 103.402 1046.3C107.119 1042.67 107.308 1036.83 103.871 1033.17ZM90.2549 1046.47L76.6342 1059.78C80.2197 1063.3 86.0659 1063.25 89.781 1059.61C93.5009 1055.98 93.6942 1050.14 90.2549 1046.47ZM76.6342 1059.78L63.0206 1073.09C66.6014 1076.61 72.4476 1076.55 76.1674 1072.92C79.8849 1069.29 80.0759 1063.44 76.6342 1059.78ZM63.0206 1073.09L49.3999 1086.4C52.9854 1089.92 58.8292 1089.86 62.5468 1086.23C66.269 1082.59 66.4576 1076.75 63.0206 1073.09ZM35.7863 1099.7C39.3671 1103.23 45.2133 1103.17 48.9332 1099.53C52.6507 1095.9 52.844 1090.06 49.4023 1086.4L35.7863 1099.7Z" fill="#A5A0BB"/>
<path d="M36.2273 1100.95L219.595 921.748L402.057 1100.06L411.894 1090L219.595 902.069L26.3878 1090.88L36.2273 1100.95Z" fill="#A5A0BB"/>
<path d="M212.558 997.753V911.909H226.631V997.753H317.066V1011.83H122.126V997.753H212.558Z" fill="#A5A0BB"/>
<path d="M405.402 1096.64L402.057 1100.06L219.595 921.748L36.2273 1100.95L32.8846 1097.53L219.595 915.062L405.402 1096.64Z" fill="#686C90"/>
<path d="M271.946 1083.39H167.245V1221.47H271.946V1083.39Z" fill="#A5A0BB"/>
<path d="M263.901 1091.43H175.289V1213.44H263.901V1091.43Z" fill="#333239"/>
<path d="M154.57 1085.12H283.712L289.744 1059.6H148.54L154.57 1085.12Z" fill="#686C90"/>
<path d="M203.268 1086.86H235.014L236.504 1052.2H201.782L203.268 1086.86Z" fill="#A5A0BB"/>
<path d="M250.811 1088.71H248.701V1216.45H250.811V1088.71Z" fill="#A5A0BB"/>
<path d="M190.489 1088.71H188.379V1216.45H190.489V1088.71Z" fill="#A5A0BB"/>
</g>
<path fill-rule="evenodd" clip-rule="evenodd" d="M508.274 833.86L500.888 861.587H503.351L512.389 836.594L508.274 833.86Z" fill="#333239"/>
<path fill-rule="evenodd" clip-rule="evenodd" d="M525.871 835.057C525.871 835.057 530.897 845.42 532.5 848.011C532.5 848.011 533.063 848.656 532.606 849.427C532.153 850.191 524.558 861.589 524.558 861.589H526.644H527.234C527.234 861.589 536.434 849.762 536.595 848.706C536.753 847.65 536.326 838.824 536.326 838.824C536.326 838.824 536.859 832.782 525.871 835.057Z" fill="#333239"/>
<path fill-rule="evenodd" clip-rule="evenodd" d="M492.805 811.25C492.805 811.25 493.18 812.139 493.394 812.594C493.606 813.049 494.035 813.516 495.266 813.516H498.969C499.401 815.262 500.824 821.045 502.604 828.416C504.745 837.292 512.177 838.921 512.177 838.921L515.763 861.586H517.903L516.939 838.202C525.979 840.026 532.934 836.955 532.934 836.955C532.934 841.945 543.094 847.511 543.15 847.942C543.202 848.371 539.914 861.586 539.914 861.586H542.028C542.137 861.249 546.601 847.605 546.389 846.98C546.172 846.358 543.605 841.921 542.804 839.859C542.002 837.796 544.784 832.711 543.553 829.258C542.323 825.807 539.435 824.081 536.922 824.081C534.409 824.081 520.018 824.081 516.114 824.081C512.21 824.081 510.659 822.928 510.178 822.16C509.697 821.391 503.936 810.145 503.936 810.145C503.936 810.145 505.058 810.097 505.433 809.379C505.808 808.66 505.94 806.26 505.94 806.26C505.94 806.26 503.08 807.384 502.838 807.603C502.599 807.818 502.599 808.66 502.599 808.66C502.599 808.66 500.699 808.66 500.056 808.66C499.415 808.66 498.88 809.711 497.38 809.711C495.883 809.711 493.986 809.711 493.986 809.711H492.849C492.845 809.713 492.35 809.989 492.805 811.25Z" fill="#333239"/>
<path fill-rule="evenodd" clip-rule="evenodd" d="M375.631 850.132L386.591 891.303H382.939L369.517 854.192L375.631 850.132Z" fill="#333239"/>
<path fill-rule="evenodd" clip-rule="evenodd" d="M349.503 851.912C349.503 851.912 342.037 867.293 339.654 871.143C339.654 871.143 338.822 872.105 339.496 873.243C340.17 874.382 351.45 891.303 351.45 891.303H348.352H347.478C347.478 891.303 333.817 873.741 333.579 872.173C333.341 870.608 333.975 857.503 333.975 857.503C333.975 857.503 333.183 848.527 349.503 851.912Z" fill="#333239"/>
<path fill-rule="evenodd" clip-rule="evenodd" d="M382.079 814.918C382.079 814.918 373.524 831.62 372.807 832.759C372.091 833.9 369.788 835.609 363.989 835.609C358.194 835.609 336.83 835.609 333.093 835.609C329.362 835.609 325.074 838.171 323.247 843.298C321.42 848.428 325.55 855.976 324.362 859.041C323.169 862.1 319.357 868.689 319.037 869.613C318.721 870.54 325.352 890.799 325.512 891.301H328.647C328.647 891.301 323.763 871.681 323.843 871.037C323.921 870.396 339.013 862.136 339.013 854.729C339.013 854.729 349.335 859.286 362.758 856.577L361.329 891.301H364.507L369.828 857.645C369.828 857.645 380.869 855.224 384.045 842.049C386.683 831.104 388.802 822.516 389.445 819.925H394.94C396.77 819.925 397.404 819.23 397.722 818.551C398.04 817.879 398.597 816.559 398.597 816.559C399.271 814.687 398.535 814.279 398.535 814.279H396.847C396.847 814.279 394.028 814.279 391.805 814.279C389.58 814.279 388.785 812.712 387.833 812.712C386.881 812.712 384.057 812.712 384.057 812.712C384.057 812.712 384.057 811.467 383.703 811.147C383.345 810.826 379.097 809.15 379.097 809.15C379.097 809.15 379.295 812.712 379.851 813.782C380.41 814.85 382.079 814.918 382.079 814.918Z" fill="#333239"/>
<mask id="mask8_2275_33495" style="mask-type:luminance" maskUnits="userSpaceOnUse" x="911" y="994" width="179" height="154">
<path d="M1089.94 994.903H911.489V1147.67H1089.94V994.903Z" fill="white"/>
</mask>
<g mask="url(#mask8_2275_33495)">
<path fill-rule="evenodd" clip-rule="evenodd" d="M1039.86 1002.26C1030.47 1002.26 1022.79 1009.94 1022.79 1019.34V1089.16V1092.57C1021.7 1119.89 993.187 1121.28 993.187 1170.37C993.187 1229.68 993.187 1274.09 993.187 1333.42C993.187 1345.52 1003.09 1355.42 1015.2 1355.42H1064.53C1076.63 1355.42 1086.54 1345.52 1086.54 1333.42C1086.54 1246.27 1086.54 1174.03 1086.54 1086.88C1086.54 1061.08 1080.62 1059.34 1068.51 1052.35C1057.87 1046.21 1056.99 1035.33 1056.94 1032.78V1032.24V1019.33C1056.94 1009.94 1049.26 1002.26 1039.86 1002.26Z" fill="#5A8B93"/>
<path fill-rule="evenodd" clip-rule="evenodd" d="M1041.94 1053.73C1041.94 1052.59 1041.01 1051.66 1039.87 1051.66C1038.72 1051.66 1037.79 1052.59 1037.79 1053.73V1101.09L1028.04 1095.46C1027.45 1095.12 1026.69 1095.32 1026.35 1095.92C1026.01 1096.51 1026.22 1097.27 1026.81 1097.61L1037.79 1103.95V1171.69L1008.91 1155.01C1008.32 1154.67 1007.56 1154.87 1007.22 1155.47C1006.88 1156.06 1007.09 1156.81 1007.68 1157.16L1037.79 1174.55V1239.51L1008.91 1222.83C1008.32 1222.49 1007.56 1222.69 1007.22 1223.29C1006.88 1223.87 1007.09 1224.63 1007.68 1224.98L1037.79 1242.36V1335.5C1037.79 1336.65 1038.72 1337.57 1039.87 1337.57C1041.01 1337.57 1041.94 1336.65 1041.94 1335.5V1259.65L1066.67 1245.37C1067.26 1245.03 1067.47 1244.27 1067.12 1243.68C1066.78 1243.09 1066.03 1242.88 1065.43 1243.22L1041.93 1256.79V1202.49L1066.66 1188.22C1067.26 1187.87 1067.46 1187.11 1067.12 1186.53C1066.78 1185.93 1066.02 1185.73 1065.43 1186.07L1041.93 1199.64V1145.34L1066.66 1131.06C1067.26 1130.72 1067.46 1129.96 1067.12 1129.37C1066.78 1128.78 1066.02 1128.57 1065.43 1128.91L1041.93 1142.48V1088.18L1066.66 1073.9C1067.25 1073.56 1067.46 1072.8 1067.12 1072.21C1066.78 1071.62 1066.02 1071.42 1065.42 1071.76L1041.93 1085.32V1053.73H1041.94Z" fill="#15262E"/>
<path fill-rule="evenodd" clip-rule="evenodd" d="M927.056 1124.05C927.056 1153.96 927.056 1141.92 927.056 1153.58C927.056 1165.23 918.509 1173 913.653 1178.05C908.794 1183.1 905.881 1190.29 905.881 1212.82C905.881 1235.36 906.512 1313.07 906.512 1332.11C906.512 1383.44 1004.32 1383.44 1004.32 1332.11C1004.32 1313.07 1004.95 1235.36 1004.95 1212.82C1004.95 1190.29 1002.04 1183.1 997.18 1178.05C992.326 1173 983.774 1165.23 983.774 1153.58C983.774 1141.92 983.774 1153.96 983.774 1124.05C983.774 1084.69 927.056 1084.69 927.056 1124.05Z" fill="#4E715D"/>
</g>
</g>
</g>
<defs>
<linearGradient id="paint0_linear_2275_33495" x1="-116.136" y1="1147.67" x2="450.562" y2="1147.67" gradientUnits="userSpaceOnUse">
<stop stop-color="#B4CD4E"/>
<stop offset="1" stop-color="#82B23E"/>
</linearGradient>
<clipPath id="clip0_2275_33495">
<rect width="1728" height="1117" fill="white"/>
</clipPath>
<clipPath id="clip1_2275_33495">
<rect width="1768" height="1178.67" fill="white" transform="translate(-20 -31)"/>
</clipPath>
</defs>
</svg>
