<svg width="256" height="261" viewBox="0 0 256 261" fill="none" xmlns="http://www.w3.org/2000/svg">
<path d="M218.309 206.96C219.321 200.382 219.977 193.34 219.164 186.734C216.612 193.58 215.422 200.93 215.683 208.232C214.604 205.071 213.569 202.946 211.085 201.284C213.044 205.788 213.11 209.984 212.629 213.387L218.587 214.043C220.353 209.737 222.74 204.988 225.484 201.228C222.641 202.004 219.632 204.326 218.309 206.96Z" fill="#1B9F40"/>
<path d="M35.6237 208.485C34.5898 203.221 33.8264 197.572 34.2612 192.226C36.5446 197.654 37.748 203.533 37.7809 209.422C38.5449 206.84 39.3082 205.095 41.252 203.673C39.8252 207.366 39.9115 210.747 40.4117 213.472L35.6357 214.199C34.0703 210.79 31.9899 207.045 29.6542 204.109C31.9706 204.639 34.471 206.408 35.6237 208.485Z" fill="#1B9F40"/>
<path d="M198 200.5C236.66 161.84 236.66 99.1599 198 60.5C159.34 21.8401 96.6599 21.8401 58 60.5C19.3401 99.1599 19.3401 161.84 58 200.5C96.6599 239.16 159.34 239.16 198 200.5Z" fill="#94BEF7"/>
<path d="M161.894 56.3374L144.192 218.62L147.085 218.302L164.541 56.3374H161.894Z" fill="#36454F"/>
<path d="M216.738 80.9137C209.8 84.8013 202.172 87.093 194.25 88.2075C172.29 91.2997 148.123 85.3402 130.406 79.1296C115.039 73.7508 104.528 68.1837 104.528 68.1837L167 35.7183L216.738 80.9137Z" fill="#C0FCD1"/>
<path d="M194.25 88.2075C172.291 91.2997 148.123 85.3402 130.407 79.1296L167 35.7183L194.25 88.2075Z" fill="#1B9F40"/>
<path d="M128.575 235.809C189.643 235.809 239.149 228.964 239.149 220.519C239.149 212.074 189.643 205.228 128.575 205.228C67.5063 205.228 18.0005 212.074 18.0005 220.519C18.0005 228.964 67.5063 235.809 128.575 235.809Z" fill="#E69317"/>
<path d="M229.171 217.279C229.171 216.134 226.162 215.206 222.45 215.206C218.739 215.206 215.73 216.134 215.73 217.279C215.73 218.424 218.739 219.352 222.45 219.352C226.162 219.353 229.171 218.424 229.171 217.279Z" fill="#E69317"/>
<path d="M218.387 225.105C220.964 225.105 223.054 224.46 223.054 223.665C223.054 222.87 220.964 222.225 218.387 222.225C215.809 222.225 213.719 222.87 213.719 223.665C213.719 224.46 215.809 225.105 218.387 225.105Z" fill="#E69317"/>
<path d="M82.7692 232.646C84.8177 232.646 86.4783 232.134 86.4783 231.502C86.4783 230.87 84.8177 230.357 82.7692 230.357C80.7207 230.357 79.0601 230.87 79.0601 231.502C79.0601 232.134 80.7207 232.646 82.7692 232.646Z" fill="#E69317"/>
<path d="M35.4536 221.355C37.4648 221.355 39.0952 220.852 39.0952 220.231C39.0952 219.611 37.4648 219.108 35.4536 219.108C33.4424 219.108 31.812 219.611 31.812 220.231C31.812 220.852 33.4424 221.355 35.4536 221.355Z" fill="#E69317"/>
<path d="M93.883 231.502C96.9559 231.502 99.4469 230.733 99.4469 229.785C99.4469 228.837 96.9559 228.068 93.883 228.068C90.8101 228.068 88.319 228.837 88.319 229.785C88.319 230.733 90.8101 231.502 93.883 231.502Z" fill="#E69317"/>
<path d="M76.8411 240.554C80.7078 240.554 83.8424 239.587 83.8424 238.394C83.8424 237.201 80.7078 236.234 76.8411 236.234C72.9744 236.234 69.8399 237.201 69.8399 238.394C69.8399 239.587 72.9744 240.554 76.8411 240.554Z" fill="#E69317"/>
<path d="M88.1714 243.955C88.1714 243.125 85.989 242.452 83.2971 242.452C80.6051 242.452 78.4227 243.125 78.4227 243.955C78.4227 244.786 80.6051 245.459 83.2971 245.459C85.989 245.459 88.1714 244.786 88.1714 243.955Z" fill="#E69317"/>
<path d="M102.59 243.956C111.158 243.956 118.104 242.433 118.104 240.555C118.104 238.676 111.158 237.154 102.59 237.154C94.0225 237.154 87.0769 238.676 87.0769 240.555C87.0769 242.433 94.0225 243.956 102.59 243.956Z" fill="#E69317"/>
<path d="M40.916 225.812C43.9329 225.812 46.3785 225.057 46.3785 224.126C46.3785 223.195 43.9329 222.441 40.916 222.441C37.8992 222.441 35.4536 223.195 35.4536 224.126C35.4536 225.057 37.8992 225.812 40.916 225.812Z" fill="#E69317"/>
<path d="M230.619 221.695C230.619 220.9 229.286 220.255 227.642 220.255C225.998 220.255 224.665 220.9 224.665 221.695C224.665 222.49 225.997 223.135 227.642 223.135C229.286 223.135 230.619 222.49 230.619 221.695Z" fill="#E69317"/>
<path opacity="0.2" d="M131.777 229.788C151.252 229.788 167.039 228.139 167.039 226.106C167.039 224.073 151.252 222.425 131.777 222.425C112.303 222.425 96.5159 224.073 96.5159 226.106C96.5159 228.139 112.303 229.788 131.777 229.788Z" fill="#0B0B0B"/>
<path opacity="0.2" d="M174.031 229.788C184.889 229.788 193.691 228.139 193.691 226.106C193.691 224.073 184.889 222.425 174.031 222.425C163.173 222.425 154.371 224.073 154.371 226.106C154.371 228.139 163.173 229.788 174.031 229.788Z" fill="#0B0B0B"/>
<path opacity="0.2" d="M99.2999 222.232C127.399 222.232 150.179 219.653 150.179 216.471C150.179 213.289 127.399 210.71 99.2999 210.71C71.2004 210.71 48.4212 213.289 48.4212 216.471C48.4212 219.653 71.2004 222.232 99.2999 222.232Z" fill="#0B0B0B"/>
<path opacity="0.2" d="M165.923 227.15C189.564 227.15 208.728 224.708 208.728 221.695C208.728 218.682 189.564 216.24 165.923 216.24C142.282 216.24 123.117 218.682 123.117 221.695C123.117 224.708 142.282 227.15 165.923 227.15Z" fill="#0B0B0B"/>
<path d="M52.7718 109.164L127.969 106.835L130.414 212.748L52.7718 216.15V109.164Z" fill="#36454F"/>
<path d="M119.744 222.232L52.7717 216.15V109.164L119.744 115.246V222.232Z" fill="#F8F8F8"/>
<path d="M115.596 119.394V218.086L95.9575 216.183L92.6481 215.863L76.9153 214.342L73.5855 214.018L52.7733 212.003V113.31L77.4009 115.694L80.7055 116.014L103.782 118.249L107.091 118.568L115.596 119.394Z" fill="#1B9F40"/>
<path d="M110.823 134.243L115.596 134.956V131.601L111.313 130.962C109.708 130.721 108.062 130.477 106.403 130.294C106.738 126.392 106.967 122.478 107.091 118.567L103.782 118.248C103.658 122.179 103.43 126.115 103.094 130.042C93.863 129.669 84.5078 132.236 76.7285 137.224C78.3583 130.627 79.6727 123.606 80.705 116.014L77.4003 115.694C76.2932 123.801 74.8585 131.236 73.0586 138.19C69.9737 137.166 66.826 136.266 63.6124 135.665C60.5311 135.088 56.7534 134.69 52.7727 134.985V138.314C56.5091 138.004 60.0916 138.381 63.0028 138.928C66.0961 139.508 69.1648 140.388 72.1922 141.396C70.9814 145.708 69.6169 149.838 68.0953 153.832C64.1021 164.31 58.9227 173.794 52.7733 181.967V187.341C60.2789 178.185 66.5325 167.25 71.1933 155.014C72.7274 150.983 74.1045 146.823 75.332 142.482C76.7583 142.992 78.1768 143.518 79.5827 144.041C81.0671 144.592 82.6017 145.161 84.119 145.704C84.4094 145.807 84.6956 145.907 84.9818 146.006C78.5917 167.055 72.8357 190.621 73.5866 214.017L76.9163 214.341C76.5679 204.492 77.4056 194.59 78.9773 184.853C84.3351 186.856 89.7589 188.664 95.237 190.269C93.8191 198.728 92.9563 207.287 92.6497 215.863L95.9585 216.182C96.2489 207.806 97.0782 199.446 98.4464 191.181C104.111 192.757 109.829 194.117 115.597 195.262V191.874C103.335 189.407 91.2804 185.949 79.5455 181.524C80.3832 176.809 81.3826 172.14 82.4939 167.541C93.1718 171.958 104.256 175.187 115.598 177.195V173.823C104.53 171.825 93.7155 168.631 83.2986 164.282C84.7872 158.402 86.4338 152.642 88.1254 147.065C97.9447 150.241 106.777 151.825 114.735 151.825C115.025 151.825 115.312 151.821 115.597 151.817V148.499C112.014 148.557 108.233 148.267 104.243 147.629C105.01 142.985 105.628 138.299 106.101 133.6C107.684 133.774 109.272 134.011 110.823 134.243ZM85.234 142.582C83.7329 142.047 82.2108 141.479 80.739 140.931C79.972 140.645 79.2007 140.359 78.4253 140.077C85.6076 135.441 94.2533 133.036 102.792 133.351H102.788C102.327 137.941 101.722 142.507 100.976 147.044C96.0443 146.057 90.8027 144.568 85.234 142.582Z" fill="#F8F8F8"/>
<path d="M84.9531 145.981C84.6669 145.882 84.3807 145.782 84.0909 145.679C82.573 145.135 81.0389 144.567 79.5545 144.016C78.1486 143.493 76.7307 142.967 75.3039 142.457C74.0764 146.798 72.6998 150.957 71.1652 154.988C66.5043 167.225 60.2507 178.16 52.7451 187.316V211.977L73.5579 213.992C72.8076 190.596 78.563 167.03 84.9531 145.981Z" fill="#94BEF7"/>
<path d="M78.9805 184.83C77.4088 194.566 76.5711 204.469 76.9196 214.317L92.6523 215.839C92.959 207.264 93.8217 198.705 95.2397 190.245C89.7621 188.641 84.3378 186.832 78.9805 184.83Z" fill="#94BEF7"/>
<path d="M63.5957 135.665C66.8093 136.266 69.957 137.166 73.042 138.191C74.8418 131.237 76.2765 123.802 77.3837 115.695L52.7561 113.311V134.986C56.7368 134.69 60.5144 135.089 63.5957 135.665Z" fill="#94BEF7"/>
<path d="M95.9575 216.182L115.597 218.086V195.262C109.829 194.117 104.11 192.757 98.446 191.181C97.0772 199.446 96.2474 207.806 95.9575 216.182Z" fill="#1B9F40"/>
<path d="M106.1 133.567C105.627 138.266 105.01 142.951 104.242 147.596C108.231 148.235 112.013 148.525 115.596 148.467V134.924L110.823 134.21C109.272 133.978 107.684 133.742 106.1 133.567Z" fill="#1B9F40"/>
<path d="M78.4076 140.075C79.183 140.357 79.9543 140.644 80.7213 140.93C82.1937 141.477 83.7152 142.045 85.2163 142.58C90.7855 144.566 96.0266 146.055 100.957 147.042C101.704 142.506 102.309 137.94 102.769 133.349H102.774C94.2356 133.034 85.5899 135.439 78.4076 140.075Z" fill="#1B9F40"/>
<path d="M107.091 118.578C106.967 122.489 106.739 126.403 106.403 130.305C108.061 130.488 109.707 130.732 111.313 130.973L115.596 131.612V119.404L107.091 118.578Z" fill="#94BEF7"/>
<path d="M88.1244 147.042C86.4323 152.619 84.7862 158.379 83.2976 164.259C93.7145 168.609 104.529 171.801 115.597 173.8V151.793C115.311 151.798 115.024 151.802 114.734 151.802C106.776 151.802 97.9437 150.218 88.1244 147.042Z" fill="#94BEF7"/>
<path d="M148.077 106.73H145.118V136.136H148.077V106.73Z" fill="#36454F"/>
<path d="M176.148 106.73H173.19V136.136H176.148V106.73Z" fill="#36454F"/>
<path d="M195.125 222.225H144.088C139.978 222.225 136.646 218.893 136.646 214.783V139.045C136.646 134.934 139.978 131.603 144.088 131.603H195.125C199.235 131.603 202.567 134.934 202.567 139.045V214.783C202.567 218.893 199.235 222.225 195.125 222.225Z" fill="#3A77C8"/>
<path d="M191.396 131.603H190.177C194.568 131.603 198.128 135.162 198.128 139.552V214.275C198.128 218.666 194.568 222.225 190.177 222.225H191.396C195.787 222.225 199.346 218.666 199.346 214.275V139.552C199.346 135.162 195.787 131.603 191.396 131.603Z" fill="#36454F"/>
<path d="M186.151 222.225H135.115C131.004 222.225 127.672 218.893 127.672 214.783V139.045C127.672 134.934 131.004 131.603 135.115 131.603H186.151C190.262 131.603 193.594 134.934 193.594 139.045V214.783C193.594 218.893 190.262 222.225 186.151 222.225Z" fill="#E0EDFF"/>
<path d="M185.501 219.989H135.765C132.53 219.989 129.909 217.367 129.909 214.132V139.694C129.909 136.46 132.53 133.837 135.765 133.837H185.501C188.736 133.837 191.358 136.459 191.358 139.694V214.132C191.358 217.367 188.736 219.989 185.501 219.989Z" fill="#94BEF7"/>
<path d="M145.24 212.833H144.645C142.234 212.833 140.281 210.879 140.281 208.469V160.104C140.281 157.694 142.234 155.74 144.645 155.74H145.24C147.651 155.74 149.605 157.694 149.605 160.104V208.469C149.605 210.879 147.65 212.833 145.24 212.833Z" fill="#E69317"/>
<path d="M160.931 212.833H160.335C157.925 212.833 155.971 210.879 155.971 208.469V160.104C155.971 157.694 157.925 155.74 160.335 155.74H160.931C163.341 155.74 165.295 157.694 165.295 160.104V208.469C165.295 210.879 163.341 212.833 160.931 212.833Z" fill="#E69317"/>
<path d="M176.621 212.833H176.026C173.615 212.833 171.662 210.879 171.662 208.469V160.104C171.662 157.694 173.615 155.74 176.026 155.74H176.621C179.032 155.74 180.985 157.694 180.985 160.104V208.469C180.985 210.879 179.032 212.833 176.621 212.833Z" fill="#E69317"/>
<path d="M130.467 140.111H125.996C125.996 134.495 130.564 129.925 136.181 129.925V134.397C133.03 134.397 130.467 136.96 130.467 140.111Z" fill="#36454F"/>
<path d="M136.181 223.902C130.565 223.902 125.996 219.333 125.996 213.716H130.467C130.467 216.867 133.03 219.43 136.181 219.43V223.902Z" fill="#36454F"/>
<path d="M185.085 223.902V219.43C188.236 219.43 190.799 216.867 190.799 213.716H195.27C195.27 219.332 190.701 223.902 185.085 223.902Z" fill="#36454F"/>
<path d="M195.27 140.111H190.799C190.799 136.96 188.236 134.396 185.085 134.396V129.925C190.701 129.925 195.27 134.495 195.27 140.111Z" fill="#36454F"/>
<path d="M177.464 106.73H171.875V102.175C171.875 100.758 170.721 99.6047 169.304 99.6047H151.962C150.545 99.6047 149.392 100.758 149.392 102.175V106.73H143.803V102.175C143.803 97.6761 147.464 94.0156 151.962 94.0156H169.304C173.803 94.0156 177.464 97.6761 177.464 102.175V106.73Z" fill="#E69317"/>
<path d="M152.779 100.512H152.462C151.18 100.512 150.14 99.4728 150.14 98.1904V96.8096H155.101V98.1904C155.101 99.4733 154.061 100.512 152.779 100.512Z" fill="#E69317"/>
<path d="M157.739 100.512H157.423C156.14 100.512 155.101 99.4728 155.101 98.1904V96.8096H160.061V98.1904C160.061 99.4733 159.022 100.512 157.739 100.512Z" fill="#E69317"/>
<path d="M162.7 100.512H162.383C161.101 100.512 160.061 99.4728 160.061 98.1904V96.8096H165.021V98.1904C165.021 99.4733 163.982 100.512 162.7 100.512Z" fill="#E69317"/>
<path d="M167.66 100.512H167.343C166.061 100.512 165.021 99.4728 165.021 98.1904V96.8096H169.982V98.1904C169.982 99.4733 168.942 100.512 167.66 100.512Z" fill="#E69317"/>
<path d="M198.675 195.649C199.86 195.649 200.82 194.689 200.82 193.504C200.82 192.319 199.86 191.359 198.675 191.359C197.49 191.359 196.53 192.319 196.53 193.504C196.53 194.689 197.49 195.649 198.675 195.649Z" fill="#E69317"/>
<path d="M198.675 170.463C199.86 170.463 200.82 169.502 200.82 168.318C200.82 167.133 199.86 166.172 198.675 166.172C197.49 166.172 196.53 167.133 196.53 168.318C196.53 169.502 197.49 170.463 198.675 170.463Z" fill="#E69317"/>
<path d="M199.572 194.342H198.675C198.212 194.342 197.837 193.966 197.837 193.504C197.837 193.041 198.212 192.666 198.675 192.666H199.572C200.035 192.666 200.411 193.041 200.411 193.504C200.411 193.967 200.035 194.342 199.572 194.342Z" fill="#36454F"/>
<path d="M199.572 169.156H198.675C198.212 169.156 197.837 168.78 197.837 168.318C197.837 167.855 198.212 167.479 198.675 167.479H199.572C200.035 167.479 200.411 167.855 200.411 168.318C200.411 168.78 200.035 169.156 199.572 169.156Z" fill="#36454F"/>
<path d="M201.844 194.901H199.572V192.107H201.844C203.029 192.107 203.992 191.144 203.992 189.959V171.863C203.992 170.678 203.029 169.715 201.844 169.715H199.572V166.92H201.844C204.569 166.92 206.787 169.137 206.787 171.863V189.959C206.787 192.684 204.569 194.901 201.844 194.901Z" fill="#36454F"/>
<path d="M160.633 152.282H156.845C154.804 152.282 153.529 150.073 154.549 148.306L156.443 145.025L158.337 141.744C159.358 139.977 161.908 139.977 162.928 141.744L164.822 145.025L166.716 148.306C167.736 150.073 166.461 152.282 164.42 152.282H160.633Z" fill="#F8F8F8"/>
<path d="M238.971 123.677C227.93 123.471 216.897 122.971 205.866 122.47C204.541 120.426 203.633 115.098 206.809 113.338C209.9 111.625 214.009 114.963 214.877 116.462C214.567 114.172 214.305 105.538 219.895 103.85C230.229 100.73 230.716 112.57 230.891 115.898C231.177 114.878 234.575 112.852 237.85 114.525C240.67 115.966 239.674 121.996 238.971 123.677Z" fill="#F8F8F8"/>
<path d="M78.4944 86.1679C62.6015 86.4991 47.2109 86.8747 31.0637 86.3709C30.8037 83.6355 30.4673 79.1023 33.0462 78.1547C35.6252 77.2071 38.7839 78.2002 40.3567 80.4532C39.0073 75.751 40.8491 64.1438 49.0469 62.9859C57.2307 61.8301 59.2566 78.4027 59.4203 79.5543C59.0394 77.7482 61.2208 76.0775 63.0651 76.1481C64.91 76.2188 66.3923 78.2771 65.8743 80.0493C68.0399 78.1945 71.3383 77.5807 74.0528 78.455C76.7673 79.3288 78.6676 82.1882 78.4944 86.1679Z" fill="#F8F8F8"/>
<path d="M181.627 225.381H164.364C160.722 225.381 157.77 222.429 157.77 218.787V209.076C157.77 205.434 160.722 202.481 164.364 202.481H181.627C185.27 202.481 188.222 205.434 188.222 209.076V218.787C188.222 222.429 185.27 225.381 181.627 225.381Z" fill="#2F2E30"/>
<path d="M172.996 222.832C177.912 222.832 181.897 218.847 181.897 213.931C181.897 209.015 177.912 205.03 172.996 205.03C168.08 205.03 164.095 209.015 164.095 213.931C164.095 218.847 168.08 222.832 172.996 222.832Z" fill="#F8F8F8"/>
<path d="M180.706 216.88C182.339 212.625 180.214 207.851 175.959 206.218C171.704 204.584 166.93 206.71 165.297 210.965C163.664 215.22 165.789 219.993 170.044 221.627C174.299 223.26 179.072 221.135 180.706 216.88Z" fill="#5E4352"/>
<path d="M176.601 213.931C176.601 211.939 174.987 210.325 172.996 210.325C171.004 210.325 169.39 211.939 169.39 213.931C169.39 215.922 171.004 217.536 172.996 217.536C174.987 217.536 176.601 215.922 176.601 213.931Z" fill="#6B4C5D"/>
<path d="M171.715 216.708C171.715 215.978 171.124 215.387 170.394 215.387C169.664 215.387 169.072 215.978 169.072 216.708C169.072 217.438 169.664 218.03 170.394 218.03C171.124 218.03 171.715 217.438 171.715 216.708Z" fill="#8C647B"/>
<path d="M185.164 206.443C185.164 205.713 184.572 205.122 183.842 205.122C183.112 205.122 182.521 205.713 182.521 206.443C182.521 207.173 183.112 207.765 183.842 207.765C184.572 207.765 185.164 207.173 185.164 206.443Z" fill="#FF620F"/>
<path d="M178.671 216.303C179.983 213.16 178.5 209.549 175.358 208.237C172.215 206.924 168.604 208.407 167.292 211.55C165.979 214.692 167.463 218.303 170.605 219.616C173.747 220.928 177.358 219.445 178.671 216.303Z" stroke="#6B4C5D" stroke-width="0.613462" stroke-miterlimit="10"/>
<path d="M170.154 200.919H166.305C165.443 200.919 164.744 201.618 164.744 202.481H171.716C171.716 201.618 171.017 200.919 170.154 200.919Z" fill="#211F21"/>
<path d="M152.31 217.644C152.255 216.985 152.199 216.325 152.144 215.665C152.071 214.8 150.742 215.166 150.815 216.03C150.87 216.689 150.926 217.349 150.981 218.008C151.054 218.874 152.383 218.508 152.31 217.644Z" fill="#1B9F40"/>
<path d="M140.011 208.512C132.048 209.337 124.141 211.363 116.297 212.921C115.035 213.172 115.569 215.102 116.829 214.852C122.287 213.768 127.74 212.661 133.202 211.604C137.609 210.752 150.16 207.59 150.446 215.217C150.494 216.502 152.496 216.508 152.448 215.217C152.203 208.666 145.104 207.984 140.011 208.512Z" fill="#E9FFEF"/>
<path d="M160.007 220.924C160.007 221.271 159.953 221.612 159.854 221.926C159.427 223.261 158.178 224.229 156.703 224.229H104.963C102.687 224.229 100.624 223.308 99.1361 221.812C97.8746 220.558 97.027 218.902 96.7868 217.054C96.7402 216.707 96.7198 216.353 96.7198 215.993C96.7198 215.666 96.7664 215.352 96.8601 215.051C97.2603 213.716 98.5019 212.749 99.9638 212.749H110.036C113.387 212.749 116.724 212.976 120.027 213.429C123.338 213.883 126.615 214.564 129.839 215.465C134.945 216.894 140.217 217.614 145.51 217.614H156.704C157.611 217.614 158.439 217.981 159.04 218.582C159.413 218.956 159.694 219.416 159.854 219.923C159.953 220.244 160.007 220.578 160.007 220.924Z" fill="#C0FCD1"/>
<path d="M160.007 220.924C160.007 221.271 159.953 221.612 159.853 221.926H143.274C137.888 221.926 132.528 221.185 127.335 219.737C120.974 217.955 114.4 217.054 107.799 217.054H96.7863C96.7397 216.707 96.7193 216.353 96.7193 215.993C96.7193 215.666 96.7659 215.352 96.8595 215.051H107.799C114.587 215.051 121.342 215.979 127.876 217.808C132.889 219.209 138.068 219.924 143.274 219.924H159.853C159.953 220.244 160.007 220.578 160.007 220.924Z" fill="#1B9F40"/>
<path d="M113.695 225.43H107.777C107.257 225.43 106.835 225.009 106.835 224.489V224.229H114.637V224.489C114.637 225.009 114.215 225.43 113.695 225.43Z" fill="#1B9F40"/>
<path d="M122.035 225.43H116.117C115.597 225.43 115.175 225.009 115.175 224.489V224.229H122.977V224.489C122.977 225.009 122.556 225.43 122.035 225.43Z" fill="#1B9F40"/>
<path d="M130.376 225.43H124.457C123.937 225.43 123.516 225.009 123.516 224.489V224.229H131.317V224.489C131.317 225.009 130.896 225.43 130.376 225.43Z" fill="#1B9F40"/>
<path d="M138.716 225.43H132.798C132.278 225.43 131.856 225.009 131.856 224.489V224.229H139.658V224.489C139.658 225.009 139.236 225.43 138.716 225.43Z" fill="#1B9F40"/>
<path d="M147.056 225.43H141.138C140.618 225.43 140.196 225.009 140.196 224.489V224.229H147.998V224.489C147.998 225.009 147.576 225.43 147.056 225.43Z" fill="#1B9F40"/>
<path d="M155.396 225.43H149.478C148.958 225.43 148.536 225.009 148.536 224.489V224.229H156.338V224.489C156.338 225.009 155.916 225.43 155.396 225.43Z" fill="#1B9F40"/>
</svg>
