<svg width="1728" height="1117" viewBox="0 0 1728 1117" fill="none"
    xmlns="http://www.w3.org/2000/svg">
    <g clip-path="url(#clip0_1218_7467)">
        <rect width="1728" height="1117" fill="#EBF4FF" />
        <g opacity="0.15" clip-path="url(#clip1_1218_7467)">
            <path
                d="M1747 841.14C1734.28 846.357 1725.31 858.844 1725.31 873.433C1725.31 883.497 1729.6 892.539 1736.42 898.911C1714.35 912.893 1699.69 937.489 1699.69 965.52C1699.69 994.647 1715.52 1020.07 1739.04 1033.72C1730.46 1037.11 1723.16 1043.01 1718.09 1050.55C1711.37 1016.57 1676.58 990.673 1634.64 990.673C1627 990.673 1619.6 991.547 1612.56 993.158C1599.52 987.917 1585.28 985.02 1570.34 985.02C1547.55 985.02 1526.35 991.753 1508.6 1003.29C1497.79 986.599 1478.93 975.529 1457.46 975.529C1450.6 975.529 1444.01 976.675 1437.86 978.754C1402.92 944.229 1354.76 922.883 1301.58 922.883C1269.59 922.883 1239.44 930.653 1212.86 944.325C1212.91 943.486 1212.99 942.654 1212.99 941.803C1212.99 919.055 1194.42 900.613 1171.52 900.613C1159.12 900.613 1148.02 906.052 1140.42 914.625C1111.39 905.54 1080.5 900.613 1048.45 900.613C1016.59 900.613 985.864 905.458 956.977 914.437C954.773 911.391 952.343 908.52 949.703 905.854C959.031 896.563 964.797 883.744 964.797 869.586C964.797 841.218 941.643 818.22 913.084 818.22C899.235 818.22 886.668 823.637 877.384 832.442C862.802 827.35 847.659 823.444 832.076 820.818C828.093 802.393 811.617 788.574 791.877 788.574C772.82 788.574 756.838 801.464 752.165 818.932C693.817 825.928 641.064 850.968 599.721 888.266C591.725 878.52 579.554 872.29 565.912 872.29C545.88 872.29 529.044 885.724 523.935 904.008C504.822 884.454 478.095 872.29 448.484 872.29C427.872 872.29 408.657 878.2 392.424 888.374C384.193 874.379 368.948 864.949 351.452 864.949C339.618 864.949 328.824 869.277 320.509 876.392C288.607 851.798 248.575 837.116 205.066 837.116C197.178 837.116 189.42 837.654 181.785 838.59C175.644 818.126 156.58 803.197 133.985 803.197C112.43 803.197 94.1204 816.801 87.145 835.813C80.8792 834.714 74.4437 834.108 67.8597 834.108C61.245 834.108 54.7765 834.719 48.48 835.829C44.5409 822.093 34.3643 810.99 21.1633 805.733C26.4555 793.678 29.4092 780.375 29.4092 766.382C29.4092 729.579 9.089 697.51 -21 680.58V1374.33H1747V841.14Z"
                fill="white" />
            <path
                d="M101.869 585.365H429.392C429.392 585.365 363.085 512.349 301.924 566.27C301.924 566.27 244.301 507.488 169.103 565.891C169.103 565.891 123.986 557.098 101.869 585.365Z"
                fill="white" />
            <path
                d="M755.326 311.41H1082.85C1082.85 311.41 1016.54 238.394 955.382 292.316C955.382 292.316 897.759 233.533 822.562 291.936C822.562 291.936 777.443 283.145 755.326 311.41Z"
                fill="white" />
            <path
                d="M1237.28 635.119H1564.8C1564.8 635.119 1498.5 562.103 1437.34 616.024C1437.34 616.024 1379.71 557.242 1304.51 615.645C1304.51 615.645 1259.4 606.852 1237.28 635.119Z"
                fill="white" />
            <mask id="mask0_1218_7467" style="mask-type:luminance" maskUnits="userSpaceOnUse"
                x="1555" y="386" width="192" height="74">
                <path d="M1747 386.517H1555.09V459.946H1747V386.517Z" fill="white" />
            </mask>
            <g mask="url(#mask0_1218_7467)">
                <path
                    d="M1570.04 428.336H1897.57C1897.57 428.336 1831.26 355.32 1770.1 409.242C1770.1 409.242 1712.48 350.459 1637.28 408.862C1637.28 408.862 1592.16 400.072 1570.04 428.336Z"
                    fill="white" />
            </g>
            <mask id="mask1_1218_7467" style="mask-type:luminance" maskUnits="userSpaceOnUse"
                x="-21" y="212" width="129" height="59">
                <path d="M107.892 212.576H-21V270.958H107.892V212.576Z" fill="white" />
            </mask>
            <g mask="url(#mask1_1218_7467)">
                <path
                    d="M-227.693 255.57H99.8298C99.8298 255.57 33.5227 182.554 -27.6383 236.475C-27.6383 236.475 -85.2609 177.693 -160.46 236.096C-160.46 236.096 -205.577 227.303 -227.693 255.57Z"
                    fill="white" />
            </g>
            <mask id="mask2_1218_7467" style="mask-type:luminance" maskUnits="userSpaceOnUse"
                x="-21" y="733" width="1409" height="426">
                <path d="M1387.17 733.797H-21V1158.26H1387.17V733.797Z" fill="white" />
            </mask>
            <g mask="url(#mask2_1218_7467)">
                <path fill-rule="evenodd" clip-rule="evenodd"
                    d="M795.934 1009.3C785.005 1009.8 499.473 881.072 477.746 873.726C456.018 866.379 206.315 992.303 175.064 1010.39C143.811 1028.48 760.072 1085.94 795.934 1009.3Z"
                    fill="#8499B0" />
                <path fill-rule="evenodd" clip-rule="evenodd"
                    d="M670.568 1147.78C578.199 1090.14 172.238 836.846 114.973 801.455C114.973 801.455 98.6487 794.185 82.4421 799.635C66.2283 805.088 -220.178 979.538 -220.178 979.538L-104.417 1147.78H670.568V1147.78Z"
                    fill="#A0BAD6" />
                <path fill-rule="evenodd" clip-rule="evenodd"
                    d="M1373.97 1147.78C1248.81 1059.11 891.092 855.778 877.804 855.33C857.632 854.648 722.281 870.035 311.412 1124.6C298.256 1132.75 286.995 1140.47 277.49 1147.78H1373.97Z"
                    fill="#A0BAD6" />
            </g>
            <path fill-rule="evenodd" clip-rule="evenodd"
                d="M974.172 473.695C974.172 473.695 967.34 472.359 966.301 471.468C965.261 470.577 967.637 468.349 967.637 468.349C967.637 468.349 955.83 460.254 948.107 460.254C940.384 460.254 930.726 460.254 926.716 460.254C922.707 460.254 926.646 457.654 928.723 456.468C930.802 455.28 931.917 454.907 939.939 454.907C947.958 454.907 948.925 454.907 954.271 454.907C959.618 454.907 966.97 458.917 966.97 458.917H969.533C969.533 458.917 970.869 453.929 974.174 453.792C977.475 453.929 978.809 458.917 978.809 458.917H981.374C981.374 458.917 988.728 454.907 994.073 454.907C999.419 454.907 1000.39 454.907 1008.41 454.907C1016.42 454.907 1017.54 455.278 1019.62 456.468C1021.7 457.656 1025.63 460.254 1021.63 460.254C1017.62 460.254 1007.96 460.254 1000.24 460.254C992.514 460.254 980.707 468.349 980.707 468.349C980.707 468.349 983.083 470.577 982.043 471.468C981.001 472.361 974.172 473.695 974.172 473.695Z"
                fill="#A0BAD6" />
            <path fill-rule="evenodd" clip-rule="evenodd"
                d="M865.093 655.375C865.093 655.375 854.797 653.362 853.229 652.018C851.664 650.675 855.247 647.32 855.247 647.32C855.247 647.32 837.449 635.116 825.808 635.116C814.168 635.116 799.621 635.116 793.579 635.116C787.535 635.116 793.461 631.201 796.599 629.412C799.729 627.62 801.412 627.059 813.499 627.059C825.585 627.059 827.039 627.059 835.096 627.059C843.154 627.059 854.238 633.101 854.238 633.101H858.099C858.099 633.101 860.115 625.586 865.091 625.378C870.067 625.586 872.083 633.101 872.083 633.101H875.949C875.949 633.101 887.026 627.059 895.086 627.059C903.146 627.059 904.6 627.059 916.686 627.059C928.772 627.059 930.455 627.618 933.586 629.412C936.716 631.203 942.652 635.116 936.606 635.116C930.561 635.116 916.014 635.116 904.374 635.116C892.738 635.116 874.938 647.32 874.938 647.32C874.938 647.32 878.521 650.675 876.956 652.018C875.39 653.362 865.093 655.375 865.093 655.375Z"
                fill="#A0BAD6" />
            <path fill-rule="evenodd" clip-rule="evenodd"
                d="M1034.98 585.949C1034.98 585.949 1027 584.389 1025.79 583.347C1024.57 582.307 1027.35 579.705 1027.35 579.705C1027.35 579.705 1013.56 570.245 1004.53 570.245C995.513 570.245 984.233 570.245 979.549 570.245C974.86 570.245 979.459 567.208 981.89 565.822C984.316 564.434 985.622 564 994.992 564C1004.36 564 1005.49 564 1011.74 564C1017.98 564 1026.57 568.684 1026.57 568.684H1029.57C1029.57 568.684 1031.13 562.857 1034.99 562.697C1038.85 562.857 1040.4 568.684 1040.4 568.684H1043.4C1043.4 568.684 1051.99 564 1058.23 564C1064.48 564 1065.61 564 1074.98 564C1084.35 564 1085.65 564.434 1088.08 565.822C1090.51 567.208 1095.11 570.245 1090.42 570.245C1085.74 570.245 1074.46 570.245 1065.43 570.245C1056.41 570.245 1042.62 579.705 1042.62 579.705C1042.62 579.705 1045.39 582.307 1044.18 583.347C1042.96 584.389 1034.98 585.949 1034.98 585.949Z"
                fill="#A0BAD6" />
            <path fill-rule="evenodd" clip-rule="evenodd"
                d="M671.288 609.954C671.288 609.954 667.37 609.186 666.776 608.676C666.182 608.165 667.542 606.887 667.542 606.887C667.542 606.887 660.771 602.248 656.342 602.248C651.917 602.248 646.382 602.248 644.082 602.248C641.785 602.248 644.044 600.76 645.232 600.077C646.427 599.396 647.064 599.183 651.663 599.183C656.262 599.183 656.814 599.183 659.876 599.183C662.945 599.183 667.16 601.484 667.16 601.484H668.626C668.626 601.484 669.392 598.625 671.288 598.547C673.18 598.625 673.942 601.484 673.942 601.484H675.415C675.415 601.484 679.628 599.183 682.692 599.183C685.757 599.183 686.311 599.183 690.91 599.183C695.507 599.183 696.146 599.398 697.334 600.077C698.529 600.76 700.787 602.248 698.484 602.248C696.188 602.248 690.651 602.248 686.226 602.248C681.801 602.248 675.031 606.887 675.031 606.887C675.031 606.887 676.391 608.165 675.797 608.676C675.203 609.186 671.288 609.954 671.288 609.954Z"
                fill="#A0BAD6" />
            <path fill-rule="evenodd" clip-rule="evenodd"
                d="M793.73 525.303C793.73 525.303 788.24 524.228 787.403 523.511C786.568 522.794 788.475 521.005 788.475 521.005C788.475 521.005 778.982 514.494 772.768 514.494C766.561 514.494 758.794 514.494 755.569 514.494C752.347 514.494 755.515 512.403 757.184 511.448C758.855 510.491 759.754 510.192 766.201 510.192C772.648 510.192 773.428 510.192 777.723 510.192C782.023 510.192 787.94 513.417 787.94 513.417H790C790 513.417 791.071 509.407 793.727 509.299C796.389 509.407 797.459 513.417 797.459 513.417H799.519C799.519 513.417 805.436 510.192 809.729 510.192C814.031 510.192 814.809 510.192 821.259 510.192C827.706 510.192 828.604 510.491 830.276 511.448C831.947 512.401 835.115 514.494 831.89 514.494C828.665 514.494 820.9 514.494 814.686 514.494C808.477 514.494 798.987 521.005 798.987 521.005C798.987 521.005 800.894 522.794 800.057 523.511C799.225 524.228 793.73 525.303 793.73 525.303Z"
                fill="#A0BAD6" />
            <path fill-rule="evenodd" clip-rule="evenodd"
                d="M1168.48 514.683C1168.48 514.683 1164.56 513.919 1163.96 513.405C1163.37 512.894 1164.73 511.621 1164.73 511.621C1164.73 511.621 1157.96 506.979 1153.53 506.979C1149.1 506.979 1143.57 506.979 1141.27 506.979C1138.97 506.979 1141.23 505.492 1142.42 504.81C1143.62 504.127 1144.25 503.912 1148.85 503.912C1153.45 503.912 1154 503.912 1157.07 503.912C1160.13 503.912 1164.35 506.213 1164.35 506.213H1165.82C1165.82 506.213 1166.58 503.353 1168.48 503.276C1170.37 503.353 1171.13 506.213 1171.13 506.213H1172.6C1172.6 506.213 1176.82 503.912 1179.88 503.912C1182.95 503.912 1183.5 503.912 1188.1 503.912C1192.69 503.912 1193.33 504.127 1194.52 504.81C1195.71 505.492 1197.97 506.979 1195.67 506.979C1193.38 506.979 1187.84 506.979 1183.41 506.979C1178.99 506.979 1172.22 511.621 1172.22 511.621C1172.22 511.621 1173.58 512.896 1172.99 513.405C1172.39 513.919 1168.48 514.683 1168.48 514.683Z"
                fill="#A0BAD6" />
            <path fill-rule="evenodd" clip-rule="evenodd"
                d="M1366.18 438.326C1366.18 438.326 1362.27 437.558 1361.67 437.048C1361.08 436.537 1362.44 435.262 1362.44 435.262C1362.44 435.262 1355.67 430.62 1351.24 430.62C1346.82 430.62 1341.28 430.62 1338.99 430.62C1336.68 430.62 1338.94 429.128 1340.14 428.449C1341.33 427.768 1341.96 427.555 1346.56 427.555C1351.16 427.555 1351.71 427.555 1354.78 427.555C1357.84 427.555 1362.05 429.856 1362.05 429.856H1363.53C1363.53 429.856 1364.29 426.997 1366.18 426.919C1368.07 426.997 1368.84 429.856 1368.84 429.856H1370.31C1370.31 429.856 1374.53 427.555 1377.59 427.555C1380.65 427.555 1381.21 427.555 1385.81 427.555C1390.4 427.555 1391.04 427.77 1392.23 428.449C1393.43 429.13 1395.68 430.62 1393.38 430.62C1391.08 430.62 1385.55 430.62 1381.13 430.62C1376.7 430.62 1369.93 435.262 1369.93 435.262C1369.93 435.262 1371.29 436.537 1370.69 437.048C1370.1 437.56 1366.18 438.326 1366.18 438.326Z"
                fill="#A0BAD6" />
            <path fill-rule="evenodd" clip-rule="evenodd"
                d="M601.32 497.257C601.32 497.257 597.404 496.489 596.81 495.98C596.213 495.468 597.576 494.191 597.576 494.191C597.576 494.191 590.806 489.551 586.381 489.551C581.949 489.551 576.417 489.551 574.123 489.551C571.82 489.551 574.078 488.064 575.266 487.383C576.461 486.699 577.098 486.487 581.697 486.487C586.294 486.487 586.845 486.487 589.915 486.487C592.979 486.487 597.192 488.785 597.192 488.785H598.658C598.658 488.785 599.427 485.926 601.32 485.848C603.215 485.926 603.981 488.785 603.981 488.785H605.447C605.447 488.785 609.662 486.487 612.724 486.487C615.796 486.487 616.345 486.487 620.942 486.487C625.541 486.487 626.18 486.699 627.373 487.383C628.561 488.064 630.822 489.551 628.523 489.551C626.22 489.551 620.69 489.551 616.258 489.551C611.833 489.551 605.065 494.191 605.065 494.191C605.065 494.191 606.426 495.468 605.831 495.98C605.237 496.489 601.32 497.257 601.32 497.257Z"
                fill="#A0BAD6" />
            <mask id="mask3_1218_7467" style="mask-type:luminance" maskUnits="userSpaceOnUse"
                x="-21" y="1105" width="1769" height="270">
                <path d="M1747 1105.19H-21V1374.33H1747V1105.19Z" fill="white" />
            </mask>
            <g mask="url(#mask3_1218_7467)">
                <path fill-rule="evenodd" clip-rule="evenodd"
                    d="M1801.32 1116.83C1801.32 1116.83 1479.23 1116.83 1337.05 1116.83H-96.3215V1384.71H1821.4C1827.5 1256.12 1801.32 1116.83 1801.32 1116.83Z"
                    fill="#65947A" />
            </g>
            <path d="M1079.58 1161.38H791.893V927.026L935.74 796.399L1079.58 927.026V1161.38Z"
                fill="#C55D43" />
            <path
                d="M1079.58 1089.24L1073.18 943.593L791.974 948.768L970.676 1145.93L1079.58 1144.92V1089.24Z"
                fill="#C9795C" />
            <path d="M1079.58 1078.77H791.974V1081.34H1079.58V1078.77Z" fill="#C9795C" />
            <path d="M1079.58 1092.93H791.974V1095.5H1079.58V1092.93Z" fill="#C9795C" />
            <path d="M1079.58 1064.61H791.974V1067.18H1079.58V1064.61Z" fill="#C9795C" />
            <path d="M1079.58 1107.09H791.974V1109.67H1079.58V1107.09Z" fill="#C9795C" />
            <path d="M1079.58 1050.45H791.974V1053.02H1079.58V1050.45Z" fill="#C9795C" />
            <path d="M1079.58 1022.13H791.974V1024.7H1079.58V1022.13Z" fill="#C9795C" />
            <path d="M1079.58 1007.97H791.974V1010.54H1079.58V1007.97Z" fill="#C9795C" />
            <path d="M1079.58 1036.29H791.974V1038.86H1079.58V1036.29Z" fill="#C9795C" />
            <path d="M1079.58 979.641H791.974V982.216H1079.58V979.641Z" fill="#C9795C" />
            <path d="M1079.58 993.804H791.974V996.379H1079.58V993.804Z" fill="#C9795C" />
            <path d="M1079.58 965.705H791.974V968.279H1079.58V965.705Z" fill="#C9795C" />
            <path d="M873.405 975.528H811.117V1086.33H873.405V975.528Z" fill="#DBDAD4" />
            <path
                d="M870.157 1078.86H814.37V982.994H870.157V1078.86ZM816.398 1076.84H868.127V985.019H816.398V1076.84Z"
                fill="#C5C2A6" />
            <path d="M864.553 990.388H819.757V1075.61H864.553V990.388Z" fill="#333239" />
            <path d="M865.55 1029.28H818.977V1034.69H865.55V1029.28Z" fill="#DBDAD4" />
            <path d="M843.613 989.509H840.912V1075.62H843.613V989.509Z" fill="#DBDAD4" />
            <path d="M1060.36 975.528H998.075V1086.33H1060.36V975.528Z" fill="#DBDAD4" />
            <path
                d="M1057.11 1078.86H1001.33V982.994H1057.11V1078.86ZM1003.35 1076.84H1055.09V985.019H1003.35V1076.84Z"
                fill="#C5C2A6" />
            <path d="M1051.51 990.388H1006.71V1075.61H1051.51V990.388Z" fill="#333239" />
            <path d="M1052.51 1029.28H1005.93V1034.69H1052.51V1029.28Z" fill="#DBDAD4" />
            <path d="M1030.57 989.509H1027.87V1075.62H1030.57V989.509Z" fill="#DBDAD4" />
            <path d="M1079.58 956.469H799.116V959.043H1079.58V956.469Z" fill="#74899B" />
            <path d="M970.676 987.362H900.795V1137.67H970.676V987.362Z" fill="#DBDAD4" />
            <path
                d="M965.803 1131.31H905.668V993.717H965.803V1131.31ZM907.693 1129.29H963.776V995.742H907.693V1129.29Z"
                fill="#C5C2A6" />
            <path d="M957.051 1004.31H914.432V1117.6H957.051V1004.31Z" fill="#333239" />
            <path d="M958.661 1024.33H914.432V1027.03H958.661V1024.33Z" fill="#DBDAD4" />
            <path d="M958.661 1048.28H914.432V1050.98H958.661V1048.28Z" fill="#DBDAD4" />
            <path d="M958.661 1070.94H914.432V1073.64H958.661V1070.94Z" fill="#DBDAD4" />
            <path d="M958.661 1093.59H914.432V1096.3H958.661V1093.59Z" fill="#DBDAD4" />
            <path d="M929.988 1001.09H927.287V1117.6H929.988V1001.09Z" fill="#DBDAD4" />
            <path d="M944.194 1001.09H941.492V1117.6H944.194V1001.09Z" fill="#DBDAD4" />
            <path
                d="M913.76 1065.14C913.76 1066.74 912.464 1068.04 910.866 1068.04C909.265 1068.04 907.968 1066.74 907.968 1065.14C907.968 1063.54 909.265 1062.25 910.866 1062.25C912.464 1062.25 913.76 1063.54 913.76 1065.14Z"
                fill="#C5C2A6" />
            <path d="M886.677 1060.96H797.848V1071.26H886.677V1060.96Z" fill="#DBDAD4" />
            <path d="M884.105 1067.03H797.848V1069.05H884.105V1067.03Z" fill="#C5C2A6" />
            <path d="M814.09 1071.26H810.547V1126.29H814.09V1071.26Z" fill="#DBDAD4" />
            <path d="M829.064 1071.26H825.518V1126.29H829.064V1071.26Z" fill="#DBDAD4" />
            <path d="M844.035 1071.26H840.492V1126.29H844.035V1071.26Z" fill="#DBDAD4" />
            <path d="M859.004 1071.26H855.461V1126.29H859.004V1071.26Z" fill="#DBDAD4" />
            <path d="M873.978 1071.26H870.433V1126.29H873.978V1071.26Z" fill="#DBDAD4" />
            <path d="M894.932 959.255H882.059V1145.93H894.932V959.255Z" fill="#DBDAD4" />
            <path d="M894.932 959.255H889.095V1145.93H894.932V959.255Z" fill="#C5C2A6" />
            <path d="M802.468 959.255H789.595V1140.89H802.468V959.255Z" fill="#DBDAD4" />
            <path d="M796.629 959.255H789.595V1140.89H796.629V959.255Z" fill="#C5C2A6" />
            <path d="M1073.77 1060.96H984.938V1071.26H1073.77V1060.96Z" fill="#DBDAD4" />
            <path d="M1073.77 1067.03H987.512V1069.05H1073.77V1067.03Z" fill="#C5C2A6" />
            <path d="M1061.07 1071.26H1057.52V1126.29H1061.07V1071.26Z" fill="#DBDAD4" />
            <path d="M1046.1 1071.26H1042.55V1126.29H1046.1V1071.26Z" fill="#DBDAD4" />
            <path d="M1031.12 1071.26H1027.58V1126.29H1031.12V1071.26Z" fill="#DBDAD4" />
            <path d="M1016.15 1071.26H1012.61V1126.29H1016.15V1071.26Z" fill="#DBDAD4" />
            <path d="M1001.18 1071.26H997.639V1126.29H1001.18V1071.26Z" fill="#DBDAD4" />
            <path d="M989.556 959.255H976.683V1145.93H989.556V959.255Z" fill="#DBDAD4" />
            <path d="M982.387 959.255H976.548V1145.93H982.387V959.255Z" fill="#C5C2A6" />
            <path d="M1082.02 959.255H1069.15V1140.89H1082.02V959.255Z" fill="#DBDAD4" />
            <path d="M1081.89 959.255H1074.85V1140.89H1081.89V959.255Z" fill="#C5C2A6" />
            <path d="M894.932 1068.04H885.923V1131.77H894.932V1068.04Z" fill="#DBDAD4" />
            <path d="M985.697 1068.04H976.682V1131.76H985.697V1068.04Z" fill="#DBDAD4" />
            <path
                d="M791.893 927.026V958.07L935.733 827.358L1079.58 958.07V927.026L935.74 796.399L791.893 927.026Z"
                fill="#C9795C" />
            <path d="M1079.58 928.938H797.751V931.512H1079.58V928.938Z" fill="#C9795C" />
            <path d="M894.697 829.81L891.859 832.386H979.617L976.782 829.81H894.697Z" fill="#C9795C" />
            <path d="M910.288 815.649L907.455 818.223H964.024L961.19 815.649H910.288Z"
                fill="#C9795C" />
            <path d="M925.884 801.486L923.051 804.063H948.432L945.594 801.486H925.884Z"
                fill="#C9795C" />
            <path d="M879.101 843.972L876.267 846.547H995.209L992.375 843.972H879.101Z"
                fill="#C9795C" />
            <path d="M832.319 886.457L829.481 889.031H1041.99L1039.16 886.457H832.319Z"
                fill="#C9795C" />
            <path d="M816.723 900.615L813.89 903.191H1057.58L1054.75 900.615H816.723Z"
                fill="#C9795C" />
            <path d="M801.127 914.777L798.294 917.351H1073.18L1070.34 914.777H801.127Z"
                fill="#C9795C" />
            <path d="M847.913 872.293L845.077 874.867H1026.4L1023.56 872.293H847.913Z"
                fill="#C9795C" />
            <path d="M863.505 858.133L860.671 860.707H1010.8L1007.97 858.133H863.505Z"
                fill="#C9795C" />
            <path d="M966.126 854.01H914.048V931.898H966.126V854.01Z" fill="#C9795C" />
            <path d="M961.775 850.146H909.696V928.035H961.775V850.146Z" fill="#DBDAD4" />
            <path d="M957.421 861.091H914.048V924.817H957.421V861.091Z" fill="#C5C2A6" />
            <path d="M953.562 864.952H917.912V920.953H953.562V864.952Z" fill="#333239" />
            <path d="M953.797 890.251H917.671V895.654H953.797V890.251Z" fill="#DBDAD4" />
            <path d="M954.151 877.602H917.461V880.304H954.151V877.602Z" fill="#DBDAD4" />
            <path d="M954.151 905.603H917.461V908.304H954.151V905.603Z" fill="#DBDAD4" />
            <path d="M937.159 864.952H934.458V920.953H937.159V864.952Z" fill="#DBDAD4" />
            <path d="M1081.73 936.005H788.079V961.83H1081.73V936.005Z" fill="#DBDAD4" />
            <path d="M1081.73 955.706H788.079V957.733H1081.73V955.706Z" fill="#C5C2A6" />
            <path
                d="M788.079 961.535V936.005H816.174L788.079 961.535ZM1081.73 960.026V936.005H1055.3L1081.73 960.026Z"
                fill="#C5C2A6" />
            <path
                d="M1115.85 941.771L935.736 778.102H935.733L755.626 941.771L771.21 958.918L935.733 809.414L1100.26 958.918L1115.85 941.771Z"
                fill="#3F5968" />
            <path opacity="0.6"
                d="M935.733 788.577L760.836 947.509L771.21 958.918L935.733 809.414L1100.26 958.918L1110.63 947.509L935.733 788.577Z"
                fill="#5E7689" />
            <path
                d="M1105.92 952.695L1100.26 958.918L935.736 809.412L771.212 958.918L765.555 952.695L935.736 798.047L1105.92 952.695Z"
                fill="#DBDAD4" />
            <path
                d="M1105.92 952.695L1100.26 958.918L935.736 809.412L771.212 958.918L765.555 952.695L935.736 798.047L1105.92 952.695Z"
                fill="#DBDAD4" />
            <path
                d="M768.115 955.514L771.21 958.918L935.733 809.414L1100.26 958.918L1103.35 955.514L935.733 803.198L768.115 955.514Z"
                fill="#C5C2A6" />
            <path
                d="M1102.25 956.735L935.733 805.425L769.225 956.735L767.863 955.236L935.733 802.688L936.417 803.306L1103.61 955.236L1102.25 956.735Z"
                fill="#C5C2A6" />
            <mask id="mask4_1218_7467" style="mask-type:luminance" maskUnits="userSpaceOnUse"
                x="-21" y="1009" width="1003" height="366">
                <path d="M981.499 1009.2H-21V1374.33H981.499V1009.2Z" fill="white" />
            </mask>
            <g mask="url(#mask4_1218_7467)">
                <path fill-rule="evenodd" clip-rule="evenodd"
                    d="M-82.5785 1027.38H370.939C465.195 1027.38 467.889 1027.38 521.75 1027.38C575.61 1027.38 645.628 1081.96 687.369 1116.9C729.11 1151.83 997.064 1409.5 997.064 1409.5L780.279 1531.78L260.529 1509.94L-82.5785 1361.46V1027.38Z"
                    fill="#5A8B93" />
                <path
                    d="M522.882 1092.93C545.485 1092.93 563.81 1090.34 563.81 1087.14C563.81 1083.94 545.485 1081.35 522.882 1081.35C500.278 1081.35 481.953 1083.94 481.953 1087.14C481.953 1090.34 500.278 1092.93 522.882 1092.93Z"
                    fill="#3F5968" />
                <path fill-rule="evenodd" clip-rule="evenodd"
                    d="M68.2604 1027.38C65.705 1027.45 63.0884 1027.49 60.3751 1027.49H15.7861C15.7861 1027.49 397.111 1153.06 421.721 1168.24C446.332 1183.43 443.067 1207.8 434.354 1214.51C425.637 1221.22 346.15 1273.3 346.15 1273.3L404.513 1329.64L488.575 1381.41C488.575 1381.41 578.736 1315.51 634.051 1273.3C689.368 1231.09 659.746 1178.48 609.226 1161.54C558.699 1144.58 68.2627 1027.38 68.2627 1027.38L68.2604 1027.38Z"
                    fill="#C5C2A6" />
                <path
                    d="M350.447 1126.51C378.978 1126.51 402.106 1121.28 402.106 1114.82C402.106 1108.36 378.978 1103.13 350.447 1103.13C321.917 1103.13 298.789 1108.36 298.789 1114.82C298.789 1121.28 321.917 1126.51 350.447 1126.51Z"
                    fill="#ACA991" />
            </g>
            <path fill-rule="evenodd" clip-rule="evenodd"
                d="M-8.87113 974.224V946.938C-8.87113 943.437 -11.7353 940.576 -15.2336 940.576C-17.7866 940.576 -19.9883 942.108 -20.9973 944.291V1072.16H-6.04233C-1.53275 1072.16 2.15883 1068.48 2.15883 1063.97V1003.21C2.15648 984.924 -8.46803 984.406 -8.87113 974.224Z"
                fill="#4E715D" />
            <path fill-rule="evenodd" clip-rule="evenodd"
                d="M26.7951 985.955C26.7951 997.1 26.7951 992.614 26.7951 996.956C26.7951 1001.3 29.9798 1004.19 31.7902 1006.07C33.6007 1007.96 34.6874 1010.64 34.6874 1019.03C34.6874 1027.42 34.4517 1056.38 34.4517 1063.48C34.4517 1082.6 -1.99034 1082.6 -1.99034 1063.48C-1.99034 1056.38 -2.22607 1027.43 -2.22607 1019.03C-2.22607 1010.63 -1.13934 1007.96 0.668732 1006.07C2.47681 1004.19 5.66392 1001.3 5.66392 996.956C5.66392 992.614 5.66392 997.1 5.66392 985.955C5.66392 971.287 26.7951 971.287 26.7951 985.955Z"
                fill="#65947A" />
            <path fill-rule="evenodd" clip-rule="evenodd"
                d="M16.9933 986.841C16.9933 986.464 16.6868 986.157 16.3073 986.157C15.9301 986.157 15.6213 986.464 15.6213 986.841V1002.48L12.4035 1000.62C12.2079 1000.51 11.958 1000.57 11.8448 1000.77C11.734 1000.97 11.8 1001.22 11.9957 1001.33L15.6213 1003.42V1025.79L6.08587 1020.28C5.89021 1020.17 5.64034 1020.23 5.52718 1020.43C5.41403 1020.63 5.48239 1020.88 5.68041 1020.99L15.6213 1026.73V1048.18L6.08587 1042.67C5.89021 1042.56 5.64034 1042.63 5.52718 1042.82C5.41403 1043.02 5.48239 1043.27 5.68041 1043.38L15.6213 1049.12V1073.77C15.6213 1074.15 15.9277 1074.46 16.3073 1074.46C16.6844 1074.46 16.9933 1074.15 16.9933 1073.77V1054.83L25.1591 1050.11C25.3547 1050 25.4207 1049.75 25.3076 1049.56C25.1944 1049.36 24.9445 1049.29 24.7489 1049.4L16.9933 1053.89V1035.96L25.1591 1031.24C25.3547 1031.13 25.4207 1030.88 25.3076 1030.68C25.1944 1030.49 24.9445 1030.42 24.7489 1030.54L16.9933 1035.01V1017.09L25.1591 1012.38C25.3547 1012.26 25.4207 1012.01 25.3076 1011.82C25.1944 1011.62 24.9445 1011.56 24.7489 1011.67L16.9933 1016.15V998.222L22.3114 995.15C22.5071 995.037 22.5754 994.787 22.4646 994.592C22.3515 994.396 22.1016 994.328 21.9059 994.439L16.9956 997.274L16.9933 986.841Z"
                fill="#333239" />
            <mask id="mask5_1218_7467" style="mask-type:luminance" maskUnits="userSpaceOnUse"
                x="1055" y="815" width="692" height="560">
                <path d="M1747 815.649H1055.09V1374.33H1747V815.649Z" fill="white" />
            </mask>
            <g mask="url(#mask5_1218_7467)">
                <path d="M1736.3 1091.37H1175.34V1351.77H1736.3V1091.37Z" fill="#686C90" />
                <path d="M1697.43 979.323L1665.33 936.733V879.849H1697.43V979.323Z" fill="#686C90" />
                <path d="M1703.9 869.054H1658.87V880.527H1703.9V869.054Z" fill="#ACA991" />
                <path d="M1331.93 907.248H1665.75L1791.36 1126.64H1108.24L1331.93 907.248Z"
                    fill="#C55D43" />
                <path d="M1691.77 952.681L1602.66 911.374L1690.96 1126.64H1791.36L1691.77 952.681Z"
                    fill="#B2553D" />
                <path d="M1403.62 1054.66L1488.92 931.234L1469.71 907.248H1372.54L1403.62 1054.66Z"
                    fill="#B2553D" />
                <path d="M1718.51 1360.86H1486.8V1089.94L1602.65 945.677L1718.51 1089.94V1360.86Z"
                    fill="#898EC3" />
                <path d="M1403.62 1054.66H1220.08V922.17L1311.85 851.619L1403.62 922.17V1054.66Z"
                    fill="#898EC3" />
                <path
                    d="M1220.08 957.553L1311.85 866.751L1403.62 957.553V926.088L1385.87 908.518L1311.85 851.619L1237.83 908.521L1220.08 926.085V957.553Z"
                    fill="#686C90" />
                <path d="M1403.62 986.299H1220.08V989.74H1403.62V986.299Z" fill="#686C90" />
                <path d="M1403.62 1024.15H1220.08V1027.6H1403.62V1024.15Z" fill="#686C90" />
                <path d="M1403.62 1043.08H1220.08V1046.52H1403.62V1043.08Z" fill="#686C90" />
                <path d="M1403.62 967.369H1220.08V970.811H1403.62V967.369Z" fill="#686C90" />
                <path d="M1403.62 1005.23H1220.08V1008.67H1403.62V1005.23Z" fill="#686C90" />
                <path d="M1259.77 891.659L1255.29 895.1H1368.41L1363.94 891.659H1259.77Z"
                    fill="#686C90" />
                <path d="M1284.39 872.729L1279.91 876.173H1343.79L1339.32 872.729H1284.39Z"
                    fill="#686C90" />
                <path d="M1403.62 929.513H1220.08V932.954H1403.62V929.513Z" fill="#686C90" />
                <path d="M1403.62 948.442H1220.08V951.881H1403.62V948.442Z" fill="#686C90" />
                <path d="M1235.15 910.585L1230.67 914.027H1393.03L1388.56 910.585H1235.15Z"
                    fill="#686C90" />
                <path
                    d="M1413.54 953.053L1311.85 852.433L1210.16 953.053L1194.43 937.153L1311.85 820.965L1429.28 937.153L1413.54 953.053Z"
                    fill="#ACA991" />
                <path
                    d="M1419.76 946.771L1311.85 839.991L1203.94 946.771L1202.67 945.486L1311.85 837.452L1421.03 945.486L1419.76 946.771Z"
                    fill="#C5C2A6" />
                <path
                    d="M1374.53 963.818C1369.5 945.797 1343.04 932.051 1311.14 932.051C1279.24 932.051 1252.79 945.799 1247.75 963.818H1374.53Z"
                    fill="#FAEFE1" />
                <path d="M1374.95 962.956H1247.33V1045.48H1374.95V962.956Z" fill="#FAEFE1" />
                <path d="M1366.34 977.583H1257.36V1041.46H1366.34V977.583Z" fill="#333239" />
                <path d="M1376.76 1043.04H1246.95V1057.09H1376.76V1043.04Z" fill="#FAEFE1" />
                <path d="M1295.1 977.583H1287.88V1040.03H1295.1V977.583Z" fill="#FAEFE1" />
                <path d="M1335.83 977.583H1328.6V1040.03H1335.83V977.583Z" fill="#FAEFE1" />
                <path d="M1366.57 991.319H1257.36V994.03H1366.57V991.319Z" fill="#FAEFE1" />
                <path d="M1366.57 1009.14H1257.36V1011.84H1366.57V1009.14Z" fill="#FAEFE1" />
                <path d="M1366.57 1026.95H1257.36V1029.66H1366.57V1026.95Z" fill="#FAEFE1" />
                <path d="M1273.81 977.583H1271.1V1038.88H1273.81V977.583Z" fill="#FAEFE1" />
                <path d="M1313.21 977.583H1310.5V1038.88H1313.21V977.583Z" fill="#FAEFE1" />
                <path d="M1352.6 977.583H1349.89V1038.88H1352.6V977.583Z" fill="#FAEFE1" />
                <path d="M1382.72 1038.88H1240.98V1047.2H1382.72V1038.88Z" fill="#D2C6B6" />
                <path
                    d="M1371.05 964.788C1366.41 948.183 1340.66 935.66 1311.14 935.66C1281.62 935.66 1255.87 948.183 1251.23 964.788L1244.27 962.845C1249.84 942.907 1277.96 928.44 1311.14 928.44C1344.32 928.44 1372.44 942.907 1378.01 962.845L1371.05 964.788Z"
                    fill="#D2C6B6" />
                <path
                    d="M1260.15 964.149L1258.47 963.484C1262.71 952.763 1284.05 941.188 1311.14 941.188C1336.92 941.188 1362.05 951.907 1363.86 963.677L1362.08 963.953C1360.59 954.26 1338.01 942.994 1311.14 942.994C1285.64 942.996 1264.19 953.932 1260.15 964.149Z"
                    fill="#D2C6B6" />
                <path d="M1363.77 962.914H1258.59V964.719H1363.77V962.914Z" fill="#D2C6B6" />
                <path d="M1316.58 873.635H1307.12V900.378H1316.58V873.635Z" fill="#ACA991" />
                <path d="M1718.51 1360.86H1486.8V1089.94L1602.65 945.677L1718.51 1089.94V1360.86Z"
                    fill="#898EC3" />
                <path
                    d="M1486.8 1089.94V1126.81L1602.66 969.856L1718.51 1126.81V1089.94L1602.65 945.677L1486.8 1089.94Z"
                    fill="#686C90" />
                <path d="M1516.05 1053.51L1513.29 1056.95H1692.02L1689.26 1053.51H1516.05Z"
                    fill="#686C90" />
                <path d="M1546.45 1015.65L1543.69 1019.09H1661.62L1658.85 1015.65H1546.45Z"
                    fill="#686C90" />
                <path d="M1531.25 1034.58L1528.49 1038.02H1676.82L1674.05 1034.58H1531.25Z"
                    fill="#686C90" />
                <path d="M1576.86 977.798L1574.09 981.237H1631.21L1628.45 977.798H1576.86Z"
                    fill="#686C90" />
                <path d="M1561.66 996.725L1558.89 1000.17H1646.42L1643.65 996.725H1561.66Z"
                    fill="#686C90" />
                <path d="M1718.51 1110.29H1486.8V1113.73H1718.51V1110.29Z" fill="#686C90" />
                <path d="M1500.85 1072.44L1498.09 1075.88H1707.22L1704.46 1072.44H1500.85Z"
                    fill="#686C90" />
                <path d="M1718.51 1091.36H1486.8V1094.81H1718.51V1091.36Z" fill="#686C90" />
                <path
                    d="M1675.59 1131.3C1663.39 1107.27 1635.34 1090.44 1602.66 1090.44C1569.97 1090.44 1541.92 1107.27 1529.72 1131.3H1675.59Z"
                    fill="#FAEFE1" />
                <path
                    d="M1673.9 1132.16C1661.63 1107.96 1633.66 1092.33 1602.65 1092.33C1571.65 1092.33 1543.68 1107.96 1531.41 1132.16L1524.97 1128.89C1538.46 1102.3 1568.95 1085.11 1602.65 1085.11C1636.35 1085.11 1666.85 1102.29 1680.34 1128.89L1673.9 1132.16Z"
                    fill="#D2C6B6" />
                <path
                    d="M1663.92 1131.84H1542.46L1543.3 1130.47C1553.44 1113.88 1580.62 1099.86 1602.65 1099.86C1622.75 1099.86 1650.23 1109.44 1663.08 1130.47L1663.92 1131.84ZM1545.72 1130.04H1660.66C1647.85 1110.56 1621.82 1101.67 1602.65 1101.67C1581.79 1101.67 1556.2 1114.52 1545.72 1130.04Z"
                    fill="#D2C6B6" />
                <path d="M1603.56 1100.77H1601.75V1124.79H1603.56V1100.77Z" fill="#D2C6B6" />
                <path
                    d="M1577.41 1104.79L1575.81 1105.63L1587 1126.89L1588.6 1126.05L1577.41 1104.79Z"
                    fill="#D2C6B6" />
                <path
                    d="M1627.89 1104.75L1616.68 1126L1618.27 1126.84L1629.49 1105.6L1627.89 1104.75Z"
                    fill="#D2C6B6" />
                <path d="M1606.82 987.513H1597.35V1030.1H1606.82V987.513Z" fill="#ACA991" />
                <path
                    d="M1732.37 1124.76L1602.66 949.039L1472.94 1124.76L1454.95 1111.48L1602.66 911.373L1750.36 1111.48L1732.37 1124.76Z"
                    fill="#ACA991" />
                <path
                    d="M1738.63 1120.14L1602.66 935.931L1466.68 1120.14L1465.23 1119.07L1602.66 932.89L1740.08 1119.07L1738.63 1120.14Z"
                    fill="#C5C2A6" />
            </g>
            <mask id="mask6_1218_7467" style="mask-type:luminance" maskUnits="userSpaceOnUse"
                x="-21" y="1022" width="450" height="353">
                <path d="M428.496 1022.13H-21V1374.33H428.496V1022.13Z" fill="white" />
            </mask>
            <g mask="url(#mask6_1218_7467)">
                <path d="M216.862 1110.04H-163.838V1298.24H25.8332L216.862 1110.04Z" fill="#333239" />
                <path
                    d="M132.328 1125.26C139.4 1125.26 145.161 1119.81 145.161 1113.11H146.206C146.206 1120.39 139.982 1126.31 132.33 1126.31C124.676 1126.31 118.455 1120.39 118.455 1113.11H119.497C119.497 1119.8 125.256 1125.26 132.328 1125.26Z"
                    fill="#6D6A7B" />
                <path
                    d="M104.545 1125.26C111.617 1125.26 117.373 1119.81 117.373 1113.11H118.422C118.422 1120.39 112.194 1126.31 104.547 1126.31C96.8926 1126.31 90.6716 1120.39 90.6716 1113.11H91.7159C91.7136 1119.8 97.4725 1125.26 104.545 1125.26Z"
                    fill="#6D6A7B" />
                <path
                    d="M160.112 1125.26C167.188 1125.26 172.945 1119.81 172.945 1113.11H173.989C173.989 1120.39 167.766 1126.31 160.114 1126.31C152.464 1126.31 146.239 1120.39 146.239 1113.11H147.288C147.285 1119.8 153.04 1125.26 160.112 1125.26Z"
                    fill="#6D6A7B" />
                <path
                    d="M187.9 1126.3C180.246 1126.3 174.025 1120.38 174.025 1113.1H175.069C175.069 1119.8 180.823 1125.26 187.902 1125.26C194.977 1125.26 200.731 1119.8 200.731 1113.1H201.775C201.773 1120.38 195.549 1126.3 187.9 1126.3Z"
                    fill="#6D6A7B" />
                <path
                    d="M-6.59426 1125.26C0.477743 1125.26 6.23435 1119.81 6.23435 1113.11H7.27865C7.27865 1120.39 1.05529 1126.31 -6.5919 1126.31C-14.2462 1126.31 -20.4672 1120.39 -20.4672 1113.11H-19.4229C-19.4276 1119.8 -13.671 1125.26 -6.59426 1125.26Z"
                    fill="#6D6A7B" />
                <path
                    d="M21.1892 1125.26C28.2612 1125.26 34.0179 1119.81 34.0179 1113.11H35.0669C35.0669 1120.39 28.8388 1126.31 21.1916 1126.31C13.5373 1126.31 7.31635 1120.39 7.31635 1113.11H8.36064C8.35593 1119.8 14.1172 1125.26 21.1892 1125.26Z"
                    fill="#6D6A7B" />
                <path
                    d="M48.9727 1125.26C56.0447 1125.26 61.806 1119.81 61.806 1113.11H62.8503C62.8503 1120.39 56.627 1126.31 48.9751 1126.31C41.3255 1126.31 35.0998 1120.39 35.0998 1113.11H36.1488C36.1441 1119.8 41.9007 1125.26 48.9727 1125.26Z"
                    fill="#6D6A7B" />
                <path
                    d="M76.761 1125.26C83.833 1125.26 89.5896 1119.81 89.5896 1113.11H90.6339C90.6339 1120.39 84.4105 1126.31 76.7633 1126.31C69.1091 1126.31 62.8881 1120.39 62.8881 1113.11H63.9324C63.93 1119.8 69.6843 1125.26 76.761 1125.26Z"
                    fill="#6D6A7B" />
                <path d="M216.862 1106.97H-167.284V1115.35H216.862V1106.97Z" fill="#6D6A7B" />
                <path
                    d="M26.241 1323.48C27.29 1323.48 28.2966 1323.07 29.0533 1322.34L218.595 1137.1L408.141 1322.34C408.893 1323.07 409.899 1323.48 410.953 1323.48C410.967 1323.48 410.979 1323.48 410.998 1323.48C412.063 1323.47 413.082 1323.04 413.829 1322.27L427.881 1307.89C429.432 1306.3 429.406 1303.75 427.817 1302.2L221.409 1100.49C220.627 1099.72 219.613 1099.34 218.597 1099.34C217.586 1099.34 216.567 1099.72 215.785 1100.49L9.37667 1302.2C7.78782 1303.75 7.76189 1306.3 9.31302 1307.89L23.3698 1322.27C24.1124 1323.04 25.1331 1323.47 26.201 1323.48C26.2104 1323.48 26.2245 1323.48 26.241 1323.48Z"
                    fill="#6D6A7B" />
            </g>
            <path fill-rule="evenodd" clip-rule="evenodd"
                d="M507.274 1060.53L499.888 1088.25H502.351L511.389 1063.26L507.274 1060.53Z"
                fill="#333239" />
            <path fill-rule="evenodd" clip-rule="evenodd"
                d="M524.871 1061.72C524.871 1061.72 529.897 1072.09 531.5 1074.68C531.5 1074.68 532.063 1075.32 531.606 1076.09C531.153 1076.86 523.558 1088.26 523.558 1088.26H525.644H526.234C526.234 1088.26 535.434 1076.43 535.595 1075.37C535.753 1074.32 535.326 1065.49 535.326 1065.49C535.326 1065.49 535.859 1059.45 524.871 1061.72Z"
                fill="#333239" />
            <path fill-rule="evenodd" clip-rule="evenodd"
                d="M491.805 1037.92C491.805 1037.92 492.18 1038.81 492.394 1039.26C492.606 1039.72 493.035 1040.18 494.266 1040.18H497.969C498.401 1041.93 499.824 1047.71 501.604 1055.08C503.745 1063.96 511.177 1065.59 511.177 1065.59L514.763 1088.25H516.903L515.939 1064.87C524.979 1066.69 531.934 1063.62 531.934 1063.62C531.934 1068.61 542.094 1074.18 542.15 1074.61C542.202 1075.04 538.914 1088.25 538.914 1088.25H541.028C541.137 1087.92 545.601 1074.27 545.389 1073.65C545.172 1073.02 542.605 1068.59 541.804 1066.53C541.002 1064.46 543.784 1059.38 542.553 1055.92C541.323 1052.47 538.435 1050.75 535.922 1050.75C533.409 1050.75 519.018 1050.75 515.114 1050.75C511.21 1050.75 509.659 1049.6 509.178 1048.83C508.697 1048.06 502.936 1036.81 502.936 1036.81C502.936 1036.81 504.058 1036.76 504.433 1036.05C504.808 1035.33 504.94 1032.93 504.94 1032.93C504.94 1032.93 502.08 1034.05 501.838 1034.27C501.599 1034.48 501.599 1035.33 501.599 1035.33C501.599 1035.33 499.699 1035.33 499.056 1035.33C498.415 1035.33 497.88 1036.38 496.38 1036.38C494.883 1036.38 492.986 1036.38 492.986 1036.38H491.849C491.845 1036.38 491.35 1036.66 491.805 1037.92Z"
                fill="#333239" />
            <path fill-rule="evenodd" clip-rule="evenodd"
                d="M374.631 1076.8L385.591 1117.97H381.939L368.517 1080.86L374.631 1076.8Z"
                fill="#333239" />
            <path fill-rule="evenodd" clip-rule="evenodd"
                d="M348.503 1078.58C348.503 1078.58 341.037 1093.96 338.654 1097.81C338.654 1097.81 337.822 1098.77 338.496 1099.91C339.17 1101.05 350.45 1117.97 350.45 1117.97H347.352H346.478C346.478 1117.97 332.817 1100.41 332.579 1098.84C332.341 1097.27 332.975 1084.17 332.975 1084.17C332.975 1084.17 332.183 1075.19 348.503 1078.58Z"
                fill="#333239" />
            <path fill-rule="evenodd" clip-rule="evenodd"
                d="M381.079 1041.59C381.079 1041.59 372.524 1058.29 371.807 1059.43C371.091 1060.57 368.788 1062.28 362.989 1062.28C357.194 1062.28 335.83 1062.28 332.093 1062.28C328.362 1062.28 324.074 1064.84 322.247 1069.96C320.42 1075.09 324.55 1082.64 323.362 1085.71C322.169 1088.77 318.357 1095.36 318.037 1096.28C317.721 1097.21 324.352 1117.47 324.512 1117.97H327.647C327.647 1117.97 322.763 1098.35 322.843 1097.7C322.921 1097.06 338.013 1088.8 338.013 1081.4C338.013 1081.4 348.335 1085.95 361.758 1083.24L360.329 1117.97H363.507L368.828 1084.31C368.828 1084.31 379.869 1081.89 383.045 1068.72C385.683 1057.77 387.802 1049.18 388.445 1046.59H393.94C395.77 1046.59 396.404 1045.9 396.722 1045.22C397.04 1044.55 397.597 1043.23 397.597 1043.23C398.271 1041.35 397.535 1040.95 397.535 1040.95H395.847C395.847 1040.95 393.028 1040.95 390.805 1040.95C388.58 1040.95 387.785 1039.38 386.833 1039.38C385.881 1039.38 383.057 1039.38 383.057 1039.38C383.057 1039.38 383.057 1038.13 382.703 1037.81C382.345 1037.49 378.097 1035.82 378.097 1035.82C378.097 1035.82 378.295 1039.38 378.851 1040.45C379.41 1041.52 381.079 1041.59 381.079 1041.59Z"
                fill="#333239" />
        </g>
    </g>
    <defs>
        <clipPath id="clip0_1218_7467">
            <rect width="1728" height="1117" fill="white" />
        </clipPath>
        <clipPath id="clip1_1218_7467">
            <rect width="1768" height="1178.67" fill="white" transform="translate(-21 195.667)" />
        </clipPath>
    </defs>
</svg>
