<svg width="576" height="1117" viewBox="0 0 576 1117" fill="none" xmlns="http://www.w3.org/2000/svg">
<g clip-path="url(#clip0_1363_59206)">
<mask id="path-1-inside-1_1363_59206" fill="white">
<path d="M0 0H576V1117H0V0Z"/>
</mask>
<path d="M0 0H576V1117H0V0Z" fill="#EBF4FF"/>
<g opacity="0.15" clip-path="url(#clip1_1363_59206)">
<path d="M668 874.26C662.199 876.638 658.11 882.33 658.11 888.981C658.11 893.569 660.066 897.692 663.176 900.596C653.116 906.97 646.432 918.183 646.432 930.962C646.432 944.241 653.648 955.829 664.371 962.053C660.46 963.598 657.131 966.288 654.819 969.728C651.758 954.236 635.896 942.429 616.776 942.429C613.293 942.429 609.922 942.828 606.713 943.562C600.768 941.173 594.274 939.852 587.464 939.852C577.072 939.852 567.408 942.921 559.319 948.183C554.388 940.572 545.791 935.525 536.003 935.525C532.876 935.525 529.873 936.048 527.068 936.995C511.139 921.256 489.186 911.525 464.943 911.525C450.356 911.525 436.611 915.067 424.496 921.3C424.519 920.917 424.554 920.538 424.554 920.15C424.554 909.78 416.091 901.372 405.65 901.372C399.995 901.372 394.935 903.852 391.471 907.76C378.237 903.618 364.156 901.372 349.545 901.372C335.018 901.372 321.012 903.581 307.843 907.674C306.838 906.286 305.73 904.977 304.526 903.761C308.779 899.526 311.407 893.682 311.407 887.228C311.407 874.295 300.852 863.811 287.832 863.811C281.519 863.811 275.79 866.28 271.558 870.294C264.91 867.973 258.006 866.192 250.902 864.995C249.086 856.595 241.575 850.296 232.576 850.296C223.889 850.296 216.602 856.172 214.472 864.135C187.872 867.325 163.823 878.74 144.976 895.743C141.331 891.301 135.782 888.46 129.563 888.46C120.43 888.46 112.755 894.585 110.426 902.92C101.713 894.006 89.5284 888.46 76.0295 888.46C66.6326 888.46 57.873 891.154 50.4729 895.793C46.7202 889.412 39.7703 885.114 31.7941 885.114C26.3993 885.114 21.4784 887.087 17.688 890.33C3.14456 879.118 -15.1054 872.425 -34.9405 872.425C-38.5364 872.425 -42.0731 872.67 -45.5539 873.097C-48.3535 863.768 -57.0443 856.962 -67.345 856.962C-77.1717 856.962 -85.5187 863.164 -88.6986 871.831C-91.5551 871.33 -94.4889 871.054 -97.4904 871.054C-100.506 871.054 -103.455 871.332 -106.325 871.838C-108.121 865.576 -112.76 860.515 -118.779 858.118C-116.366 852.622 -115.019 846.558 -115.019 840.179C-115.019 823.401 -124.283 808.781 -138 801.063V1117.33H668V874.26Z" fill="white"/>
<path d="M-81.9863 757.656H67.3257C67.3257 757.656 37.0975 724.369 9.21526 748.951C9.21526 748.951 -17.0539 722.153 -51.3358 748.778C-51.3358 748.778 -71.9038 744.77 -81.9863 757.656Z" fill="white"/>
<path d="M215.914 632.765H365.226C365.226 632.765 334.998 599.478 307.116 624.06C307.116 624.06 280.846 597.262 246.566 623.887C246.566 623.887 225.997 619.88 215.914 632.765Z" fill="white"/>
<path d="M435.629 780.338H584.941C584.941 780.338 554.713 747.051 526.83 771.633C526.83 771.633 500.561 744.835 466.279 771.46C466.279 771.46 445.711 767.452 435.629 780.338Z" fill="white"/>
<mask id="mask0_1363_59206" style="mask-type:luminance" maskUnits="userSpaceOnUse" x="-138" y="825" width="642" height="194">
<path d="M503.961 825.324H-138V1018.83H503.961V825.324Z" fill="white"/>
</mask>
<g mask="url(#mask0_1363_59206)">
<path fill-rule="evenodd" clip-rule="evenodd" d="M234.426 950.923C229.444 951.148 99.2747 892.464 89.3695 889.115C79.4643 885.766 -34.3708 943.172 -48.6177 951.418C-62.8656 959.664 218.077 985.86 234.426 950.923Z" fill="#8499B0"/>
<path fill-rule="evenodd" clip-rule="evenodd" d="M177.274 1014.05C135.164 987.776 -49.9063 872.302 -76.0121 856.168C-76.0121 856.168 -83.4542 852.854 -90.8425 855.339C-98.2341 857.824 -228.802 937.353 -228.802 937.353L-176.028 1014.05H177.274V1014.05Z" fill="#A0BAD6"/>
<path fill-rule="evenodd" clip-rule="evenodd" d="M497.942 1014.05C440.885 973.628 277.807 880.933 271.749 880.729C262.553 880.418 200.849 887.432 13.5406 1003.48C7.5429 1007.2 2.40923 1010.72 -1.92383 1014.05H497.942Z" fill="#A0BAD6"/>
</g>
<path fill-rule="evenodd" clip-rule="evenodd" d="M315.681 706.748C315.681 706.748 312.566 706.139 312.092 705.733C311.618 705.326 312.702 704.311 312.702 704.311C312.702 704.311 307.319 700.62 303.798 700.62C300.277 700.62 295.874 700.62 294.046 700.62C292.218 700.62 294.014 699.435 294.961 698.895C295.909 698.353 296.417 698.183 300.074 698.183C303.73 698.183 304.171 698.183 306.608 698.183C309.046 698.183 312.397 700.011 312.397 700.011H313.566C313.566 700.011 314.175 697.737 315.682 697.675C317.186 697.737 317.794 700.011 317.794 700.011H318.964C318.964 700.011 322.317 698.183 324.753 698.183C327.19 698.183 327.631 698.183 331.287 698.183C334.943 698.183 335.452 698.352 336.4 698.895C337.348 699.436 339.14 700.62 337.315 700.62C335.487 700.62 331.086 700.62 327.564 700.62C324.043 700.62 318.66 704.311 318.66 704.311C318.66 704.311 319.743 705.326 319.269 705.733C318.794 706.14 315.681 706.748 315.681 706.748Z" fill="#A0BAD6"/>
<path fill-rule="evenodd" clip-rule="evenodd" d="M265.954 789.573C265.954 789.573 261.26 788.655 260.545 788.043C259.832 787.43 261.465 785.901 261.465 785.901C261.465 785.901 253.351 780.337 248.045 780.337C242.738 780.337 236.106 780.337 233.352 780.337C230.596 780.337 233.298 778.552 234.729 777.736C236.156 776.92 236.923 776.664 242.433 776.664C247.943 776.664 248.606 776.664 252.279 776.664C255.952 776.664 261.005 779.418 261.005 779.418H262.766C262.766 779.418 263.684 775.992 265.953 775.898C268.222 775.992 269.14 779.418 269.14 779.418H270.903C270.903 779.418 275.953 776.664 279.627 776.664C283.301 776.664 283.964 776.664 289.474 776.664C294.984 776.664 295.751 776.919 297.179 777.736C298.606 778.553 301.312 780.337 298.555 780.337C295.8 780.337 289.168 780.337 283.861 780.337C278.557 780.337 270.442 785.901 270.442 785.901C270.442 785.901 272.075 787.43 271.362 788.043C270.648 788.655 265.954 789.573 265.954 789.573Z" fill="#A0BAD6"/>
<path fill-rule="evenodd" clip-rule="evenodd" d="M343.404 757.923C343.404 757.923 339.766 757.211 339.211 756.736C338.658 756.262 339.924 755.076 339.924 755.076C339.924 755.076 333.635 750.763 329.522 750.763C325.409 750.763 320.267 750.763 318.132 750.763C315.994 750.763 318.091 749.379 319.199 748.747C320.305 748.114 320.9 747.917 325.172 747.917C329.444 747.917 329.956 747.917 332.805 747.917C335.653 747.917 339.569 750.052 339.569 750.052H340.935C340.935 750.052 341.647 747.395 343.405 747.322C345.164 747.395 345.874 750.052 345.874 750.052H347.239C347.239 750.052 351.155 747.917 354.002 747.917C356.851 747.917 357.365 747.917 361.635 747.917C365.907 747.917 366.5 748.114 367.608 748.747C368.715 749.379 370.812 750.763 368.674 750.763C366.54 750.763 361.399 750.763 357.285 750.763C353.171 750.763 346.883 755.076 346.883 755.076C346.883 755.076 348.147 756.262 347.595 756.736C347.041 757.211 343.404 757.923 343.404 757.923Z" fill="#A0BAD6"/>
<path fill-rule="evenodd" clip-rule="evenodd" d="M177.602 768.866C177.602 768.866 175.816 768.516 175.545 768.284C175.274 768.051 175.894 767.468 175.894 767.468C175.894 767.468 172.808 765.353 170.789 765.353C168.772 765.353 166.248 765.353 165.199 765.353C164.153 765.353 165.182 764.675 165.724 764.363C166.269 764.053 166.559 763.956 168.655 763.956C170.752 763.956 171.004 763.956 172.4 763.956C173.799 763.956 175.72 765.005 175.72 765.005H176.389C176.389 765.005 176.738 763.701 177.602 763.666C178.465 763.701 178.812 765.005 178.812 765.005H179.484C179.484 765.005 181.404 763.956 182.801 763.956C184.198 763.956 184.451 763.956 186.548 763.956C188.643 763.956 188.934 764.054 189.476 764.363C190.021 764.675 191.05 765.353 190 765.353C188.954 765.353 186.429 765.353 184.412 765.353C182.395 765.353 179.309 767.468 179.309 767.468C179.309 767.468 179.929 768.051 179.658 768.284C179.387 768.516 177.602 768.866 177.602 768.866Z" fill="#A0BAD6"/>
<path fill-rule="evenodd" clip-rule="evenodd" d="M233.421 730.275C233.421 730.275 230.918 729.785 230.536 729.458C230.156 729.131 231.025 728.316 231.025 728.316C231.025 728.316 226.698 725.348 223.865 725.348C221.035 725.348 217.494 725.348 216.024 725.348C214.555 725.348 215.999 724.394 216.76 723.959C217.522 723.523 217.932 723.386 220.871 723.386C223.81 723.386 224.166 723.386 226.124 723.386C228.084 723.386 230.781 724.856 230.781 724.856H231.721C231.721 724.856 232.209 723.028 233.42 722.979C234.633 723.028 235.121 724.856 235.121 724.856H236.06C236.06 724.856 238.758 723.386 240.715 723.386C242.676 723.386 243.03 723.386 245.971 723.386C248.91 723.386 249.319 723.523 250.081 723.959C250.843 724.393 252.288 725.348 250.818 725.348C249.347 725.348 245.807 725.348 242.975 725.348C240.144 725.348 235.817 728.316 235.817 728.316C235.817 728.316 236.687 729.131 236.305 729.458C235.926 729.785 233.421 730.275 233.421 730.275Z" fill="#A0BAD6"/>
<path fill-rule="evenodd" clip-rule="evenodd" d="M404.261 725.434C404.261 725.434 402.475 725.086 402.205 724.851C401.933 724.618 402.553 724.038 402.553 724.038C402.553 724.038 399.467 721.922 397.449 721.922C395.431 721.922 392.909 721.922 391.861 721.922C390.812 721.922 391.842 721.244 392.384 720.933C392.929 720.621 393.219 720.524 395.316 720.524C397.413 720.524 397.663 720.524 399.061 720.524C400.459 720.524 402.38 721.572 402.38 721.572H403.049C403.049 721.572 403.399 720.269 404.261 720.233C405.126 720.269 405.474 721.572 405.474 721.572H406.143C406.143 721.572 408.065 720.524 409.461 720.524C410.859 720.524 411.111 720.524 413.207 720.524C415.303 720.524 415.594 720.621 416.137 720.933C416.679 721.244 417.709 721.922 416.66 721.922C415.613 721.922 413.09 721.922 411.072 721.922C409.054 721.922 405.968 724.038 405.968 724.038C405.968 724.038 406.589 724.619 406.318 724.851C406.047 725.086 404.261 725.434 404.261 725.434Z" fill="#A0BAD6"/>
<path fill-rule="evenodd" clip-rule="evenodd" d="M494.393 690.624C494.393 690.624 492.609 690.274 492.335 690.041C492.064 689.808 492.686 689.227 492.686 689.227C492.686 689.227 489.599 687.111 487.582 687.111C485.565 687.111 483.041 687.111 481.994 687.111C480.945 687.111 481.974 686.431 482.518 686.121C483.061 685.81 483.351 685.714 485.448 685.714C487.544 685.714 487.796 685.714 489.193 685.714C490.591 685.714 492.51 686.763 492.51 686.763H493.181C493.181 686.763 493.531 685.459 494.392 685.424C495.254 685.459 495.604 686.763 495.604 686.763H496.276C496.276 686.763 498.196 685.714 499.594 685.714C500.989 685.714 501.242 685.714 503.339 685.714C505.433 685.714 505.726 685.812 506.268 686.121C506.813 686.432 507.839 687.111 506.793 687.111C505.743 687.111 503.222 687.111 501.204 687.111C499.186 687.111 496.101 689.227 496.101 689.227C496.101 689.227 496.722 689.808 496.449 690.041C496.178 690.275 494.393 690.624 494.393 690.624Z" fill="#A0BAD6"/>
<path fill-rule="evenodd" clip-rule="evenodd" d="M145.704 717.49C145.704 717.49 143.919 717.139 143.649 716.907C143.377 716.674 143.998 716.092 143.998 716.092C143.998 716.092 140.911 713.977 138.894 713.977C136.874 713.977 134.352 713.977 133.306 713.977C132.256 713.977 133.286 713.299 133.827 712.988C134.372 712.676 134.662 712.58 136.759 712.58C138.855 712.58 139.106 712.58 140.505 712.58C141.902 712.58 143.823 713.627 143.823 713.627H144.491C144.491 713.627 144.841 712.324 145.704 712.288C146.568 712.324 146.918 713.627 146.918 713.627H147.586C147.586 713.627 149.508 712.58 150.904 712.58C152.304 712.58 152.554 712.58 154.65 712.58C156.747 712.58 157.038 712.676 157.582 712.988C158.123 713.299 159.154 713.977 158.106 713.977C157.056 713.977 154.535 713.977 152.515 713.977C150.497 713.977 147.412 716.092 147.412 716.092C147.412 716.092 148.032 716.674 147.761 716.907C147.491 717.139 145.704 717.49 145.704 717.49Z" fill="#A0BAD6"/>
<mask id="mask1_1363_59206" style="mask-type:luminance" maskUnits="userSpaceOnUse" x="-138" y="994" width="806" height="124">
<path d="M668 994.636H-138V1117.33H668V994.636Z" fill="white"/>
</mask>
<g mask="url(#mask1_1363_59206)">
<path fill-rule="evenodd" clip-rule="evenodd" d="M692.766 999.94C692.766 999.94 545.927 999.94 481.111 999.94H-172.338V1122.06H701.916C704.699 1063.44 692.766 999.94 692.766 999.94Z" fill="#65947A"/>
<path fill-rule="evenodd" clip-rule="evenodd" d="M699.489 1060.81L230.994 1042.54C231.123 1040.67 231.262 1038.83 231.404 1037.01L695.071 1025.27C696.397 1034.06 698.079 1046.43 699.489 1060.81Z" fill="#4E715D"/>
<path fill-rule="evenodd" clip-rule="evenodd" d="M-172.338 1040.39V1102.08L701.041 1088.21C700.911 1086.34 700.779 1084.5 700.634 1082.67L-172.338 1040.39Z" fill="#4E715D"/>
</g>
<path d="M380.726 1035.51C380.726 1039.72 344.497 1043.14 299.807 1043.14C255.115 1043.14 218.885 1039.72 218.885 1035.51C218.885 1031.29 255.115 1027.88 299.807 1027.88C344.497 1027.88 380.726 1031.29 380.726 1035.51Z" fill="#4E715D"/>
<path d="M363.734 1020.25H232.584V913.414L298.161 853.863L363.734 913.414V1020.25Z" fill="#C55D43"/>
<path d="M363.735 987.366L360.817 920.966L232.621 923.325L314.088 1013.21L363.735 1012.75V987.366Z" fill="#C9795C"/>
<path d="M363.735 982.591H232.621V983.765H363.735V982.591Z" fill="#C9795C"/>
<path d="M363.735 989.047H232.621V990.22H363.735V989.047Z" fill="#C9795C"/>
<path d="M363.735 976.136H232.621V977.309H363.735V976.136Z" fill="#C9795C"/>
<path d="M363.735 995.503H232.621V996.677H363.735V995.503Z" fill="#C9795C"/>
<path d="M363.735 1014.87H232.621V1016.04H363.735V1014.87Z" fill="#C9795C"/>
<path d="M363.735 1008.42H232.621V1009.59H363.735V1008.42Z" fill="#C9795C"/>
<path d="M363.735 969.68H232.621V970.854H363.735V969.68Z" fill="#C9795C"/>
<path d="M363.735 1001.96H232.621V1003.13H363.735V1001.96Z" fill="#C9795C"/>
<path d="M363.735 956.768H232.621V957.942H363.735V956.768Z" fill="#C9795C"/>
<path d="M363.735 950.312H232.621V951.485H363.735V950.312Z" fill="#C9795C"/>
<path d="M363.735 963.224H232.621V964.397H363.735V963.224Z" fill="#C9795C"/>
<path d="M363.735 937.4H232.621V938.574H363.735V937.4Z" fill="#C9795C"/>
<path d="M363.735 943.857H232.621V945.03H363.735V943.857Z" fill="#C9795C"/>
<path d="M363.735 931.047H232.621V932.22H363.735V931.047Z" fill="#C9795C"/>
<path d="M269.744 935.525H241.348V986.036H269.744V935.525Z" fill="#DBDAD4"/>
<path d="M268.262 982.634H242.83V938.928H268.262V982.634ZM243.754 981.71H267.337V939.852H243.754V981.71Z" fill="#C5C2A6"/>
<path d="M265.707 942.3H245.285V981.152H265.707V942.3Z" fill="#333239"/>
<path d="M266.162 960.032H244.93V962.495H266.162V960.032Z" fill="#DBDAD4"/>
<path d="M256.161 941.899H254.93V981.153H256.161V941.899Z" fill="#DBDAD4"/>
<path d="M354.974 935.525H326.578V986.036H354.974V935.525Z" fill="#DBDAD4"/>
<path d="M353.491 982.634H328.061V938.928H353.491V982.634ZM328.984 981.71H352.568V939.852H328.984V981.71Z" fill="#C5C2A6"/>
<path d="M350.938 942.3H330.518V981.152H350.938V942.3Z" fill="#333239"/>
<path d="M351.392 960.032H330.16V962.495H351.392V960.032Z" fill="#DBDAD4"/>
<path d="M341.392 941.899H340.16V981.153H341.392V941.899Z" fill="#DBDAD4"/>
<path d="M363.733 926.836H235.877V928.01H363.733V926.836Z" fill="#74899B"/>
<path d="M314.088 940.92H282.23V1009.44H314.088V940.92Z" fill="#DBDAD4"/>
<path d="M311.866 1006.54H284.451V943.817H311.866V1006.54ZM285.374 1005.62H310.942V944.74H285.374V1005.62Z" fill="#C5C2A6"/>
<path d="M314.592 1008.98H281.727V1010.91H314.592V1008.98Z" fill="#333239"/>
<path d="M307.876 948.647H288.447V1000.29H307.876V948.647Z" fill="#333239"/>
<path d="M308.61 957.774H288.447V959.005H308.61V957.774Z" fill="#DBDAD4"/>
<path d="M308.61 968.691H288.447V969.923H308.61V968.691Z" fill="#DBDAD4"/>
<path d="M308.61 979.02H288.447V980.251H308.61V979.02Z" fill="#DBDAD4"/>
<path d="M308.61 989.35H288.447V990.581H308.61V989.35Z" fill="#DBDAD4"/>
<path d="M295.538 947.18H294.307V1000.29H295.538V947.18Z" fill="#DBDAD4"/>
<path d="M302.015 947.18H300.783V1000.29H302.015V947.18Z" fill="#DBDAD4"/>
<path d="M288.14 976.378C288.14 977.107 287.549 977.699 286.821 977.699C286.091 977.699 285.5 977.107 285.5 976.378C285.5 975.65 286.091 975.058 286.821 975.058C287.549 975.058 288.14 975.65 288.14 976.378Z" fill="#C5C2A6"/>
<path d="M275.794 974.471H235.299V979.166H275.794V974.471Z" fill="#DBDAD4"/>
<path d="M274.622 977.237H235.299V978.16H274.622V977.237Z" fill="#C5C2A6"/>
<path d="M275.794 1002.64H235.299V1005.87H275.794V1002.64Z" fill="#DBDAD4"/>
<path d="M242.703 979.167H241.088V1004.26H242.703V979.167Z" fill="#DBDAD4"/>
<path d="M249.528 979.167H247.912V1004.26H249.528V979.167Z" fill="#DBDAD4"/>
<path d="M256.355 979.167H254.74V1004.26H256.355V979.167Z" fill="#DBDAD4"/>
<path d="M263.178 979.167H261.562V1004.26H263.178V979.167Z" fill="#DBDAD4"/>
<path d="M270.005 979.167H268.389V1004.26H270.005V979.167Z" fill="#DBDAD4"/>
<path d="M279.558 928.106H273.689V1013.21H279.558V928.106Z" fill="#DBDAD4"/>
<path d="M279.557 928.106H276.896V1013.21H279.557V928.106Z" fill="#C5C2A6"/>
<path d="M237.406 928.106H231.537V1010.91H237.406V928.106Z" fill="#DBDAD4"/>
<path d="M234.744 928.106H231.537V1010.91H234.744V928.106Z" fill="#C5C2A6"/>
<path d="M361.085 974.471H320.59V979.166H361.085V974.471Z" fill="#DBDAD4"/>
<path d="M361.086 977.237H321.764V978.16H361.086V977.237Z" fill="#C5C2A6"/>
<path d="M361.085 1002.64H320.59V1005.87H361.085V1002.64Z" fill="#DBDAD4"/>
<path d="M355.295 979.167H353.68V1004.26H355.295V979.167Z" fill="#DBDAD4"/>
<path d="M348.473 979.167H346.857V1004.26H348.473V979.167Z" fill="#DBDAD4"/>
<path d="M341.646 979.167H340.029V1004.26H341.646V979.167Z" fill="#DBDAD4"/>
<path d="M334.82 979.167H333.205V1004.26H334.82V979.167Z" fill="#DBDAD4"/>
<path d="M327.996 979.167H326.381V1004.26H327.996V979.167Z" fill="#DBDAD4"/>
<path d="M322.695 928.106H316.826V1013.21H322.695V928.106Z" fill="#DBDAD4"/>
<path d="M319.428 928.106H316.766V1013.21H319.428V928.106Z" fill="#C5C2A6"/>
<path d="M364.849 928.106H358.98V1010.91H364.849V928.106Z" fill="#DBDAD4"/>
<path d="M364.79 928.106H361.582V1010.91H364.79V928.106Z" fill="#C5C2A6"/>
<path d="M340.777 1021.9H254.74V1035.61H340.777V1021.9Z" fill="#DBDAD4"/>
<path d="M340.45 1031.26V1032.92L337.422 1035.95H335.762L340.45 1031.26Z" fill="#333239"/>
<path d="M340.45 1027.46V1029.12L333.617 1035.95H331.957L340.45 1027.46Z" fill="#333239"/>
<path d="M340.45 1023.65V1025.31L329.813 1035.95H328.152L340.45 1023.65Z" fill="#333239"/>
<path d="M324.348 1035.95L338.727 1021.57H340.386L326.008 1035.95H324.348Z" fill="#333239"/>
<path d="M320.543 1035.95L334.923 1021.57H336.581L322.203 1035.95H320.543Z" fill="#333239"/>
<path d="M318.734 1033.95L331.12 1021.57H332.778L318.734 1035.61V1033.95Z" fill="#333239"/>
<path d="M318.734 1030.15L327.316 1021.57H328.975L318.734 1031.81V1030.15Z" fill="#333239"/>
<path d="M318.734 1026.34L323.511 1021.57H325.171L318.734 1028.01V1026.34Z" fill="#333239"/>
<path d="M318.734 1022.54L319.706 1021.57H321.366L318.734 1024.2V1022.54Z" fill="#928094"/>
<path d="M318.734 1033.85L320.83 1035.95H319.171L318.734 1035.51V1033.85Z" fill="#928094"/>
<path d="M318.734 1030.05L324.635 1035.95H322.975L318.734 1031.71V1030.05Z" fill="#333239"/>
<path d="M318.734 1026.24L328.44 1035.95H326.779L318.734 1027.9V1026.24Z" fill="#333239"/>
<path d="M318.734 1022.44L332.244 1035.95H330.584L318.734 1024.1V1022.44Z" fill="#333239"/>
<path d="M334.388 1035.95L320.01 1021.57H321.668L336.048 1035.95H334.388Z" fill="#333239"/>
<path d="M338.192 1035.95L323.814 1021.57H325.473L339.853 1035.95H338.192Z" fill="#333239"/>
<path d="M340.45 1034.4L327.617 1021.57H329.276L340.45 1032.74V1034.4Z" fill="#333239"/>
<path d="M340.45 1030.6L331.422 1021.57H333.081L340.45 1028.94V1030.6Z" fill="#333239"/>
<path d="M340.451 1026.79L335.227 1021.57H336.886L340.451 1025.13V1026.79Z" fill="#333239"/>
<path d="M255.936 1031.26V1032.92L258.963 1035.95H260.622L255.936 1031.26Z" fill="#333239"/>
<path d="M255.936 1027.46V1029.12L262.768 1035.95H264.429L255.936 1027.46Z" fill="#333239"/>
<path d="M255.936 1023.65V1025.31L266.572 1035.95H268.231L255.936 1023.65Z" fill="#333239"/>
<path d="M272.036 1035.95L257.658 1021.57H255.998L270.377 1035.95H272.036Z" fill="#333239"/>
<path d="M275.841 1035.95L261.461 1021.57H259.801L274.181 1035.95H275.841Z" fill="#333239"/>
<path d="M277.652 1033.95L265.267 1021.57H263.607L277.652 1035.61V1033.95Z" fill="#333239"/>
<path d="M277.651 1030.15L269.069 1021.57H267.41L277.651 1031.81V1030.15Z" fill="#333239"/>
<path d="M277.651 1026.34L272.874 1021.57H271.215L277.651 1028.01V1026.34Z" fill="#333239"/>
<path d="M277.651 1022.54L276.679 1021.57H275.02L277.651 1024.2V1022.54Z" fill="#928094"/>
<path d="M277.652 1033.85L275.555 1035.95H277.215L277.652 1035.51V1033.85Z" fill="#928094"/>
<path d="M277.652 1030.05L271.75 1035.95H273.41L277.652 1031.71V1030.05Z" fill="#333239"/>
<path d="M277.652 1026.24L267.945 1035.95H269.606L277.652 1027.9V1026.24Z" fill="#333239"/>
<path d="M277.652 1022.44L264.143 1035.95H265.803L277.652 1024.1V1022.44Z" fill="#333239"/>
<path d="M261.998 1035.95L276.376 1021.57H274.717L260.338 1035.95H261.998Z" fill="#333239"/>
<path d="M258.191 1035.95L272.571 1021.57H270.91L256.531 1035.95H258.191Z" fill="#333239"/>
<path d="M255.936 1034.4L268.767 1021.57H267.107L255.936 1032.74V1034.4Z" fill="#333239"/>
<path d="M255.936 1030.6L264.963 1021.57H263.302L255.936 1028.94V1030.6Z" fill="#333239"/>
<path d="M255.936 1026.79L261.158 1021.57H259.498L255.936 1025.13V1026.79Z" fill="#333239"/>
<path d="M321.599 1023.18H274.721V1036.1H321.599V1023.18Z" fill="#333239"/>
<path d="M359.931 1012.74H236.389V1023.18H359.931V1012.74Z" fill="#DBDAD4"/>
<path d="M277.504 1012.74H236.389V1016.26H277.504V1012.74Z" fill="#DCD6AC"/>
<path d="M359.998 1012.74H318.881V1016.26H359.998V1012.74Z" fill="#DCD6AC"/>
<path d="M364.785 1010.91H231.537V1014.38H364.785V1010.91Z" fill="#B2553D"/>
<path d="M256.93 1023.18H236.389V1036.1H256.93V1023.18Z" fill="#333239"/>
<path d="M359.998 1023.18H339.457V1036.1H359.998V1023.18Z" fill="#333239"/>
<path d="M318.268 1016.05H278.051V1036.98H318.268V1016.05Z" fill="#B2553D"/>
<path d="M318.219 1022.58H278.102V1023.19H318.219V1022.58Z" fill="#C55D43"/>
<path d="M318.219 1029.33H278.102V1029.95H318.219V1029.33Z" fill="#C55D43"/>
<path d="M279.558 1003.82H276.623V1036.98H279.558V1003.82Z" fill="#DBDAD4"/>
<path d="M279.559 977.699H275.451V1006.75H279.559V977.699Z" fill="#DBDAD4"/>
<path d="M279.559 1003.23H275.451V1006.75H279.559V1003.23Z" fill="#DCD6AC"/>
<path d="M319.761 1003.82H316.826V1036.98H319.761V1003.82Z" fill="#DBDAD4"/>
<path d="M320.936 977.699H316.826V1006.75H320.936V977.699Z" fill="#DBDAD4"/>
<path d="M320.936 1003.23H316.826V1006.75H320.936V1003.23Z" fill="#DCD6AC"/>
<path d="M232.584 913.414V927.566L298.158 867.977L363.734 927.566V913.414L298.161 853.863L232.584 913.414Z" fill="#C9795C"/>
<path d="M363.735 914.285H235.256V915.459H363.735V914.285Z" fill="#C9795C"/>
<path d="M279.452 869.094L278.158 870.269H318.166L316.873 869.094H279.452Z" fill="#C9795C"/>
<path d="M286.559 862.639L285.268 863.812H311.056L309.765 862.639H286.559Z" fill="#C9795C"/>
<path d="M293.669 856.182L292.377 857.357H303.948L302.654 856.182H293.669Z" fill="#C9795C"/>
<path d="M272.343 875.551L271.051 876.725H325.274L323.982 875.551H272.343Z" fill="#C9795C"/>
<path d="M251.015 894.919L249.721 896.092H346.6L345.308 894.919H251.015Z" fill="#C9795C"/>
<path d="M243.905 901.373L242.613 902.548H353.709L352.417 901.373H243.905Z" fill="#C9795C"/>
<path d="M236.796 907.83L235.504 909.003H360.819L359.526 907.83H236.796Z" fill="#C9795C"/>
<path d="M258.123 888.462L256.83 889.636H339.49L338.197 888.462H258.123Z" fill="#C9795C"/>
<path d="M265.231 882.007L263.939 883.18H332.382L331.09 882.007H265.231Z" fill="#C9795C"/>
<path d="M312.015 880.127H288.273V915.635H312.015V880.127Z" fill="#C9795C"/>
<path d="M310.031 878.366H286.289V913.874H310.031V878.366Z" fill="#DBDAD4"/>
<path d="M308.046 883.355H288.273V912.407H308.046V883.355Z" fill="#C5C2A6"/>
<path d="M306.287 885.115H290.035V910.645H306.287V885.115Z" fill="#333239"/>
<path d="M306.393 896.649H289.924V899.112H306.393V896.649Z" fill="#DBDAD4"/>
<path d="M306.554 890.882H289.828V892.114H306.554V890.882Z" fill="#DBDAD4"/>
<path d="M306.554 903.647H289.828V904.879H306.554V903.647Z" fill="#DBDAD4"/>
<path d="M298.81 885.115H297.578V910.645H298.81V885.115Z" fill="#DBDAD4"/>
<path d="M364.716 917.507H230.846V929.28H364.716V917.507Z" fill="#DBDAD4"/>
<path d="M364.716 926.488H230.846V927.412H364.716V926.488Z" fill="#C5C2A6"/>
<path d="M230.846 929.146V917.507H243.654L230.846 929.146ZM364.716 928.458V917.507H352.666L364.716 928.458Z" fill="#C5C2A6"/>
<path d="M380.268 920.136L298.16 845.522H298.159L216.051 920.136L223.155 927.953L298.159 859.797L373.164 927.953L380.268 920.136Z" fill="#3F5968"/>
<path opacity="0.6" d="M298.159 850.297L218.426 922.751L223.155 927.953L298.159 859.796L373.164 927.953L377.892 922.751L298.159 850.297Z" fill="#5E7689"/>
<path d="M375.744 925.116L373.165 927.953L298.16 859.795L223.157 927.953L220.578 925.116L298.16 854.615L375.744 925.116Z" fill="#DBDAD4"/>
<path d="M375.744 925.116L373.165 927.953L298.16 859.795L223.157 927.953L220.578 925.116L298.16 854.615L375.744 925.116Z" fill="#DBDAD4"/>
<path d="M221.744 926.401L223.155 927.953L298.158 859.796L373.164 927.953L374.574 926.401L298.158 856.962L221.744 926.401Z" fill="#C5C2A6"/>
<path d="M374.069 926.958L298.158 857.978L222.25 926.958L221.629 926.274L298.158 856.73L298.47 857.012L374.69 926.274L374.069 926.958Z" fill="#C5C2A6"/>
<mask id="mask2_1363_59206" style="mask-type:luminance" maskUnits="userSpaceOnUse" x="-138" y="950" width="458" height="168">
<path d="M319.021 950.875H-138V1117.33H319.021V950.875Z" fill="white"/>
</mask>
<g mask="url(#mask2_1363_59206)">
<path fill-rule="evenodd" clip-rule="evenodd" d="M-166.072 959.161H40.6785C83.648 959.161 84.8764 959.161 109.43 959.161C133.984 959.161 165.904 984.046 184.933 999.974C203.962 1015.9 326.118 1133.36 326.118 1133.36L227.289 1189.11L-9.65562 1179.16L-166.072 1111.46V959.161Z" fill="#5A8B93"/>
<path d="M109.946 989.047C120.251 989.047 128.605 987.864 128.605 986.406C128.605 984.948 120.251 983.766 109.946 983.766C99.6417 983.766 91.2881 984.948 91.2881 986.406C91.2881 987.864 99.6417 989.047 109.946 989.047Z" fill="#3F5968"/>
<path fill-rule="evenodd" clip-rule="evenodd" d="M118.293 1043.04C122.876 1038.79 171.219 1037.28 171.219 1037.28L247.21 1140.32C247.21 1140.32 71.2471 1162.05 71.2471 1154.96C71.2471 1147.88 71.2471 1122.85 71.2471 1122.85L118.293 1043.04Z" fill="#3F5968"/>
<path fill-rule="evenodd" clip-rule="evenodd" d="M-97.3074 959.161C-98.4723 959.194 -99.6652 959.213 -100.902 959.213H-121.229C-121.229 959.213 52.6097 1016.46 63.8292 1023.38C75.0487 1030.3 73.5603 1041.42 69.5883 1044.47C65.6142 1047.53 29.3775 1071.27 29.3775 1071.27L55.9841 1096.96L94.3067 1120.56C94.3067 1120.56 135.41 1090.52 160.627 1071.27C185.845 1052.03 172.34 1028.05 149.309 1020.32C126.275 1012.59 -97.3063 959.164 -97.3063 959.164L-97.3074 959.161Z" fill="#C5C2A6"/>
<path d="M31.3364 1004.36C44.3428 1004.36 54.8866 1001.97 54.8866 999.026C54.8866 996.082 44.3428 993.696 31.3364 993.696C18.3299 993.696 7.78613 996.082 7.78613 999.026C7.78613 1001.97 18.3299 1004.36 31.3364 1004.36Z" fill="#ACA991"/>
</g>
<mask id="mask3_1363_59206" style="mask-type:luminance" maskUnits="userSpaceOnUse" x="-138" y="950" width="458" height="168">
<path d="M319.021 950.875H-138V1117.33H319.021V950.875Z" fill="white"/>
</mask>
<g mask="url(#mask3_1363_59206)">
<path fill-rule="evenodd" clip-rule="evenodd" d="M-202.655 1023.37H-61.5827C-32.4249 1023.37 49.5239 1059.7 105.383 1124.4C129.264 1152.06 156.954 1183.9 180.837 1211.3H-202.655V1023.37Z" fill="#578087"/>
<path fill-rule="evenodd" clip-rule="evenodd" d="M-61.5824 1023.37H-122.361C-140.454 1029.7 -160.571 1037.24 -167.483 1041.63C-181.066 1050.28 -183.713 1063.86 -180.72 1069.05C-178.577 1072.76 -144.566 1160.49 -124.48 1211.3H76.5209C76.5209 1211.3 -75.6369 1078.43 -85.8806 1070.03C-96.1243 1061.64 -96.8143 1053.98 -91.5205 1049.05C-86.3653 1044.24 -61.1461 1024.46 -59.8146 1023.41C-60.4207 1023.39 -61.0171 1023.37 -61.5824 1023.37Z" fill="url(#paint0_linear_1363_59206)"/>
</g>
<mask id="mask4_1363_59206" style="mask-type:luminance" maskUnits="userSpaceOnUse" x="352" y="862" width="316" height="256">
<path d="M667.999 862.639H352.568V1117.33H667.999V862.639Z" fill="white"/>
</mask>
<g mask="url(#mask4_1363_59206)">
<path d="M373.09 1091.92C346.943 1099.76 347.112 1118 404.553 1118C461.994 1118 509.769 1113.75 549.996 1121.01C614.594 1132.67 720.861 1119.64 707.787 1103.69C694.713 1087.74 628.035 1100.55 628.035 1100.55L373.09 1091.92Z" fill="#4E715D"/>
<path d="M663.121 988.335H407.393V1107.05H663.121V988.335Z" fill="#686C90"/>
<path d="M538.788 1022.71H511.055V1050.45H538.788V1022.71Z" fill="#FAEFE1"/>
<path d="M540.291 1020.84H509.551V1024.36H540.291V1020.84Z" fill="#FAEFE1"/>
<path d="M536.454 1048.11H513.389V1025.05H536.454V1048.11ZM514.212 1047.29H535.631V1025.87H514.212V1047.29Z" fill="#D2C6B6"/>
<path d="M532.191 1029.3H517.652V1043.84H532.191V1029.3Z" fill="#333239"/>
<path d="M525.539 1028.91H524.305V1044.07H525.539V1028.91Z" fill="#FAEFE1"/>
<path d="M532.501 1035.87H517.34V1037.11H532.501V1035.87Z" fill="#FAEFE1"/>
<path d="M478.777 904.397H630.96L688.223 1004.41H376.799L478.777 904.397Z" fill="#C55D43"/>
<path d="M511.461 971.601L550.345 915.332L541.59 904.397H497.289L511.461 971.601Z" fill="#B2553D"/>
<path d="M688.223 1002.06H376.799V1012.26H688.223V1002.06Z" fill="#ACA991"/>
<path d="M688.223 1008.34H376.799V1009.16H688.223V1008.34Z" fill="#C5C2A6"/>
<path d="M655.011 1111.19H549.377V987.682L602.194 921.916L655.011 987.682V1111.19Z" fill="#898EC3"/>
<path d="M491.048 1021.85H449.938V1080.24H491.048V1021.85Z" fill="#FAEFE1"/>
<path d="M470.903 1021.85H470.08V1079.59H470.903V1021.85Z" fill="#D2C6B6"/>
<path d="M491.048 1021.85H449.938V1024.06H491.048V1021.85Z" fill="#D2C6B6"/>
<path d="M493.503 1019.06H447.482V1022.66H493.503V1019.06Z" fill="#FAEFE1"/>
<path d="M467.618 1028.34H452.936V1071.75H467.618V1028.34Z" fill="#333239"/>
<path d="M458.084 1028.15H456.85V1071.67H458.084V1028.15Z" fill="#FAEFE1"/>
<path d="M463.706 1028.15H462.471V1071.67H463.706V1028.15Z" fill="#FAEFE1"/>
<path d="M468.664 1035.02H452.205V1036.26H468.664V1035.02Z" fill="#FAEFE1"/>
<path d="M468.664 1044.62H452.205V1045.86H468.664V1044.62Z" fill="#FAEFE1"/>
<path d="M468.664 1054.23H452.205V1055.46H468.664V1054.23Z" fill="#FAEFE1"/>
<path d="M468.664 1063.83H452.205V1065.06H468.664V1063.83Z" fill="#FAEFE1"/>
<path d="M488.05 1028.34H473.367V1071.75H488.05V1028.34Z" fill="#333239"/>
<path d="M484.139 1028.15H482.904V1071.67H484.139V1028.15Z" fill="#FAEFE1"/>
<path d="M478.516 1028.15H477.281V1071.67H478.516V1028.15Z" fill="#FAEFE1"/>
<path d="M488.781 1035.02H472.322V1036.26H488.781V1035.02Z" fill="#FAEFE1"/>
<path d="M488.781 1044.62H472.322V1045.86H488.781V1044.62Z" fill="#FAEFE1"/>
<path d="M488.781 1054.23H472.322V1055.46H488.781V1054.23Z" fill="#FAEFE1"/>
<path d="M488.781 1063.83H472.322V1065.06H488.781V1063.83Z" fill="#FAEFE1"/>
<path d="M433.842 1022.58H410.422V1024.68H433.842V1022.58Z" fill="#FAEFE1"/>
<path d="M432.497 1024.2H411.768V1057.44H432.497V1024.2Z" fill="#FAEFE1"/>
<path d="M428.574 1027.55H415.689V1054.09H428.574V1027.55Z" fill="#333239"/>
<path d="M422.748 1026.14H421.514V1055.41H422.748V1026.14Z" fill="#FAEFE1"/>
<path d="M429.478 1037.12H414.789V1038.36H429.478V1037.12Z" fill="#FAEFE1"/>
<path d="M429.478 1030.97H414.789V1032.2H429.478V1030.97Z" fill="#FAEFE1"/>
<path d="M429.478 1049.44H414.789V1050.67H429.478V1049.44Z" fill="#FAEFE1"/>
<path d="M429.478 1043.28H414.789V1044.51H429.478V1043.28Z" fill="#FAEFE1"/>
<path d="M511.461 971.601H427.787V911.2L469.624 879.037L511.461 911.2V971.601Z" fill="#898EC3"/>
<path d="M427.787 927.33L469.624 885.935L511.461 927.33V912.986L503.366 904.976L469.624 879.037L435.879 904.977L427.787 912.985V927.33Z" fill="#686C90"/>
<path d="M511.461 940.435H427.787V942.004H511.461V940.435Z" fill="#686C90"/>
<path d="M511.461 957.693H427.787V959.262H511.461V957.693Z" fill="#686C90"/>
<path d="M511.461 966.322H427.787V967.89H511.461V966.322Z" fill="#686C90"/>
<path d="M511.461 931.805H427.787V933.374H511.461V931.805Z" fill="#686C90"/>
<path d="M511.461 949.065H427.787V950.633H511.461V949.065Z" fill="#686C90"/>
<path d="M445.879 897.291L443.838 898.86H495.409L493.367 897.291H445.879Z" fill="#686C90"/>
<path d="M457.102 888.661L455.062 890.231H484.184L482.143 888.661H457.102Z" fill="#686C90"/>
<path d="M511.461 914.547H427.787V916.116H511.461V914.547Z" fill="#686C90"/>
<path d="M511.461 923.177H427.787V924.745H511.461V923.177Z" fill="#686C90"/>
<path d="M434.655 905.919L432.615 907.488H506.634L504.593 905.919H434.655Z" fill="#686C90"/>
<path d="M515.983 925.279L469.624 879.408L423.264 925.279L416.092 918.03L469.624 865.062L523.155 918.03L515.983 925.279Z" fill="#ACA991"/>
<path d="M518.82 922.415L469.625 873.736L420.43 922.415L419.852 921.83L469.625 872.579L519.398 921.83L518.82 922.415Z" fill="#C5C2A6"/>
<path d="M498.199 930.187C495.903 921.971 483.845 915.705 469.301 915.705C454.756 915.705 442.697 921.972 440.402 930.187H498.199Z" fill="#FAEFE1"/>
<path d="M498.388 929.793H440.209V967.415H498.388V929.793Z" fill="#FAEFE1"/>
<path d="M494.466 936.462H444.781V965.584H494.466V936.462Z" fill="#333239"/>
<path d="M499.214 966.302H440.035V972.709H499.214V966.302Z" fill="#FAEFE1"/>
<path d="M461.988 936.462H458.695V964.931H461.988V936.462Z" fill="#FAEFE1"/>
<path d="M480.555 936.462H477.262V964.931H480.555V936.462Z" fill="#FAEFE1"/>
<path d="M494.568 942.724H444.781V943.96H494.568V942.724Z" fill="#FAEFE1"/>
<path d="M494.568 950.846H444.781V952.081H494.568V950.846Z" fill="#FAEFE1"/>
<path d="M494.568 958.969H444.781V960.204H494.568V958.969Z" fill="#FAEFE1"/>
<path d="M452.282 936.462H451.047V964.408H452.282V936.462Z" fill="#FAEFE1"/>
<path d="M470.243 936.462H469.008V964.408H470.243V936.462Z" fill="#FAEFE1"/>
<path d="M488.202 936.462H486.967V964.408H488.202V936.462Z" fill="#FAEFE1"/>
<path d="M501.933 964.407H437.314V968.198H501.933V964.407Z" fill="#D2C6B6"/>
<path d="M496.614 930.629C494.498 923.059 482.756 917.35 469.301 917.35C455.845 917.35 444.103 923.059 441.988 930.629L438.816 929.743C441.356 920.654 454.176 914.058 469.301 914.058C484.425 914.058 497.245 920.654 499.785 929.743L496.614 930.629Z" fill="#D2C6B6"/>
<path d="M446.054 930.337L445.289 930.034C447.221 925.147 456.95 919.87 469.299 919.87C481.053 919.87 492.509 924.757 493.333 930.122L492.52 930.248C491.84 925.829 481.549 920.693 469.299 920.693C457.676 920.694 447.896 925.68 446.054 930.337Z" fill="#D2C6B6"/>
<path d="M493.291 929.774H445.342V930.597H493.291V929.774Z" fill="#D2C6B6"/>
<path d="M471.782 889.073H467.467V901.266H471.782V889.073Z" fill="#ACA991"/>
<path d="M549.377 1079.59H388.729V1107.8H549.377V1079.59Z" fill="#ACA991"/>
<path d="M396.934 1010.04H390.641V1082.6H396.934V1010.04Z" fill="#ACA991"/>
<path d="M394.882 1021.72C394.427 1021.72 394.059 1021.36 394.059 1020.9C394.059 1020.45 394.427 1020.08 394.882 1020.08C396.606 1020.08 398.509 1019.11 399.974 1017.48C401.637 1015.64 402.552 1013.18 402.551 1010.56C402.551 1010.11 402.919 1009.74 403.374 1009.74C403.828 1009.74 404.197 1010.1 404.197 1010.56C404.197 1013.59 403.132 1016.44 401.195 1018.59C399.423 1020.55 397.063 1021.72 394.882 1021.72Z" fill="#ACA991"/>
<path d="M438.544 1021.72C436.361 1021.72 434.001 1020.55 432.23 1018.59C430.294 1016.44 429.227 1013.59 429.229 1010.56C429.229 1010.1 429.597 1009.74 430.052 1009.74C430.506 1009.74 430.875 1010.11 430.875 1010.56C430.874 1013.18 431.789 1015.64 433.453 1017.48C434.918 1019.11 436.82 1020.08 438.544 1020.08C438.998 1020.08 439.367 1020.45 439.367 1020.9C439.367 1021.36 438.998 1021.72 438.544 1021.72Z" fill="#ACA991"/>
<path d="M442.783 1010.04H436.49V1082.6H442.783V1010.04Z" fill="#ACA991"/>
<path d="M504.494 1010.04H498.201V1082.6H504.494V1010.04Z" fill="#ACA991"/>
<path d="M502.442 1021.72C501.988 1021.72 501.619 1021.36 501.619 1020.9C501.619 1020.45 501.988 1020.08 502.442 1020.08C504.166 1020.08 506.069 1019.11 507.534 1017.48C509.198 1015.64 510.113 1013.18 510.112 1010.56C510.112 1010.11 510.481 1009.74 510.935 1009.74C511.39 1009.74 511.759 1010.1 511.759 1010.56C511.76 1013.59 510.694 1016.44 508.757 1018.59C506.985 1020.55 504.625 1021.72 502.442 1021.72Z" fill="#ACA991"/>
<path d="M550.344 1010.04H544.051V1082.6H550.344V1010.04Z" fill="#ACA991"/>
<path d="M546.104 1021.72C543.922 1021.72 541.562 1020.55 539.791 1018.59C537.854 1016.44 536.788 1013.59 536.789 1010.56C536.789 1010.1 537.158 1009.74 537.612 1009.74C538.067 1009.74 538.435 1010.11 538.435 1010.56C538.435 1013.18 539.351 1015.64 541.014 1017.48C542.477 1019.11 544.381 1020.08 546.105 1020.08C546.56 1020.08 546.929 1020.45 546.929 1020.9C546.927 1021.36 546.559 1021.72 546.104 1021.72Z" fill="#ACA991"/>
<path d="M492.438 1079.59H448.545V1117.96H492.438V1079.59Z" fill="#C5C2A6"/>
<path d="M492.45 1085.95H448.533V1086.77H492.45V1085.95Z" fill="#FAEFE1"/>
<path d="M492.45 1094.22H448.533V1095.05H492.45V1094.22Z" fill="#FAEFE1"/>
<path d="M492.45 1102.5H448.533V1103.32H492.45V1102.5Z" fill="#FAEFE1"/>
<path d="M492.45 1110.78H448.533V1111.6H492.45V1110.78Z" fill="#FAEFE1"/>
<path d="M446.065 1092.76H443.449V1117.96H446.065V1092.76Z" fill="#FAEFE1"/>
<path d="M447.191 1056.06H442.324V1094.63H447.191V1056.06Z" fill="#FAEFE1"/>
<path d="M497.371 1092.76H494.756V1117.96H497.371V1092.76Z" fill="#FAEFE1"/>
<path d="M498.497 1056.06H493.631V1094.63H498.497V1056.06Z" fill="#FAEFE1"/>
<path d="M438.77 1085.99H388.729V1086.82H438.77V1085.99Z" fill="#C5C2A6"/>
<path d="M438.544 1058.84H394.883C393.974 1058.84 393.236 1058.1 393.236 1057.19C393.236 1056.28 393.974 1055.54 394.883 1055.54H438.544C439.453 1055.54 440.191 1056.28 440.191 1057.19C440.191 1058.1 439.453 1058.84 438.544 1058.84Z" fill="#ACA991"/>
<path d="M401.419 1081.07C400.964 1081.07 400.596 1080.7 400.596 1080.24V1057.44C400.596 1056.99 400.964 1056.62 401.419 1056.62C401.873 1056.62 402.242 1056.99 402.242 1057.44V1080.24C402.242 1080.7 401.873 1081.07 401.419 1081.07Z" fill="#ACA991"/>
<path d="M406.517 1081.07C406.062 1081.07 405.693 1080.7 405.693 1080.24V1057.44C405.693 1056.99 406.062 1056.62 406.517 1056.62C406.971 1056.62 407.34 1056.99 407.34 1057.44V1080.24C407.34 1080.7 406.971 1081.07 406.517 1081.07Z" fill="#ACA991"/>
<path d="M411.614 1081.07C411.16 1081.07 410.791 1080.7 410.791 1080.24V1057.44C410.791 1056.99 411.16 1056.62 411.614 1056.62C412.069 1056.62 412.437 1056.99 412.437 1057.44V1080.24C412.437 1080.7 412.069 1081.07 411.614 1081.07Z" fill="#ACA991"/>
<path d="M416.712 1081.07C416.257 1081.07 415.889 1080.7 415.889 1080.24V1057.44C415.889 1056.99 416.257 1056.62 416.712 1056.62C417.166 1056.62 417.535 1056.99 417.535 1057.44V1080.24C417.535 1080.7 417.166 1081.07 416.712 1081.07Z" fill="#ACA991"/>
<path d="M421.81 1081.07C421.355 1081.07 420.986 1080.7 420.986 1080.24V1057.44C420.986 1056.99 421.355 1056.62 421.81 1056.62C422.264 1056.62 422.633 1056.99 422.633 1057.44V1080.24C422.633 1080.7 422.264 1081.07 421.81 1081.07Z" fill="#ACA991"/>
<path d="M426.907 1081.07C426.453 1081.07 426.084 1080.7 426.084 1080.24V1057.44C426.084 1056.99 426.453 1056.62 426.907 1056.62C427.362 1056.62 427.73 1056.99 427.73 1057.44V1080.24C427.729 1080.7 427.362 1081.07 426.907 1081.07Z" fill="#ACA991"/>
<path d="M432.005 1081.07C431.55 1081.07 431.182 1080.7 431.182 1080.24V1057.44C431.182 1056.99 431.55 1056.62 432.005 1056.62C432.459 1056.62 432.828 1056.99 432.828 1057.44V1080.24C432.828 1080.7 432.459 1081.07 432.005 1081.07Z" fill="#ACA991"/>
<path d="M549.376 1085.99H501.328V1086.82H549.376V1085.99Z" fill="#C5C2A6"/>
<path d="M545.593 1058.84H501.932C501.022 1058.84 500.285 1058.1 500.285 1057.19C500.285 1056.28 501.022 1055.54 501.932 1055.54H545.593C546.502 1055.54 547.239 1056.28 547.239 1057.19C547.239 1058.1 546.503 1058.84 545.593 1058.84Z" fill="#ACA991"/>
<path d="M508.47 1081.07C508.015 1081.07 507.646 1080.7 507.646 1080.24V1057.44C507.646 1056.99 508.015 1056.62 508.47 1056.62C508.924 1056.62 509.293 1056.99 509.293 1057.44V1080.24C509.293 1080.7 508.924 1081.07 508.47 1081.07Z" fill="#ACA991"/>
<path d="M513.567 1081.07C513.113 1081.07 512.744 1080.7 512.744 1080.24V1057.44C512.744 1056.99 513.113 1056.62 513.567 1056.62C514.022 1056.62 514.391 1056.99 514.391 1057.44V1080.24C514.391 1080.7 514.022 1081.07 513.567 1081.07Z" fill="#ACA991"/>
<path d="M518.665 1081.07C518.21 1081.07 517.842 1080.7 517.842 1080.24V1057.44C517.842 1056.99 518.21 1056.62 518.665 1056.62C519.12 1056.62 519.488 1056.99 519.488 1057.44V1080.24C519.488 1080.7 519.12 1081.07 518.665 1081.07Z" fill="#ACA991"/>
<path d="M523.763 1081.07C523.308 1081.07 522.939 1080.7 522.939 1080.24V1057.44C522.939 1056.99 523.308 1056.62 523.763 1056.62C524.217 1056.62 524.586 1056.99 524.586 1057.44V1080.24C524.586 1080.7 524.218 1081.07 523.763 1081.07Z" fill="#ACA991"/>
<path d="M528.86 1081.07C528.406 1081.07 528.037 1080.7 528.037 1080.24V1057.44C528.037 1056.99 528.406 1056.62 528.86 1056.62C529.315 1056.62 529.683 1056.99 529.683 1057.44V1080.24C529.683 1080.7 529.315 1081.07 528.86 1081.07Z" fill="#ACA991"/>
<path d="M533.958 1081.07C533.503 1081.07 533.135 1080.7 533.135 1080.24V1057.44C533.135 1056.99 533.503 1056.62 533.958 1056.62C534.413 1056.62 534.781 1056.99 534.781 1057.44V1080.24C534.781 1080.7 534.413 1081.07 533.958 1081.07Z" fill="#ACA991"/>
<path d="M539.056 1081.07C538.601 1081.07 538.232 1080.7 538.232 1080.24V1057.44C538.232 1056.99 538.601 1056.62 539.056 1056.62C539.51 1056.62 539.879 1056.99 539.879 1057.44V1080.24C539.879 1080.7 539.51 1081.07 539.056 1081.07Z" fill="#ACA991"/>
<path d="M655.011 1111.19H549.377V987.682L602.194 921.916L655.011 987.682V1111.19Z" fill="#898EC3"/>
<path d="M549.377 987.682V1004.49L602.195 932.939L655.011 1004.49V987.682L602.194 921.916L549.377 987.682Z" fill="#686C90"/>
<path d="M655.011 1040.11H549.377V1041.67H655.011V1040.11Z" fill="#686C90"/>
<path d="M655.011 1057.36H549.377V1058.93H655.011V1057.36Z" fill="#686C90"/>
<path d="M655.011 1022.85H549.377V1024.42H655.011V1022.85Z" fill="#686C90"/>
<path d="M655.011 1031.48H549.377V1033.05H655.011V1031.48Z" fill="#686C90"/>
<path d="M655.011 1100.51H549.377V1102.08H655.011V1100.51Z" fill="#686C90"/>
<path d="M655.011 1091.88H549.377V1093.45H655.011V1091.88Z" fill="#686C90"/>
<path d="M655.011 1083.25H549.377V1084.82H655.011V1083.25Z" fill="#686C90"/>
<path d="M655.011 1065.99H549.377V1067.56H655.011V1065.99Z" fill="#686C90"/>
<path d="M655.011 1074.62H549.377V1076.19H655.011V1074.62Z" fill="#686C90"/>
<path d="M655.011 1048.73H549.377V1050.3H655.011V1048.73Z" fill="#686C90"/>
<path d="M562.714 971.075L561.453 972.644H642.934L641.675 971.075H562.714Z" fill="#686C90"/>
<path d="M576.574 953.817L575.314 955.386H629.076L627.815 953.817H576.574Z" fill="#686C90"/>
<path d="M569.644 962.446L568.385 964.014H636.005L634.744 962.446H569.644Z" fill="#686C90"/>
<path d="M655.011 1005.59H549.377V1007.16H655.011V1005.59Z" fill="#686C90"/>
<path d="M655.011 1014.22H549.377V1015.79H655.011V1014.22Z" fill="#686C90"/>
<path d="M655.011 996.961H549.377V998.53H655.011V996.961Z" fill="#686C90"/>
<path d="M555.784 979.703L554.523 981.272H649.865L648.605 979.703H555.784Z" fill="#686C90"/>
<path d="M655.011 988.333H549.377V989.902H655.011V988.333Z" fill="#686C90"/>
<path d="M655.011 1098.29H549.377V1111.19H655.011V1098.29Z" fill="#333239"/>
<path d="M635.444 1006.54C629.884 995.584 617.097 987.913 602.194 987.913C587.292 987.913 574.505 995.584 568.945 1006.54H635.444Z" fill="#FAEFE1"/>
<path d="M634.675 1006.93C629.079 995.899 616.329 988.773 602.194 988.773C588.059 988.773 575.309 995.899 569.713 1006.93L566.777 1005.44C572.929 993.316 586.831 985.481 602.194 985.481C617.558 985.481 631.459 993.315 637.611 1005.44L634.675 1006.93Z" fill="#D2C6B6"/>
<path d="M635.455 1006.37H568.934V1072.53H635.455V1006.37Z" fill="#FAEFE1"/>
<path d="M630.517 1013.43H573.869V1066.78H630.517V1013.43Z" fill="#333239"/>
<path d="M631.481 1022.41H573.303V1023.64H631.481V1022.41Z" fill="#FAEFE1"/>
<path d="M631.481 1033.79H573.303V1035.03H631.481V1033.79Z" fill="#FAEFE1"/>
<path d="M631.481 1045.18H573.303V1046.42H631.481V1045.18Z" fill="#FAEFE1"/>
<path d="M631.481 1056.57H573.303V1057.81H631.481V1056.57Z" fill="#FAEFE1"/>
<path d="M630.121 1006.79H574.75L575.133 1006.16C579.758 998.596 592.15 992.207 602.193 992.207C611.355 992.207 623.884 996.573 629.739 1006.16L630.121 1006.79ZM576.238 1005.96H628.639C622.795 997.084 610.931 993.029 602.193 993.029C592.68 993.029 581.016 998.89 576.238 1005.96Z" fill="#D2C6B6"/>
<path d="M637.231 1066.78H566.504V1069.7H637.231V1066.78Z" fill="#D2C6B6"/>
<path d="M661.329 1003.56L602.195 923.449L543.061 1003.56L534.857 997.502L602.195 906.278L669.531 997.502L661.329 1003.56Z" fill="#ACA991"/>
<path d="M664.183 1001.45L602.195 917.473L540.207 1001.45L539.545 1000.96L602.195 916.087L664.845 1000.96L664.183 1001.45Z" fill="#C5C2A6"/>
<path d="M538.791 1070.12C535.303 1069.91 525.769 1110.15 536.98 1110.93C538.11 1111.41 539.47 1111.25 540.203 1111.11C540.215 1111.17 540.227 1111.24 540.238 1111.29C540.999 1111.07 540.287 1111.61 543.24 1110.76C554.236 1109.22 543.684 1070.4 538.791 1070.12Z" fill="#5A8B93"/>
<path d="M552.492 1059.9C547.273 1059.59 533.007 1119.8 549.783 1120.97C551.475 1121.68 553.51 1121.45 554.605 1121.24C554.622 1121.33 554.639 1121.43 554.658 1121.51C555.796 1121.18 554.732 1121.99 559.15 1120.71C575.603 1118.41 559.814 1060.33 552.492 1059.9Z" fill="#3F5968"/>
<path d="M377.579 1067.2C374.092 1066.99 364.559 1107.23 375.769 1108.01C376.9 1108.49 378.26 1108.33 378.991 1108.19C379.003 1108.25 379.014 1108.32 379.027 1108.37C379.788 1108.15 379.075 1108.69 382.028 1107.84C393.024 1106.3 382.472 1067.48 377.579 1067.2Z" fill="#5A8B93"/>
<path d="M404.771 1070.99C400.926 1070.77 390.411 1115.14 402.775 1116C404.022 1116.53 405.521 1116.36 406.329 1116.21C406.341 1116.27 406.354 1116.34 406.367 1116.4C407.206 1116.16 406.421 1116.75 409.678 1115.81C421.806 1114.12 410.167 1071.31 404.771 1070.99Z" fill="#5A8B93"/>
<path d="M386.513 1059.94C381.798 1059.67 368.904 1114.08 384.064 1115.14C385.594 1115.78 387.431 1115.57 388.422 1115.38C388.438 1115.46 388.454 1115.55 388.47 1115.63C389.5 1115.33 388.537 1116.06 392.531 1114.9C407.4 1112.82 393.13 1060.33 386.513 1059.94Z" fill="#3F5968"/>
</g>
<mask id="mask5_1363_59206" style="mask-type:luminance" maskUnits="userSpaceOnUse" x="-138" y="956" width="205" height="162">
<path d="M66.9174 956.768H-138V1117.33H66.9174V956.768Z" fill="white"/>
</mask>
<g mask="url(#mask5_1363_59206)">
<path d="M-104.022 1275.2H46.0623V1075.35L-28.9806 1002.02L-104.022 1075.35V1275.2Z" fill="#DBDAD4"/>
<path d="M46.062 1094.25V1098.56C45.2807 1097.22 45.2743 1095.56 46.062 1094.25Z" fill="#ACA991"/>
<path d="M-104.022 1081.24L-30.6066 1009.5L46.0623 1084.42V1093.9C44.4234 1095.08 42.1118 1094.95 40.575 1093.45C38.9447 1091.86 38.819 1089.34 40.2021 1087.67L40.157 1087.62C38.5117 1089.05 35.9969 1088.98 34.3688 1087.38C32.7386 1085.79 32.6107 1083.28 33.9959 1081.6L33.9486 1081.56C32.3055 1082.98 29.7907 1082.91 28.1605 1081.32C26.5313 1079.72 26.4045 1077.21 27.7897 1075.53L27.7424 1075.49C26.0993 1076.91 23.5845 1076.84 21.9543 1075.25C20.324 1073.66 20.1983 1071.14 21.5814 1069.47L21.5362 1069.42C19.8909 1070.84 17.3762 1070.77 15.7459 1069.18C14.1167 1067.59 13.9899 1065.08 15.3752 1063.4L15.33 1063.36C13.6826 1064.78 11.17 1064.71 9.53972 1063.12C7.90945 1061.52 7.78371 1059.01 9.16681 1057.33L9.12167 1057.29C7.47635 1058.71 4.96165 1058.64 3.33353 1057.05C1.70325 1055.46 1.57537 1052.94 2.96062 1051.27L2.91547 1051.22C1.27016 1052.65 -1.24456 1052.58 -2.87483 1050.98C-4.50403 1049.39 -4.63084 1046.88 -3.24774 1045.2L-3.29287 1045.16C-4.93604 1046.58 -7.4529 1046.51 -9.08102 1044.92C-10.7113 1043.33 -10.837 1040.81 -9.45393 1039.14L-9.49908 1039.09C-11.1444 1040.51 -13.6591 1040.45 -15.2872 1038.85C-16.9175 1037.26 -17.0454 1034.75 -15.6601 1033.07L-15.7074 1033.03C-17.3506 1034.45 -19.8675 1034.38 -21.4956 1032.79C-23.1237 1031.19 -23.2516 1028.68 -21.8685 1027L-21.9136 1026.96C-23.5589 1028.38 -26.0737 1028.31 -27.7018 1026.72C-29.332 1025.13 -29.4578 1022.61 -28.0747 1020.94L-30.6002 1018.47L-33.361 1021.17C-32.1692 1022.84 -32.354 1025.2 -33.9112 1026.72C-35.4662 1028.24 -37.8294 1028.37 -39.4715 1027.14L-39.5682 1027.24C-38.3786 1028.91 -38.5613 1031.27 -40.1174 1032.79C-41.6724 1034.31 -44.0378 1034.44 -45.6799 1033.21L-45.7744 1033.3C-44.5848 1034.97 -44.7696 1037.33 -46.3258 1038.85C-47.8808 1040.37 -50.244 1040.5 -51.8861 1039.28L-51.9828 1039.37C-50.791 1041.04 -50.9758 1043.4 -52.532 1044.92C-54.087 1046.44 -56.4502 1046.57 -58.0923 1045.34L-58.189 1045.44C-56.9993 1047.11 -57.182 1049.47 -58.7392 1050.99C-60.2964 1052.51 -62.6585 1052.64 -64.3017 1051.41L-64.3984 1051.5C-63.2066 1053.17 -63.3915 1055.53 -64.9465 1057.05C-66.5037 1058.57 -68.8658 1058.7 -70.509 1057.47L-70.6057 1057.57C-69.416 1059.24 -69.5987 1061.6 -71.1559 1063.12C-72.711 1064.64 -75.0742 1064.77 -76.7163 1063.54L-76.8151 1063.64C-75.6233 1065.31 -75.806 1067.67 -77.3632 1069.19C-78.9204 1070.71 -81.2825 1070.84 -82.9257 1069.61L-83.0224 1069.7C-81.8306 1071.37 -82.0154 1073.73 -83.5694 1075.25C-85.1266 1076.77 -87.4887 1076.9 -89.1319 1075.68L-89.2286 1075.77C-88.0389 1077.44 -88.2216 1079.8 -89.7788 1081.32C-91.336 1082.84 -93.6992 1082.97 -95.3413 1081.74L-95.438 1081.84C-94.2462 1083.51 -94.4311 1085.87 -95.9861 1087.39C-97.5433 1088.91 -99.9054 1089.04 -101.549 1087.81L-101.645 1087.9C-100.456 1089.57 -100.638 1091.93 -102.196 1093.45C-102.726 1093.97 -103.356 1094.32 -104.017 1094.52V1081.24H-104.022Z" fill="#ACA991"/>
<path d="M-33.8146 1053.11V1013.98H-27.3966V1053.11H13.8276V1059.53H-75.042V1053.11H-33.8146Z" fill="#ACA991"/>
<path d="M-116.464 1094.15C-115.985 1094.15 -115.526 1093.96 -115.181 1093.63L-28.7729 1009.18L57.6378 1093.63C57.9806 1093.96 58.4395 1094.15 58.9199 1094.15C58.9263 1094.15 58.9317 1094.15 58.9403 1094.15C59.4261 1094.15 59.8903 1093.95 60.231 1093.6L66.6371 1087.04C67.3442 1086.32 67.3324 1085.16 66.608 1084.45L-27.4898 992.492C-27.8465 992.143 -28.3087 991.968 -28.7718 991.968C-29.2329 991.968 -29.6971 992.142 -30.0539 992.492L-124.152 1084.45C-124.876 1085.16 -124.888 1086.32 -124.181 1087.04L-117.772 1093.6C-117.434 1093.95 -116.969 1094.15 -116.482 1094.15C-116.478 1094.15 -116.471 1094.15 -116.464 1094.15Z" fill="#6D6A7B"/>
<path d="M-28.7726 1002.43C-28.3094 1002.43 -27.8473 1002.6 -27.4905 1002.95L62.6901 1091.08L60.2313 1093.6C59.8906 1093.95 59.4274 1094.15 58.9406 1094.15C58.932 1094.15 58.9266 1094.15 58.9202 1094.15C58.4398 1094.15 57.9809 1093.97 57.6381 1093.63L-28.7726 1009.18L-115.181 1093.63C-115.526 1093.97 -115.985 1094.15 -116.463 1094.15C-116.472 1094.15 -116.477 1094.15 -116.484 1094.15C-116.969 1094.15 -117.436 1093.95 -117.774 1093.6L-120.235 1091.08L-30.0547 1002.95C-29.6979 1002.6 -29.2337 1002.43 -28.7726 1002.43Z" fill="#333239"/>
<path d="M48.4088 1087.88H42.6045V1276.11H48.4088V1087.88Z" fill="#A5A0BB"/>
<path d="M48.6155 1095.39C46.9208 1093.74 46.8327 1091.07 48.4017 1089.4L54.609 1095.47C52.9744 1097.07 50.3103 1097.05 48.6155 1095.39ZM48.4027 1089.4L42.1944 1083.33C40.6275 1085 40.7135 1087.67 42.4093 1089.32C44.103 1090.98 46.766 1091.01 48.4027 1089.4ZM42.1933 1083.33L35.9839 1077.27C34.4192 1078.94 34.5052 1081.6 36.201 1083.26C37.8968 1084.91 40.5588 1084.94 42.1933 1083.33ZM35.985 1077.27L29.7777 1071.2C28.2108 1072.87 28.299 1075.53 29.9926 1077.19C31.6895 1078.85 34.3515 1078.87 35.985 1077.27ZM29.7777 1071.2L23.5704 1065.13C22.0036 1066.8 22.0895 1069.47 23.7854 1071.12C25.4801 1072.78 28.1453 1072.81 29.7777 1071.2ZM23.5704 1065.13L17.3642 1059.07C15.7952 1060.74 15.8833 1063.4 17.5781 1065.06C19.2739 1066.71 21.9348 1066.74 23.5704 1065.13ZM17.3642 1059.07L11.1559 1053C9.589 1054.67 9.67712 1057.33 11.3708 1058.99C13.0645 1060.65 15.7297 1060.67 17.3642 1059.07ZM11.1559 1053L4.94753 1046.93C3.38067 1048.6 3.46663 1051.27 5.16138 1052.92C6.85828 1054.58 9.5213 1054.61 11.1559 1053ZM4.94753 1046.93L-1.26083 1040.87C-2.82555 1042.54 -2.74171 1045.2 -1.04482 1046.86C0.651009 1048.51 3.31189 1048.54 4.94753 1046.93ZM-1.26083 1040.87L-7.46811 1034.8C-9.03497 1036.47 -8.94899 1039.13 -7.25317 1040.79C-5.55842 1042.45 -2.89325 1042.47 -1.26083 1040.87ZM-7.46811 1034.8L-13.6754 1028.73C-15.2444 1030.4 -15.1563 1033.07 -13.4626 1034.72C-11.7646 1036.38 -9.10268 1036.4 -7.46811 1034.8ZM-13.6743 1028.73L-19.8837 1022.67C-21.4506 1024.34 -21.3625 1027 -19.6677 1028.66C-17.974 1030.31 -15.3089 1030.34 -13.6743 1028.73ZM-26.0899 1016.6C-27.6568 1018.27 -27.5708 1020.93 -25.8761 1022.59C-24.1802 1024.25 -21.5161 1024.27 -19.8837 1022.67L-26.0899 1016.6ZM-31.8684 1016.6L-38.0757 1022.67C-36.4433 1024.27 -33.7781 1024.25 -32.0844 1022.59C-30.3897 1020.93 -30.3015 1018.27 -31.8684 1016.6ZM-38.0757 1022.67L-44.2851 1028.73C-42.6505 1030.34 -39.9854 1030.31 -38.2917 1028.66C-36.5969 1027 -36.5088 1024.34 -38.0757 1022.67ZM-44.2851 1028.73L-50.4902 1034.8C-48.8557 1036.41 -46.1926 1036.38 -44.499 1034.72C-42.8031 1033.07 -42.7161 1030.4 -44.2851 1028.73ZM-50.4913 1034.8L-56.7007 1040.87C-55.0662 1042.47 -52.401 1042.45 -50.7073 1040.79C-49.0104 1039.13 -48.9244 1036.47 -50.4913 1034.8ZM-56.7007 1040.87L-62.9069 1046.93C-61.2724 1048.54 -58.6093 1048.51 -56.9135 1046.86C-55.2188 1045.2 -55.1317 1042.54 -56.7007 1040.87ZM-62.9069 1046.93L-69.1142 1053C-67.4818 1054.61 -64.8166 1054.58 -63.1229 1052.92C-61.426 1051.27 -61.3401 1048.6 -62.9069 1046.93ZM-69.1142 1053L-75.3215 1059.07C-73.6891 1060.67 -71.0239 1060.65 -69.3302 1058.99C-67.6355 1057.33 -67.5473 1054.67 -69.1142 1053ZM-75.3215 1059.07L-81.5298 1065.13C-79.8953 1066.74 -77.2322 1066.71 -75.5364 1065.06C-73.8417 1063.4 -73.7568 1060.74 -75.3215 1059.07ZM-81.5298 1065.13L-87.7371 1071.2C-86.1047 1072.81 -83.4395 1072.78 -81.7437 1071.12C-80.0489 1069.47 -79.963 1066.8 -81.5298 1065.13ZM-87.7371 1071.2L-93.9465 1077.27C-92.312 1078.87 -89.6468 1078.85 -87.9531 1077.19C-86.2573 1075.53 -86.1692 1072.87 -87.7371 1071.2ZM-93.9465 1077.27L-100.153 1083.33C-98.5203 1084.94 -95.8551 1084.91 -94.1593 1083.26C-92.4646 1081.6 -92.3775 1078.94 -93.9465 1077.27ZM-100.153 1083.33L-106.362 1089.4C-104.728 1091.01 -102.063 1090.98 -100.369 1089.32C-98.6718 1087.67 -98.5859 1085 -100.153 1083.33ZM-112.568 1095.47C-110.936 1097.07 -108.271 1097.05 -106.575 1095.39C-104.88 1093.73 -104.792 1091.07 -106.361 1089.4L-112.568 1095.47Z" fill="#A5A0BB"/>
<path d="M-112.367 1096.04L-28.7729 1014.34L54.4085 1095.63L58.8931 1091.04L-28.7729 1005.37L-116.853 1091.45L-112.367 1096.04Z" fill="#A5A0BB"/>
<path d="M-31.9807 1048.99V1009.85H-25.5649V1048.99H15.6625V1055.41H-73.207V1048.99H-31.9807Z" fill="#A5A0BB"/>
<path d="M55.9336 1094.07L54.4086 1095.63L-28.7727 1014.34L-112.367 1096.04L-113.891 1094.48L-28.7727 1011.29L55.9336 1094.07Z" fill="#686C90"/>
<path d="M-58.416 1088.82H0.457432L3.20749 1077.19H-61.165L-58.416 1088.82Z" fill="#686C90"/>
</g>
<path fill-rule="evenodd" clip-rule="evenodd" d="M102.831 974.274L99.4639 986.915H100.587L104.707 975.521L102.831 974.274Z" fill="#333239"/>
<path fill-rule="evenodd" clip-rule="evenodd" d="M110.853 974.82C110.853 974.82 113.145 979.544 113.875 980.725C113.875 980.725 114.132 981.02 113.924 981.371C113.717 981.719 110.255 986.915 110.255 986.915H111.206H111.475C111.475 986.915 115.669 981.524 115.742 981.042C115.814 980.561 115.62 976.537 115.62 976.537C115.62 976.537 115.863 973.783 110.853 974.82Z" fill="#333239"/>
<path fill-rule="evenodd" clip-rule="evenodd" d="M95.779 963.967C95.779 963.967 95.9499 964.372 96.0477 964.58C96.1444 964.787 96.34 965 96.901 965H98.5893C98.7859 965.796 99.435 968.432 100.246 971.793C101.222 975.839 104.611 976.581 104.611 976.581L106.245 986.914H107.221L106.781 976.254C110.903 977.085 114.073 975.685 114.073 975.685C114.073 977.96 118.705 980.497 118.731 980.694C118.754 980.89 117.255 986.914 117.255 986.914H118.219C118.269 986.761 120.304 980.54 120.207 980.256C120.108 979.972 118.938 977.949 118.573 977.009C118.207 976.069 119.475 973.751 118.914 972.176C118.353 970.603 117.037 969.816 115.891 969.816C114.746 969.816 108.185 969.816 106.405 969.816C104.626 969.816 103.919 969.291 103.699 968.941C103.48 968.59 100.854 963.463 100.854 963.463C100.854 963.463 101.365 963.441 101.536 963.114C101.707 962.786 101.767 961.692 101.767 961.692C101.767 961.692 100.463 962.205 100.353 962.304C100.244 962.402 100.244 962.786 100.244 962.786C100.244 962.786 99.3781 962.786 99.0847 962.786C98.7924 962.786 98.5484 963.265 97.865 963.265C97.1825 963.265 96.3174 963.265 96.3174 963.265H95.7994C95.7973 963.266 95.5716 963.392 95.779 963.967Z" fill="#333239"/>
<path fill-rule="evenodd" clip-rule="evenodd" d="M42.3609 981.693L47.3571 1000.46H45.6924L39.5732 983.543L42.3609 981.693Z" fill="#333239"/>
<path fill-rule="evenodd" clip-rule="evenodd" d="M30.4498 982.504C30.4498 982.504 27.0463 989.516 25.9598 991.271C25.9598 991.271 25.5805 991.71 25.8878 992.229C26.1952 992.748 31.3375 1000.46 31.3375 1000.46H29.9253H29.5266C29.5266 1000.46 23.2989 992.455 23.1904 991.741C23.0819 991.027 23.3709 985.053 23.3709 985.053C23.3709 985.053 23.0099 980.961 30.4498 982.504Z" fill="#333239"/>
<path fill-rule="evenodd" clip-rule="evenodd" d="M45.3005 965.639C45.3005 965.639 41.4005 973.253 41.0738 973.772C40.7471 974.292 39.6971 975.071 37.0535 975.071C34.4119 975.071 24.6722 975.071 22.9689 975.071C21.2677 975.071 19.3129 976.239 18.48 978.577C17.6471 980.915 19.5299 984.356 18.9883 985.754C18.4445 987.148 16.7068 990.152 16.5606 990.573C16.4166 990.996 19.4397 1000.23 19.5128 1000.46H20.9421C20.9421 1000.46 18.7153 991.516 18.7519 991.222C18.7873 990.93 25.6674 987.165 25.6674 983.788C25.6674 983.788 30.3733 985.865 36.4925 984.63L35.8412 1000.46H37.2899L39.7154 985.117C39.7154 985.117 44.7491 984.014 46.1967 978.007C47.3993 973.018 48.3654 969.103 48.6588 967.922H51.1638C51.9978 967.922 52.2869 967.605 52.4319 967.295C52.577 966.989 52.8306 966.387 52.8306 966.387C53.138 965.534 52.8027 965.348 52.8027 965.348H52.0332C52.0332 965.348 50.7479 965.348 49.7345 965.348C48.72 965.348 48.3579 964.633 47.9237 964.633C47.4895 964.633 46.2021 964.633 46.2021 964.633C46.2021 964.633 46.2021 964.066 46.0409 963.92C45.8775 963.773 43.941 963.009 43.941 963.009C43.941 963.009 44.0313 964.633 44.2849 965.121C44.5396 965.608 45.3005 965.639 45.3005 965.639Z" fill="#333239"/>
<mask id="mask6_1363_59206" style="mask-type:luminance" maskUnits="userSpaceOnUse" x="286" y="1047" width="83" height="71">
<path d="M368.003 1047.69H286.648V1117.33H368.003V1047.69Z" fill="white"/>
</mask>
<g mask="url(#mask6_1363_59206)">
<path fill-rule="evenodd" clip-rule="evenodd" d="M345.171 1051.05C340.889 1051.05 337.386 1054.55 337.386 1058.83V1090.66V1092.21C336.893 1104.67 323.893 1105.31 323.893 1127.68C323.893 1154.72 323.893 1174.97 323.893 1202.01C323.893 1207.53 328.409 1212.05 333.927 1212.05H356.416C361.935 1212.05 366.449 1207.53 366.449 1202.01C366.449 1162.28 366.449 1129.35 366.449 1089.62C366.449 1077.86 363.752 1077.07 358.231 1073.88C353.381 1071.08 352.981 1066.12 352.956 1064.96V1064.71V1058.83C352.957 1054.55 349.454 1051.05 345.171 1051.05Z" fill="#5A8B93"/>
<path fill-rule="evenodd" clip-rule="evenodd" d="M346.117 1074.51C346.117 1073.99 345.694 1073.56 345.174 1073.56C344.651 1073.56 344.228 1073.99 344.228 1074.51V1096.1L339.782 1093.53C339.511 1093.38 339.167 1093.47 339.013 1093.74C338.857 1094.01 338.95 1094.36 339.221 1094.51L344.228 1097.4V1128.28L331.062 1120.68C330.791 1120.52 330.448 1120.62 330.292 1120.89C330.137 1121.16 330.229 1121.5 330.5 1121.66L344.228 1129.59V1159.2L331.062 1151.6C330.791 1151.44 330.448 1151.54 330.292 1151.81C330.137 1152.07 330.229 1152.42 330.5 1152.58L344.228 1160.5V1202.96C344.228 1203.49 344.651 1203.91 345.174 1203.91C345.694 1203.91 346.117 1203.49 346.117 1202.96V1168.38L357.392 1161.88C357.662 1161.72 357.756 1161.37 357.6 1161.11C357.445 1160.83 357.099 1160.74 356.828 1160.9L346.116 1167.08V1142.33L357.39 1135.82C357.661 1135.66 357.755 1135.32 357.599 1135.05C357.444 1134.78 357.098 1134.68 356.827 1134.84L346.115 1141.02V1116.27L357.389 1109.76C357.66 1109.61 357.754 1109.26 357.598 1108.99C357.443 1108.72 357.097 1108.63 356.826 1108.78L346.114 1114.97V1090.22L357.388 1083.7C357.659 1083.55 357.753 1083.2 357.597 1082.93C357.442 1082.67 357.096 1082.57 356.825 1082.73L346.113 1088.91V1074.51H346.117Z" fill="#15262E"/>
<path fill-rule="evenodd" clip-rule="evenodd" d="M293.746 1106.57C293.746 1120.2 293.746 1114.72 293.746 1120.03C293.746 1125.34 289.849 1128.88 287.635 1131.18C285.42 1133.49 284.092 1136.76 284.092 1147.04C284.092 1157.31 284.38 1192.74 284.38 1201.42C284.38 1224.82 328.969 1224.82 328.969 1201.42C328.969 1192.74 329.257 1157.31 329.257 1147.04C329.257 1136.76 327.929 1133.49 325.714 1131.18C323.501 1128.88 319.602 1125.34 319.602 1120.03C319.602 1114.72 319.602 1120.2 319.602 1106.57C319.602 1088.62 293.746 1088.62 293.746 1106.57Z" fill="#4E715D"/>
<path fill-rule="evenodd" clip-rule="evenodd" d="M305.739 1107.65C305.739 1107.19 306.114 1106.82 306.577 1106.82C307.041 1106.82 307.416 1107.19 307.416 1107.65V1126.78L311.353 1124.51C311.593 1124.37 311.898 1124.45 312.036 1124.69C312.172 1124.93 312.089 1125.24 311.851 1125.38L307.415 1127.94V1155.3L319.08 1148.56C319.32 1148.43 319.624 1148.51 319.763 1148.75C319.9 1148.99 319.816 1149.3 319.577 1149.43L307.415 1156.46V1182.69L319.08 1175.96C319.32 1175.82 319.624 1175.91 319.763 1176.14C319.9 1176.38 319.816 1176.69 319.577 1176.83L307.415 1183.85V1214.01C307.415 1214.48 307.04 1214.85 306.576 1214.85C306.113 1214.85 305.738 1214.48 305.738 1214.01V1190.83L295.748 1185.07C295.509 1184.93 295.427 1184.62 295.565 1184.38C295.703 1184.14 296.008 1184.06 296.248 1184.2L305.738 1189.68V1167.74L295.748 1161.98C295.509 1161.84 295.427 1161.53 295.565 1161.29C295.703 1161.05 296.008 1160.97 296.248 1161.11L305.738 1166.59V1144.66L295.748 1138.89C295.509 1138.75 295.427 1138.45 295.565 1138.21C295.703 1137.97 296.008 1137.89 296.248 1138.02L305.738 1143.51V1121.57L299.232 1117.82C298.992 1117.68 298.91 1117.37 299.046 1117.13C299.185 1116.89 299.491 1116.81 299.731 1116.95L305.738 1120.42V1107.65H305.739Z" fill="#15262E"/>
</g>
</g>
</g>
<path d="M575 0V1117H577V0H575Z" fill="#E0EDFF" mask="url(#path-1-inside-1_1363_59206)"/>
<defs>
<linearGradient id="paint0_linear_1363_59206" x1="-181.827" y1="1117.33" x2="76.5212" y2="1117.33" gradientUnits="userSpaceOnUse">
<stop stop-color="#B4CD4E"/>
<stop offset="1" stop-color="#82B23E"/>
</linearGradient>
<clipPath id="clip0_1363_59206">
<path d="M0 0H576V1117H0V0Z" fill="white"/>
</clipPath>
<clipPath id="clip1_1363_59206">
<rect width="806" height="537.333" fill="white" transform="translate(-138 580)"/>
</clipPath>
</defs>
</svg>
